<?xml version='1.0' encoding='UTF-8' standalone='no'?>
<!-- Created with Fritzing (http://www.fritzing.org/) -->
<svg xmlns="http://www.w3.org/2000/svg"  y="0in" version="1.2" height="1.98125in" baseProfile="tiny" width="1.025in" viewBox="0 0 73.8 142.65" x="0in">
 <desc >Fritzing footprint generated by brd2svg</desc>
 <g  id="silkscreen">
  <path  fill="none" stroke-width="0.576" d="M2.96693,138.329L70.8331,138.329A2.412,2.412,0,0,0,73.512,135.639L73.512,2.9771A2.412,2.412,0,0,0,70.8331,0.288L2.96693,0.288A2.412,2.412,0,0,0,0.288,2.9771L0.288,135.639A2.412,2.412,0,0,0,2.96693,138.329" stroke="white"/>
  <line  stroke-linecap="round" y1="116.1" x1="45.9" y2="137.7" stroke-width="0.72" x2="45.9" stroke="white"/>
  <line  stroke-linecap="round" y1="137.7" x1="45.9" y2="137.7" stroke-width="0.72" x2="53.1" stroke="white"/>
  <line  stroke-linecap="round" y1="137.7" x1="53.1" y2="137.7" stroke-width="0.72" x2="54.9" stroke="white"/>
  <line  stroke-linecap="round" y1="137.7" x1="54.9" y2="137.7" stroke-width="0.72" x2="62.1" stroke="white"/>
  <line  stroke-linecap="round" y1="137.7" x1="62.1" y2="116.1" stroke-width="0.72" x2="62.1" stroke="white"/>
  <line  stroke-linecap="round" y1="137.7" x1="53.1" y2="129.6" stroke-width="0.72" x2="53.1" stroke="white"/>
  <line  stroke-linecap="round" y1="129.6" x1="53.1" y2="129.6" stroke-width="0.72" x2="54.9" stroke="white"/>
  <line  stroke-linecap="round" y1="129.6" x1="54.9" y2="137.7" stroke-width="0.72" x2="54.9" stroke="white"/>
  <line  stroke-linecap="round" y1="17.1" x1="27" y2="36" stroke-width="0.72" x2="27" stroke="white"/>
  <line  stroke-linecap="round" y1="36" x1="27" y2="36" stroke-width="0.72" x2="45.9" stroke="white"/>
  <line  stroke-linecap="round" y1="36" x1="45.9" y2="17.1" stroke-width="0.72" x2="45.9" stroke="white"/>
  <line  stroke-linecap="round" y1="17.1" x1="27" y2="17.1" stroke-width="0.72" x2="45.9" stroke="white"/>
  <line  stroke-linecap="round" y1="68.4" x1="58.5" y2="68.4" stroke-width="0.216" x2="63.9" stroke="white"/>
  <line  stroke-linecap="round" y1="68.4" x1="63.9" y2="63" stroke-width="0.216" x2="63.9" stroke="white"/>
  <line  stroke-linecap="round" y1="63" x1="63.9" y2="63" stroke-width="0.216" x2="58.5" stroke="white"/>
  <line  stroke-linecap="round" y1="63" x1="58.5" y2="68.4" stroke-width="0.216" x2="58.5" stroke="white"/>
  <g >
   <title >element:CN1</title>
   <g >
    <title >package:JST-PH-2-THM-RA</title>
    <line  stroke-linecap="round" y1="115.731" x1="60.2362" y2="118.85" stroke-width="0.36" x2="60.2362" stroke="white"/>
    <line  stroke-linecap="round" y1="118.85" x1="60.2362" y2="118.85" stroke-width="0.36" x2="48.0473" stroke="white"/>
    <line  stroke-linecap="round" y1="118.85" x1="48.0473" y2="115.731" stroke-width="0.36" x2="48.0473" stroke="white"/>
    <line  stroke-linecap="round" y1="115.731" x1="48.0473" y2="115.731" stroke-width="0.36" x2="47.7638" stroke="white"/>
    <line  stroke-linecap="round" y1="137.558" x1="54.8504" y2="129.338" stroke-width="0.36" x2="54.8504" stroke="white"/>
    <line  stroke-linecap="round" y1="129.338" x1="54.8504" y2="129.338" stroke-width="0.36" x2="53.1496" stroke="white"/>
    <line  stroke-linecap="round" y1="129.338" x1="53.1496" y2="137.558" stroke-width="0.36" x2="53.1496" stroke="white"/>
   </g>
  </g>
  <g >
   <title >element:J1</title>
   <g >
    <title >package:1X19</title>
    <line  stroke-linecap="round" y1="45.9" x1="8.1" y2="49.5" stroke-width="0.576" x2="8.1" stroke="white"/>
    <line  stroke-linecap="round" y1="49.5" x1="8.1" y2="51.3" stroke-width="0.576" x2="6.3" stroke="white"/>
    <line  stroke-linecap="round" y1="51.3" x1="2.7" y2="49.5" stroke-width="0.576" x2="0.9" stroke="white"/>
    <line  stroke-linecap="round" y1="36.9" x1="6.3" y2="38.7" stroke-width="0.576" x2="8.1" stroke="white"/>
    <line  stroke-linecap="round" y1="38.7" x1="8.1" y2="42.3" stroke-width="0.576" x2="8.1" stroke="white"/>
    <line  stroke-linecap="round" y1="42.3" x1="8.1" y2="44.1" stroke-width="0.576" x2="6.3" stroke="white"/>
    <line  stroke-linecap="round" y1="44.1" x1="2.7" y2="42.3" stroke-width="0.576" x2="0.9" stroke="white"/>
    <line  stroke-linecap="round" y1="42.3" x1="0.9" y2="38.7" stroke-width="0.576" x2="0.9" stroke="white"/>
    <line  stroke-linecap="round" y1="38.7" x1="0.9" y2="36.9" stroke-width="0.576" x2="2.7" stroke="white"/>
    <line  stroke-linecap="round" y1="45.9" x1="8.1" y2="44.1" stroke-width="0.576" x2="6.3" stroke="white"/>
    <line  stroke-linecap="round" y1="44.1" x1="2.7" y2="45.9" stroke-width="0.576" x2="0.9" stroke="white"/>
    <line  stroke-linecap="round" y1="49.5" x1="0.9" y2="45.9" stroke-width="0.576" x2="0.9" stroke="white"/>
    <line  stroke-linecap="round" y1="24.3" x1="8.1" y2="27.9" stroke-width="0.576" x2="8.1" stroke="white"/>
    <line  stroke-linecap="round" y1="27.9" x1="8.1" y2="29.7" stroke-width="0.576" x2="6.3" stroke="white"/>
    <line  stroke-linecap="round" y1="29.7" x1="2.7" y2="27.9" stroke-width="0.576" x2="0.9" stroke="white"/>
    <line  stroke-linecap="round" y1="29.7" x1="6.3" y2="31.5" stroke-width="0.576" x2="8.1" stroke="white"/>
    <line  stroke-linecap="round" y1="31.5" x1="8.1" y2="35.1" stroke-width="0.576" x2="8.1" stroke="white"/>
    <line  stroke-linecap="round" y1="35.1" x1="8.1" y2="36.9" stroke-width="0.576" x2="6.3" stroke="white"/>
    <line  stroke-linecap="round" y1="36.9" x1="2.7" y2="35.1" stroke-width="0.576" x2="0.9" stroke="white"/>
    <line  stroke-linecap="round" y1="35.1" x1="0.9" y2="31.5" stroke-width="0.576" x2="0.9" stroke="white"/>
    <line  stroke-linecap="round" y1="31.5" x1="0.9" y2="29.7" stroke-width="0.576" x2="2.7" stroke="white"/>
    <line  stroke-linecap="round" y1="15.3" x1="6.3" y2="17.1" stroke-width="0.576" x2="8.1" stroke="white"/>
    <line  stroke-linecap="round" y1="17.1" x1="8.1" y2="20.7" stroke-width="0.576" x2="8.1" stroke="white"/>
    <line  stroke-linecap="round" y1="20.7" x1="8.1" y2="22.5" stroke-width="0.576" x2="6.3" stroke="white"/>
    <line  stroke-linecap="round" y1="22.5" x1="2.7" y2="20.7" stroke-width="0.576" x2="0.9" stroke="white"/>
    <line  stroke-linecap="round" y1="20.7" x1="0.9" y2="17.1" stroke-width="0.576" x2="0.9" stroke="white"/>
    <line  stroke-linecap="round" y1="17.1" x1="0.9" y2="15.3" stroke-width="0.576" x2="2.7" stroke="white"/>
    <line  stroke-linecap="round" y1="24.3" x1="8.1" y2="22.5" stroke-width="0.576" x2="6.3" stroke="white"/>
    <line  stroke-linecap="round" y1="22.5" x1="2.7" y2="24.3" stroke-width="0.576" x2="0.9" stroke="white"/>
    <line  stroke-linecap="round" y1="27.9" x1="0.9" y2="24.3" stroke-width="0.576" x2="0.9" stroke="white"/>
    <line  stroke-linecap="round" y1="2.7" x1="8.1" y2="6.3" stroke-width="0.576" x2="8.1" stroke="white"/>
    <line  stroke-linecap="round" y1="6.3" x1="8.1" y2="8.1" stroke-width="0.576" x2="6.3" stroke="white"/>
    <line  stroke-linecap="round" y1="8.1" x1="2.7" y2="6.3" stroke-width="0.576" x2="0.9" stroke="white"/>
    <line  stroke-linecap="round" y1="8.1" x1="6.3" y2="9.9" stroke-width="0.576" x2="8.1" stroke="white"/>
    <line  stroke-linecap="round" y1="9.9" x1="8.1" y2="13.5" stroke-width="0.576" x2="8.1" stroke="white"/>
    <line  stroke-linecap="round" y1="13.5" x1="8.1" y2="15.3" stroke-width="0.576" x2="6.3" stroke="white"/>
    <line  stroke-linecap="round" y1="15.3" x1="2.7" y2="13.5" stroke-width="0.576" x2="0.9" stroke="white"/>
    <line  stroke-linecap="round" y1="13.5" x1="0.9" y2="9.9" stroke-width="0.576" x2="0.9" stroke="white"/>
    <line  stroke-linecap="round" y1="9.9" x1="0.9" y2="8.1" stroke-width="0.576" x2="2.7" stroke="white"/>
    <line  stroke-linecap="round" y1="0.9" x1="6.3" y2="0.9" stroke-width="0.576" x2="2.7" stroke="white"/>
    <line  stroke-linecap="round" y1="2.7" x1="8.1" y2="0.9" stroke-width="0.576" x2="6.3" stroke="white"/>
    <line  stroke-linecap="round" y1="0.9" x1="2.7" y2="2.7" stroke-width="0.576" x2="0.9" stroke="white"/>
    <line  stroke-linecap="round" y1="6.3" x1="0.9" y2="2.7" stroke-width="0.576" x2="0.9" stroke="white"/>
    <line  stroke-linecap="round" y1="96.3" x1="8.1" y2="99.9" stroke-width="0.576" x2="8.1" stroke="white"/>
    <line  stroke-linecap="round" y1="99.9" x1="8.1" y2="101.7" stroke-width="0.576" x2="6.3" stroke="white"/>
    <line  stroke-linecap="round" y1="101.7" x1="2.7" y2="99.9" stroke-width="0.576" x2="0.9" stroke="white"/>
    <line  stroke-linecap="round" y1="87.3" x1="6.3" y2="89.1" stroke-width="0.576" x2="8.1" stroke="white"/>
    <line  stroke-linecap="round" y1="89.1" x1="8.1" y2="92.7" stroke-width="0.576" x2="8.1" stroke="white"/>
    <line  stroke-linecap="round" y1="92.7" x1="8.1" y2="94.5" stroke-width="0.576" x2="6.3" stroke="white"/>
    <line  stroke-linecap="round" y1="94.5" x1="2.7" y2="92.7" stroke-width="0.576" x2="0.9" stroke="white"/>
    <line  stroke-linecap="round" y1="92.7" x1="0.9" y2="89.1" stroke-width="0.576" x2="0.9" stroke="white"/>
    <line  stroke-linecap="round" y1="89.1" x1="0.9" y2="87.3" stroke-width="0.576" x2="2.7" stroke="white"/>
    <line  stroke-linecap="round" y1="96.3" x1="8.1" y2="94.5" stroke-width="0.576" x2="6.3" stroke="white"/>
    <line  stroke-linecap="round" y1="94.5" x1="2.7" y2="96.3" stroke-width="0.576" x2="0.9" stroke="white"/>
    <line  stroke-linecap="round" y1="99.9" x1="0.9" y2="96.3" stroke-width="0.576" x2="0.9" stroke="white"/>
    <line  stroke-linecap="round" y1="74.7" x1="8.1" y2="78.3" stroke-width="0.576" x2="8.1" stroke="white"/>
    <line  stroke-linecap="round" y1="78.3" x1="8.1" y2="80.1" stroke-width="0.576" x2="6.3" stroke="white"/>
    <line  stroke-linecap="round" y1="80.1" x1="2.7" y2="78.3" stroke-width="0.576" x2="0.9" stroke="white"/>
    <line  stroke-linecap="round" y1="80.1" x1="6.3" y2="81.9" stroke-width="0.576" x2="8.1" stroke="white"/>
    <line  stroke-linecap="round" y1="81.9" x1="8.1" y2="85.5" stroke-width="0.576" x2="8.1" stroke="white"/>
    <line  stroke-linecap="round" y1="85.5" x1="8.1" y2="87.3" stroke-width="0.576" x2="6.3" stroke="white"/>
    <line  stroke-linecap="round" y1="87.3" x1="2.7" y2="85.5" stroke-width="0.576" x2="0.9" stroke="white"/>
    <line  stroke-linecap="round" y1="85.5" x1="0.9" y2="81.9" stroke-width="0.576" x2="0.9" stroke="white"/>
    <line  stroke-linecap="round" y1="81.9" x1="0.9" y2="80.1" stroke-width="0.576" x2="2.7" stroke="white"/>
    <line  stroke-linecap="round" y1="65.7" x1="6.3" y2="67.5" stroke-width="0.576" x2="8.1" stroke="white"/>
    <line  stroke-linecap="round" y1="67.5" x1="8.1" y2="71.1" stroke-width="0.576" x2="8.1" stroke="white"/>
    <line  stroke-linecap="round" y1="71.1" x1="8.1" y2="72.9" stroke-width="0.576" x2="6.3" stroke="white"/>
    <line  stroke-linecap="round" y1="72.9" x1="2.7" y2="71.1" stroke-width="0.576" x2="0.9" stroke="white"/>
    <line  stroke-linecap="round" y1="71.1" x1="0.9" y2="67.5" stroke-width="0.576" x2="0.9" stroke="white"/>
    <line  stroke-linecap="round" y1="67.5" x1="0.9" y2="65.7" stroke-width="0.576" x2="2.7" stroke="white"/>
    <line  stroke-linecap="round" y1="74.7" x1="8.1" y2="72.9" stroke-width="0.576" x2="6.3" stroke="white"/>
    <line  stroke-linecap="round" y1="72.9" x1="2.7" y2="74.7" stroke-width="0.576" x2="0.9" stroke="white"/>
    <line  stroke-linecap="round" y1="78.3" x1="0.9" y2="74.7" stroke-width="0.576" x2="0.9" stroke="white"/>
    <line  stroke-linecap="round" y1="53.1" x1="8.1" y2="56.7" stroke-width="0.576" x2="8.1" stroke="white"/>
    <line  stroke-linecap="round" y1="56.7" x1="8.1" y2="58.5" stroke-width="0.576" x2="6.3" stroke="white"/>
    <line  stroke-linecap="round" y1="58.5" x1="2.7" y2="56.7" stroke-width="0.576" x2="0.9" stroke="white"/>
    <line  stroke-linecap="round" y1="58.5" x1="6.3" y2="60.3" stroke-width="0.576" x2="8.1" stroke="white"/>
    <line  stroke-linecap="round" y1="60.3" x1="8.1" y2="63.9" stroke-width="0.576" x2="8.1" stroke="white"/>
    <line  stroke-linecap="round" y1="63.9" x1="8.1" y2="65.7" stroke-width="0.576" x2="6.3" stroke="white"/>
    <line  stroke-linecap="round" y1="65.7" x1="2.7" y2="63.9" stroke-width="0.576" x2="0.9" stroke="white"/>
    <line  stroke-linecap="round" y1="63.9" x1="0.9" y2="60.3" stroke-width="0.576" x2="0.9" stroke="white"/>
    <line  stroke-linecap="round" y1="60.3" x1="0.9" y2="58.5" stroke-width="0.576" x2="2.7" stroke="white"/>
    <line  stroke-linecap="round" y1="53.1" x1="8.1" y2="51.3" stroke-width="0.576" x2="6.3" stroke="white"/>
    <line  stroke-linecap="round" y1="51.3" x1="2.7" y2="53.1" stroke-width="0.576" x2="0.9" stroke="white"/>
    <line  stroke-linecap="round" y1="56.7" x1="0.9" y2="53.1" stroke-width="0.576" x2="0.9" stroke="white"/>
    <line  stroke-linecap="round" y1="103.5" x1="8.1" y2="101.7" stroke-width="0.576" x2="6.3" stroke="white"/>
    <line  stroke-linecap="round" y1="103.5" x1="8.1" y2="107.1" stroke-width="0.576" x2="8.1" stroke="white"/>
    <line  stroke-linecap="round" y1="107.1" x1="8.1" y2="108.9" stroke-width="0.576" x2="6.3" stroke="white"/>
    <line  stroke-linecap="round" y1="108.9" x1="2.7" y2="107.1" stroke-width="0.576" x2="0.9" stroke="white"/>
    <line  stroke-linecap="round" y1="107.1" x1="0.9" y2="103.5" stroke-width="0.576" x2="0.9" stroke="white"/>
    <line  stroke-linecap="round" y1="101.7" x1="2.7" y2="103.5" stroke-width="0.576" x2="0.9" stroke="white"/>
    <line  stroke-linecap="round" y1="110.7" x1="8.1" y2="108.9" stroke-width="0.576" x2="6.3" stroke="white"/>
    <line  stroke-linecap="round" y1="110.7" x1="8.1" y2="114.3" stroke-width="0.576" x2="8.1" stroke="white"/>
    <line  stroke-linecap="round" y1="114.3" x1="8.1" y2="116.1" stroke-width="0.576" x2="6.3" stroke="white"/>
    <line  stroke-linecap="round" y1="116.1" x1="2.7" y2="114.3" stroke-width="0.576" x2="0.9" stroke="white"/>
    <line  stroke-linecap="round" y1="114.3" x1="0.9" y2="110.7" stroke-width="0.576" x2="0.9" stroke="white"/>
    <line  stroke-linecap="round" y1="108.9" x1="2.7" y2="110.7" stroke-width="0.576" x2="0.9" stroke="white"/>
    <line  stroke-linecap="round" y1="117.9" x1="8.1" y2="116.1" stroke-width="0.576" x2="6.3" stroke="white"/>
    <line  stroke-linecap="round" y1="117.9" x1="8.1" y2="121.5" stroke-width="0.576" x2="8.1" stroke="white"/>
    <line  stroke-linecap="round" y1="121.5" x1="8.1" y2="123.3" stroke-width="0.576" x2="6.3" stroke="white"/>
    <line  stroke-linecap="round" y1="123.3" x1="2.7" y2="121.5" stroke-width="0.576" x2="0.9" stroke="white"/>
    <line  stroke-linecap="round" y1="121.5" x1="0.9" y2="117.9" stroke-width="0.576" x2="0.9" stroke="white"/>
    <line  stroke-linecap="round" y1="116.1" x1="2.7" y2="117.9" stroke-width="0.576" x2="0.9" stroke="white"/>
    <line  stroke-linecap="round" y1="125.1" x1="8.1" y2="123.3" stroke-width="0.576" x2="6.3" stroke="white"/>
    <line  stroke-linecap="round" y1="125.1" x1="8.1" y2="128.7" stroke-width="0.576" x2="8.1" stroke="white"/>
    <line  stroke-linecap="round" y1="128.7" x1="8.1" y2="130.5" stroke-width="0.576" x2="6.3" stroke="white"/>
    <line  stroke-linecap="round" y1="130.5" x1="2.7" y2="128.7" stroke-width="0.576" x2="0.9" stroke="white"/>
    <line  stroke-linecap="round" y1="128.7" x1="0.9" y2="125.1" stroke-width="0.576" x2="0.9" stroke="white"/>
    <line  stroke-linecap="round" y1="123.3" x1="2.7" y2="125.1" stroke-width="0.576" x2="0.9" stroke="white"/>
    <line  stroke-linecap="round" y1="132.3" x1="8.1" y2="130.5" stroke-width="0.576" x2="6.3" stroke="white"/>
    <line  stroke-linecap="round" y1="132.3" x1="8.1" y2="135.9" stroke-width="0.576" x2="8.1" stroke="white"/>
    <line  stroke-linecap="round" y1="135.9" x1="8.1" y2="137.7" stroke-width="0.576" x2="6.3" stroke="white"/>
    <line  stroke-linecap="round" y1="137.7" x1="2.7" y2="135.9" stroke-width="0.576" x2="0.9" stroke="white"/>
    <line  stroke-linecap="round" y1="135.9" x1="0.9" y2="132.3" stroke-width="0.576" x2="0.9" stroke="white"/>
    <line  stroke-linecap="round" y1="130.5" x1="2.7" y2="132.3" stroke-width="0.576" x2="0.9" stroke="white"/>
    <line  stroke-linecap="round" y1="137.7" x1="6.3" y2="137.7" stroke-width="0.576" x2="2.7" stroke="white"/>
   </g>
  </g>
  <g >
   <title >element:J2</title>
   <g >
    <title >package:1X19</title>
    <line  stroke-linecap="round" y1="45.9" x1="72.9" y2="49.5" stroke-width="0.576" x2="72.9" stroke="white"/>
    <line  stroke-linecap="round" y1="49.5" x1="72.9" y2="51.3" stroke-width="0.576" x2="71.1" stroke="white"/>
    <line  stroke-linecap="round" y1="51.3" x1="67.5" y2="49.5" stroke-width="0.576" x2="65.7" stroke="white"/>
    <line  stroke-linecap="round" y1="36.9" x1="71.1" y2="38.7" stroke-width="0.576" x2="72.9" stroke="white"/>
    <line  stroke-linecap="round" y1="38.7" x1="72.9" y2="42.3" stroke-width="0.576" x2="72.9" stroke="white"/>
    <line  stroke-linecap="round" y1="42.3" x1="72.9" y2="44.1" stroke-width="0.576" x2="71.1" stroke="white"/>
    <line  stroke-linecap="round" y1="44.1" x1="67.5" y2="42.3" stroke-width="0.576" x2="65.7" stroke="white"/>
    <line  stroke-linecap="round" y1="42.3" x1="65.7" y2="38.7" stroke-width="0.576" x2="65.7" stroke="white"/>
    <line  stroke-linecap="round" y1="38.7" x1="65.7" y2="36.9" stroke-width="0.576" x2="67.5" stroke="white"/>
    <line  stroke-linecap="round" y1="45.9" x1="72.9" y2="44.1" stroke-width="0.576" x2="71.1" stroke="white"/>
    <line  stroke-linecap="round" y1="44.1" x1="67.5" y2="45.9" stroke-width="0.576" x2="65.7" stroke="white"/>
    <line  stroke-linecap="round" y1="49.5" x1="65.7" y2="45.9" stroke-width="0.576" x2="65.7" stroke="white"/>
    <line  stroke-linecap="round" y1="24.3" x1="72.9" y2="27.9" stroke-width="0.576" x2="72.9" stroke="white"/>
    <line  stroke-linecap="round" y1="27.9" x1="72.9" y2="29.7" stroke-width="0.576" x2="71.1" stroke="white"/>
    <line  stroke-linecap="round" y1="29.7" x1="67.5" y2="27.9" stroke-width="0.576" x2="65.7" stroke="white"/>
    <line  stroke-linecap="round" y1="29.7" x1="71.1" y2="31.5" stroke-width="0.576" x2="72.9" stroke="white"/>
    <line  stroke-linecap="round" y1="31.5" x1="72.9" y2="35.1" stroke-width="0.576" x2="72.9" stroke="white"/>
    <line  stroke-linecap="round" y1="35.1" x1="72.9" y2="36.9" stroke-width="0.576" x2="71.1" stroke="white"/>
    <line  stroke-linecap="round" y1="36.9" x1="67.5" y2="35.1" stroke-width="0.576" x2="65.7" stroke="white"/>
    <line  stroke-linecap="round" y1="35.1" x1="65.7" y2="31.5" stroke-width="0.576" x2="65.7" stroke="white"/>
    <line  stroke-linecap="round" y1="31.5" x1="65.7" y2="29.7" stroke-width="0.576" x2="67.5" stroke="white"/>
    <line  stroke-linecap="round" y1="15.3" x1="71.1" y2="17.1" stroke-width="0.576" x2="72.9" stroke="white"/>
    <line  stroke-linecap="round" y1="17.1" x1="72.9" y2="20.7" stroke-width="0.576" x2="72.9" stroke="white"/>
    <line  stroke-linecap="round" y1="20.7" x1="72.9" y2="22.5" stroke-width="0.576" x2="71.1" stroke="white"/>
    <line  stroke-linecap="round" y1="22.5" x1="67.5" y2="20.7" stroke-width="0.576" x2="65.7" stroke="white"/>
    <line  stroke-linecap="round" y1="20.7" x1="65.7" y2="17.1" stroke-width="0.576" x2="65.7" stroke="white"/>
    <line  stroke-linecap="round" y1="17.1" x1="65.7" y2="15.3" stroke-width="0.576" x2="67.5" stroke="white"/>
    <line  stroke-linecap="round" y1="24.3" x1="72.9" y2="22.5" stroke-width="0.576" x2="71.1" stroke="white"/>
    <line  stroke-linecap="round" y1="22.5" x1="67.5" y2="24.3" stroke-width="0.576" x2="65.7" stroke="white"/>
    <line  stroke-linecap="round" y1="27.9" x1="65.7" y2="24.3" stroke-width="0.576" x2="65.7" stroke="white"/>
    <line  stroke-linecap="round" y1="2.7" x1="72.9" y2="6.3" stroke-width="0.576" x2="72.9" stroke="white"/>
    <line  stroke-linecap="round" y1="6.3" x1="72.9" y2="8.1" stroke-width="0.576" x2="71.1" stroke="white"/>
    <line  stroke-linecap="round" y1="8.1" x1="67.5" y2="6.3" stroke-width="0.576" x2="65.7" stroke="white"/>
    <line  stroke-linecap="round" y1="8.1" x1="71.1" y2="9.9" stroke-width="0.576" x2="72.9" stroke="white"/>
    <line  stroke-linecap="round" y1="9.9" x1="72.9" y2="13.5" stroke-width="0.576" x2="72.9" stroke="white"/>
    <line  stroke-linecap="round" y1="13.5" x1="72.9" y2="15.3" stroke-width="0.576" x2="71.1" stroke="white"/>
    <line  stroke-linecap="round" y1="15.3" x1="67.5" y2="13.5" stroke-width="0.576" x2="65.7" stroke="white"/>
    <line  stroke-linecap="round" y1="13.5" x1="65.7" y2="9.9" stroke-width="0.576" x2="65.7" stroke="white"/>
    <line  stroke-linecap="round" y1="9.9" x1="65.7" y2="8.1" stroke-width="0.576" x2="67.5" stroke="white"/>
    <line  stroke-linecap="round" y1="0.9" x1="71.1" y2="0.9" stroke-width="0.576" x2="67.5" stroke="white"/>
    <line  stroke-linecap="round" y1="2.7" x1="72.9" y2="0.9" stroke-width="0.576" x2="71.1" stroke="white"/>
    <line  stroke-linecap="round" y1="0.9" x1="67.5" y2="2.7" stroke-width="0.576" x2="65.7" stroke="white"/>
    <line  stroke-linecap="round" y1="6.3" x1="65.7" y2="2.7" stroke-width="0.576" x2="65.7" stroke="white"/>
    <line  stroke-linecap="round" y1="96.3" x1="72.9" y2="99.9" stroke-width="0.576" x2="72.9" stroke="white"/>
    <line  stroke-linecap="round" y1="99.9" x1="72.9" y2="101.7" stroke-width="0.576" x2="71.1" stroke="white"/>
    <line  stroke-linecap="round" y1="101.7" x1="67.5" y2="99.9" stroke-width="0.576" x2="65.7" stroke="white"/>
    <line  stroke-linecap="round" y1="87.3" x1="71.1" y2="89.1" stroke-width="0.576" x2="72.9" stroke="white"/>
    <line  stroke-linecap="round" y1="89.1" x1="72.9" y2="92.7" stroke-width="0.576" x2="72.9" stroke="white"/>
    <line  stroke-linecap="round" y1="92.7" x1="72.9" y2="94.5" stroke-width="0.576" x2="71.1" stroke="white"/>
    <line  stroke-linecap="round" y1="94.5" x1="67.5" y2="92.7" stroke-width="0.576" x2="65.7" stroke="white"/>
    <line  stroke-linecap="round" y1="92.7" x1="65.7" y2="89.1" stroke-width="0.576" x2="65.7" stroke="white"/>
    <line  stroke-linecap="round" y1="89.1" x1="65.7" y2="87.3" stroke-width="0.576" x2="67.5" stroke="white"/>
    <line  stroke-linecap="round" y1="96.3" x1="72.9" y2="94.5" stroke-width="0.576" x2="71.1" stroke="white"/>
    <line  stroke-linecap="round" y1="94.5" x1="67.5" y2="96.3" stroke-width="0.576" x2="65.7" stroke="white"/>
    <line  stroke-linecap="round" y1="99.9" x1="65.7" y2="96.3" stroke-width="0.576" x2="65.7" stroke="white"/>
    <line  stroke-linecap="round" y1="74.7" x1="72.9" y2="78.3" stroke-width="0.576" x2="72.9" stroke="white"/>
    <line  stroke-linecap="round" y1="78.3" x1="72.9" y2="80.1" stroke-width="0.576" x2="71.1" stroke="white"/>
    <line  stroke-linecap="round" y1="80.1" x1="67.5" y2="78.3" stroke-width="0.576" x2="65.7" stroke="white"/>
    <line  stroke-linecap="round" y1="80.1" x1="71.1" y2="81.9" stroke-width="0.576" x2="72.9" stroke="white"/>
    <line  stroke-linecap="round" y1="81.9" x1="72.9" y2="85.5" stroke-width="0.576" x2="72.9" stroke="white"/>
    <line  stroke-linecap="round" y1="85.5" x1="72.9" y2="87.3" stroke-width="0.576" x2="71.1" stroke="white"/>
    <line  stroke-linecap="round" y1="87.3" x1="67.5" y2="85.5" stroke-width="0.576" x2="65.7" stroke="white"/>
    <line  stroke-linecap="round" y1="85.5" x1="65.7" y2="81.9" stroke-width="0.576" x2="65.7" stroke="white"/>
    <line  stroke-linecap="round" y1="81.9" x1="65.7" y2="80.1" stroke-width="0.576" x2="67.5" stroke="white"/>
    <line  stroke-linecap="round" y1="65.7" x1="71.1" y2="67.5" stroke-width="0.576" x2="72.9" stroke="white"/>
    <line  stroke-linecap="round" y1="67.5" x1="72.9" y2="71.1" stroke-width="0.576" x2="72.9" stroke="white"/>
    <line  stroke-linecap="round" y1="71.1" x1="72.9" y2="72.9" stroke-width="0.576" x2="71.1" stroke="white"/>
    <line  stroke-linecap="round" y1="72.9" x1="67.5" y2="71.1" stroke-width="0.576" x2="65.7" stroke="white"/>
    <line  stroke-linecap="round" y1="71.1" x1="65.7" y2="67.5" stroke-width="0.576" x2="65.7" stroke="white"/>
    <line  stroke-linecap="round" y1="67.5" x1="65.7" y2="65.7" stroke-width="0.576" x2="67.5" stroke="white"/>
    <line  stroke-linecap="round" y1="74.7" x1="72.9" y2="72.9" stroke-width="0.576" x2="71.1" stroke="white"/>
    <line  stroke-linecap="round" y1="72.9" x1="67.5" y2="74.7" stroke-width="0.576" x2="65.7" stroke="white"/>
    <line  stroke-linecap="round" y1="78.3" x1="65.7" y2="74.7" stroke-width="0.576" x2="65.7" stroke="white"/>
    <line  stroke-linecap="round" y1="53.1" x1="72.9" y2="56.7" stroke-width="0.576" x2="72.9" stroke="white"/>
    <line  stroke-linecap="round" y1="56.7" x1="72.9" y2="58.5" stroke-width="0.576" x2="71.1" stroke="white"/>
    <line  stroke-linecap="round" y1="58.5" x1="67.5" y2="56.7" stroke-width="0.576" x2="65.7" stroke="white"/>
    <line  stroke-linecap="round" y1="58.5" x1="71.1" y2="60.3" stroke-width="0.576" x2="72.9" stroke="white"/>
    <line  stroke-linecap="round" y1="60.3" x1="72.9" y2="63.9" stroke-width="0.576" x2="72.9" stroke="white"/>
    <line  stroke-linecap="round" y1="63.9" x1="72.9" y2="65.7" stroke-width="0.576" x2="71.1" stroke="white"/>
    <line  stroke-linecap="round" y1="65.7" x1="67.5" y2="63.9" stroke-width="0.576" x2="65.7" stroke="white"/>
    <line  stroke-linecap="round" y1="63.9" x1="65.7" y2="60.3" stroke-width="0.576" x2="65.7" stroke="white"/>
    <line  stroke-linecap="round" y1="60.3" x1="65.7" y2="58.5" stroke-width="0.576" x2="67.5" stroke="white"/>
    <line  stroke-linecap="round" y1="53.1" x1="72.9" y2="51.3" stroke-width="0.576" x2="71.1" stroke="white"/>
    <line  stroke-linecap="round" y1="51.3" x1="67.5" y2="53.1" stroke-width="0.576" x2="65.7" stroke="white"/>
    <line  stroke-linecap="round" y1="56.7" x1="65.7" y2="53.1" stroke-width="0.576" x2="65.7" stroke="white"/>
    <line  stroke-linecap="round" y1="103.5" x1="72.9" y2="101.7" stroke-width="0.576" x2="71.1" stroke="white"/>
    <line  stroke-linecap="round" y1="103.5" x1="72.9" y2="107.1" stroke-width="0.576" x2="72.9" stroke="white"/>
    <line  stroke-linecap="round" y1="107.1" x1="72.9" y2="108.9" stroke-width="0.576" x2="71.1" stroke="white"/>
    <line  stroke-linecap="round" y1="108.9" x1="67.5" y2="107.1" stroke-width="0.576" x2="65.7" stroke="white"/>
    <line  stroke-linecap="round" y1="107.1" x1="65.7" y2="103.5" stroke-width="0.576" x2="65.7" stroke="white"/>
    <line  stroke-linecap="round" y1="101.7" x1="67.5" y2="103.5" stroke-width="0.576" x2="65.7" stroke="white"/>
    <line  stroke-linecap="round" y1="110.7" x1="72.9" y2="108.9" stroke-width="0.576" x2="71.1" stroke="white"/>
    <line  stroke-linecap="round" y1="110.7" x1="72.9" y2="114.3" stroke-width="0.576" x2="72.9" stroke="white"/>
    <line  stroke-linecap="round" y1="114.3" x1="72.9" y2="116.1" stroke-width="0.576" x2="71.1" stroke="white"/>
    <line  stroke-linecap="round" y1="116.1" x1="67.5" y2="114.3" stroke-width="0.576" x2="65.7" stroke="white"/>
    <line  stroke-linecap="round" y1="114.3" x1="65.7" y2="110.7" stroke-width="0.576" x2="65.7" stroke="white"/>
    <line  stroke-linecap="round" y1="108.9" x1="67.5" y2="110.7" stroke-width="0.576" x2="65.7" stroke="white"/>
    <line  stroke-linecap="round" y1="117.9" x1="72.9" y2="116.1" stroke-width="0.576" x2="71.1" stroke="white"/>
    <line  stroke-linecap="round" y1="117.9" x1="72.9" y2="121.5" stroke-width="0.576" x2="72.9" stroke="white"/>
    <line  stroke-linecap="round" y1="121.5" x1="72.9" y2="123.3" stroke-width="0.576" x2="71.1" stroke="white"/>
    <line  stroke-linecap="round" y1="123.3" x1="67.5" y2="121.5" stroke-width="0.576" x2="65.7" stroke="white"/>
    <line  stroke-linecap="round" y1="121.5" x1="65.7" y2="117.9" stroke-width="0.576" x2="65.7" stroke="white"/>
    <line  stroke-linecap="round" y1="116.1" x1="67.5" y2="117.9" stroke-width="0.576" x2="65.7" stroke="white"/>
    <line  stroke-linecap="round" y1="125.1" x1="72.9" y2="123.3" stroke-width="0.576" x2="71.1" stroke="white"/>
    <line  stroke-linecap="round" y1="125.1" x1="72.9" y2="128.7" stroke-width="0.576" x2="72.9" stroke="white"/>
    <line  stroke-linecap="round" y1="128.7" x1="72.9" y2="130.5" stroke-width="0.576" x2="71.1" stroke="white"/>
    <line  stroke-linecap="round" y1="130.5" x1="67.5" y2="128.7" stroke-width="0.576" x2="65.7" stroke="white"/>
    <line  stroke-linecap="round" y1="128.7" x1="65.7" y2="125.1" stroke-width="0.576" x2="65.7" stroke="white"/>
    <line  stroke-linecap="round" y1="123.3" x1="67.5" y2="125.1" stroke-width="0.576" x2="65.7" stroke="white"/>
    <line  stroke-linecap="round" y1="132.3" x1="72.9" y2="130.5" stroke-width="0.576" x2="71.1" stroke="white"/>
    <line  stroke-linecap="round" y1="132.3" x1="72.9" y2="135.9" stroke-width="0.576" x2="72.9" stroke="white"/>
    <line  stroke-linecap="round" y1="135.9" x1="72.9" y2="137.7" stroke-width="0.576" x2="71.1" stroke="white"/>
    <line  stroke-linecap="round" y1="137.7" x1="67.5" y2="135.9" stroke-width="0.576" x2="65.7" stroke="white"/>
    <line  stroke-linecap="round" y1="135.9" x1="65.7" y2="132.3" stroke-width="0.576" x2="65.7" stroke="white"/>
    <line  stroke-linecap="round" y1="130.5" x1="67.5" y2="132.3" stroke-width="0.576" x2="65.7" stroke="white"/>
    <line  stroke-linecap="round" y1="137.7" x1="71.1" y2="137.7" stroke-width="0.576" x2="67.5" stroke="white"/>
   </g>
  </g>
  <g >
   <title >element:U1</title>
   <g >
    <title >package:ESP32MOD</title>
    <line  stroke-linecap="round" y1="55.5307" x1="11.3003" y2="55.5307" stroke-width="0.36" x2="62.3239" stroke="white"/>
    <line  stroke-linecap="round" y1="55.5307" x1="11.3003" y2="0.255118" stroke-width="0.36" x2="11.3003" stroke="white"/>
    <line  stroke-linecap="round" y1="0.255118" x1="62.3239" y2="55.5307" stroke-width="0.36" x2="62.3239" stroke="white"/>
    <line  stroke-linecap="round" y1="0.255118" x1="11.3003" y2="0.255118" stroke-width="0.36" x2="62.3239" stroke="white"/>
   </g>
  </g>
  <g >
   <title >element:U2</title>
   <g >
    <title >package:SSOP20_L</title>
    <line  stroke-linecap="round" y1="113.076" x1="16.056" y2="113.076" stroke-width="0.576" x2="27.144" stroke="white"/>
    <line  stroke-linecap="round" y1="88.524" x1="27.144" y2="88.524" stroke-width="0.576" x2="16.056" stroke="white"/>
    <line  stroke-linecap="round" y1="88.524" x1="16.056" y2="91.584" stroke-width="0.576" x2="16.056" stroke="white"/>
    <line  stroke-linecap="round" y1="110.016" x1="16.056" y2="113.076" stroke-width="0.576" x2="16.056" stroke="white"/>
    <line  stroke-linecap="round" y1="88.524" x1="27.144" y2="91.584" stroke-width="0.576" x2="27.144" stroke="white"/>
    <line  stroke-linecap="round" y1="110.016" x1="27.144" y2="113.076" stroke-width="0.576" x2="27.144" stroke="white"/>
    <circle  cy="90" r="0.72" fill="none" stroke-width="0" cx="14.4" stroke="white"/>
   </g>
  </g>
  <g >
   <title >element:USB1</title>
   <g >
    <title >package:MICRO-USB5+6P-SMD-0.65-B</title>
    <line  stroke-linecap="round" y1="137.023" x1="12.0118" y2="138.274" stroke-width="0.36" x2="11.6114" stroke="white"/>
    <line  stroke-linecap="round" y1="137.023" x1="32.9882" y2="138.274" stroke-width="0.36" x2="33.3886" stroke="white"/>
    <line  stroke-linecap="round" y1="137.307" x1="12.0118" y2="137.307" stroke-width="0.36" x2="32.9882" stroke="white"/>
    <line  stroke-linecap="round" y1="137.991" x1="12.6957" y2="137.991" stroke-width="0.36" x2="32.4708" stroke="white"/>
    <line  stroke-linecap="round" y1="137.991" x1="12.6957" y2="138.274" stroke-width="0.36" x2="11.6114" stroke="white"/>
    <line  stroke-linecap="round" y1="137.991" x1="32.4708" y2="138.274" stroke-width="0.36" x2="33.3886" stroke="white"/>
    <line  stroke-linecap="round" y1="126.45" x1="17.9646" y2="126.45" stroke-width="0.36" x2="15.4134" stroke="white"/>
    <line  stroke-linecap="round" y1="126.45" x1="27.0354" y2="126.45" stroke-width="0.36" x2="29.3031" stroke="white"/>
    <line  stroke-linecap="round" y1="130.135" x1="32.9882" y2="131.269" stroke-width="0.36" x2="32.9882" stroke="white"/>
    <line  stroke-linecap="round" y1="137.307" x1="32.9882" y2="137.023" stroke-width="0.36" x2="32.9882" stroke="white"/>
    <line  stroke-linecap="round" y1="137.023" x1="12.0118" y2="137.307" stroke-width="0.36" x2="12.0118" stroke="white"/>
    <line  stroke-linecap="round" y1="130.985" x1="12.0118" y2="130.135" stroke-width="0.36" x2="12.0118" stroke="white"/>
   </g>
  </g>
  <g >
   <title >element:X1</title>
   <g >
    <title >package:TC26H</title>
    <line  stroke-linecap="round" y1="69.12" x1="35.37" y2="64.08" stroke-width="0.432" x2="35.37" stroke="white"/>
    <path  fill="none" d="M18.81,63.72A0.72,0.72,0,0,0,18.09,64.44" stroke-width="0.432" stroke="white"/>
    <path  fill="none" d="M18.09,68.76A0.72,0.72,0,0,0,18.81,69.48" stroke-width="0.432" stroke="white"/>
    <line  stroke-linecap="round" y1="68.76" x1="18.09" y2="64.44" stroke-width="0.432" x2="18.09" stroke="white"/>
    <line  stroke-linecap="round" y1="64.08" x1="35.37" y2="64.08" stroke-width="0.432" x2="34.29" stroke="white"/>
    <line  stroke-linecap="round" y1="63.72" x1="34.29" y2="63.72" stroke-width="0.432" x2="18.81" stroke="white"/>
    <line  stroke-linecap="round" y1="69.12" x1="35.37" y2="69.12" stroke-width="0.432" x2="34.29" stroke="white"/>
    <line  stroke-linecap="round" y1="69.48" x1="34.29" y2="69.12" stroke-width="0.432" x2="34.29" stroke="white"/>
    <line  stroke-linecap="round" y1="69.48" x1="34.29" y2="69.48" stroke-width="0.432" x2="18.81" stroke="white"/>
    <line  stroke-linecap="round" y1="65.16" x1="37.89" y2="65.16" stroke-width="1.152" x2="36.81" stroke="white"/>
    <line  stroke-linecap="round" y1="68.04" x1="37.89" y2="68.04" stroke-width="1.152" x2="36.45" stroke="white"/>
    <line  stroke-linecap="round" y1="68.04" x1="26.01" y2="68.04" stroke-width="0.432" x2="27.09" stroke="white"/>
    <line  stroke-linecap="round" y1="65.16" x1="27.09" y2="68.04" stroke-width="0.432" x2="27.09" stroke="white"/>
    <line  stroke-linecap="round" y1="65.16" x1="27.09" y2="65.16" stroke-width="0.432" x2="26.01" stroke="white"/>
    <line  stroke-linecap="round" y1="68.04" x1="26.01" y2="65.16" stroke-width="0.432" x2="26.01" stroke="white"/>
    <line  stroke-linecap="round" y1="68.04" x1="24.93" y2="66.6" stroke-width="0.432" x2="24.93" stroke="white"/>
    <line  stroke-linecap="round" y1="68.04" x1="28.17" y2="66.6" stroke-width="0.432" x2="28.17" stroke="white"/>
    <line  stroke-linecap="round" y1="66.6" x1="28.17" y2="66.6" stroke-width="0.432" x2="29.61" stroke="white"/>
    <line  stroke-linecap="round" y1="66.6" x1="28.17" y2="65.16" stroke-width="0.432" x2="28.17" stroke="white"/>
    <line  stroke-linecap="round" y1="66.6" x1="24.93" y2="66.6" stroke-width="0.432" x2="23.49" stroke="white"/>
    <line  stroke-linecap="round" y1="66.6" x1="24.93" y2="65.16" stroke-width="0.432" x2="24.93" stroke="white"/>
    <line  stroke-linecap="round" y1="63.72" x1="34.29" y2="64.08" stroke-width="0.432" x2="34.29" stroke="white"/>
    <line  stroke-linecap="round" y1="64.08" x1="34.29" y2="69.12" stroke-width="0.432" x2="34.29" stroke="white"/>
    <rect  y="65.988" height="1.656" width="1.152" fill="white" stroke-width="0" x="35.766" stroke="none"/>
    <rect  y="68.868" height="1.656" width="1.152" fill="white" stroke-width="0" x="35.766" stroke="none"/>
   </g>
  </g>
  <g >
   <title >element:Z2</title>
   <g >
    <title >package:ELEPHANT</title>
   </g>
  </g>
  <line  y1="142.362" fill="none" x1="11.6114" y2="142.362" stroke-width="0.576" x2="33.3886" fill-opacity="1" stroke="white"/>
  <line  y1="142.362" fill="none" x1="11.6114" y2="138.6" stroke-width="0.576" x2="11.6114" fill-opacity="1" stroke="white"/>
  <line  y1="142.362" fill="none" x1="33.3886" y2="138.6" stroke-width="0.576" x2="33.3886" fill-opacity="1" stroke="white"/>
 </g>
 <g  id="copper1">
  <g  id="copper0">
   <circle  connectorname="3.3V" cy="4.5" id="connector28pad" r="2.052" fill="none" stroke-width="1.224" cx="4.5" stroke="#F7BD13"/>
   <rect  y="2.448" height="4.104" fill="none" width="4.104" stroke-width="1.224" stroke="#F7BD13" x="2.448"/>
   <circle  connectorname="CHIP_PU" cy="11.7" id="connector29pad" r="2.052" fill="none" stroke-width="1.224" cx="4.5" stroke="#F7BD13"/>
   <circle  connectorname="IO36" cy="18.9" id="connector30pad" r="2.052" fill="none" stroke-width="1.224" cx="4.5" stroke="#F7BD13"/>
   <circle  connectorname="IO39" cy="26.1" id="connector31pad" r="2.052" fill="none" stroke-width="1.224" cx="4.5" stroke="#F7BD13"/>
   <circle  connectorname="IO34" cy="33.3" id="connector32pad" r="2.052" fill="none" stroke-width="1.224" cx="4.5" stroke="#F7BD13"/>
   <circle  connectorname="IO35" cy="40.5" id="connector33pad" r="2.052" fill="none" stroke-width="1.224" cx="4.5" stroke="#F7BD13"/>
   <circle  connectorname="IO32" cy="47.7" id="connector34pad" r="2.052" fill="none" stroke-width="1.224" cx="4.5" stroke="#F7BD13"/>
   <circle  connectorname="IO33" cy="54.9" id="connector35pad" r="2.052" fill="none" stroke-width="1.224" cx="4.5" stroke="#F7BD13"/>
   <circle  connectorname="IO25" cy="62.1" id="connector36pad" r="2.052" fill="none" stroke-width="1.224" cx="4.5" stroke="#F7BD13"/>
   <circle  connectorname="IO26" cy="69.3" id="connector37pad" r="2.052" fill="none" stroke-width="1.224" cx="4.5" stroke="#F7BD13"/>
   <circle  connectorname="IO27" cy="76.5" id="connector38pad" r="2.052" fill="none" stroke-width="1.224" cx="4.5" stroke="#F7BD13"/>
   <circle  connectorname="IO14" cy="83.7" id="connector39pad" r="2.052" fill="none" stroke-width="1.224" cx="4.5" stroke="#F7BD13"/>
   <circle  connectorname="IO12" cy="90.9" id="connector40pad" r="2.052" fill="none" stroke-width="1.224" cx="4.5" stroke="#F7BD13"/>
   <circle  connectorname="V_BATT" cy="98.1" id="connector41pad" r="2.052" fill="none" stroke-width="1.224" cx="4.5" stroke="#F7BD13"/>
   <circle  connectorname="IO13" cy="105.3" id="connector42pad" r="2.052" fill="none" stroke-width="1.224" cx="4.5" stroke="#F7BD13"/>
   <circle  connectorname="IO9" cy="112.5" id="connector43pad" r="2.052" fill="none" stroke-width="1.224" cx="4.5" stroke="#F7BD13"/>
   <circle  connectorname="IO10" cy="119.7" id="connector44pad" r="2.052" fill="none" stroke-width="1.224" cx="4.5" stroke="#F7BD13"/>
   <circle  connectorname="IO11" cy="126.9" id="connector45pad" r="2.052" fill="none" stroke-width="1.224" cx="4.5" stroke="#F7BD13"/>
   <circle  connectorname="5V" cy="134.1" id="connector46pad" r="2.052" fill="none" stroke-width="1.224" cx="4.5" stroke="#F7BD13"/>
   <circle  connectorname="GND" cy="4.5" id="connector47pad" r="2.052" fill="none" stroke-width="1.224" cx="69.3" stroke="#F7BD13"/>
   <circle  connectorname="IO23" cy="11.7" id="connector48pad" r="2.052" fill="none" stroke-width="1.224" cx="69.3" stroke="#F7BD13"/>
   <circle  connectorname="IO22" cy="18.9" id="connector49pad" r="2.052" fill="none" stroke-width="1.224" cx="69.3" stroke="#F7BD13"/>
   <circle  connectorname="TXD" cy="26.1" id="connector50pad" r="2.052" fill="none" stroke-width="1.224" cx="69.3" stroke="#F7BD13"/>
   <circle  connectorname="RXD" cy="33.3" id="connector51pad" r="2.052" fill="none" stroke-width="1.224" cx="69.3" stroke="#F7BD13"/>
   <circle  connectorname="IO21" cy="40.5" id="connector52pad" r="2.052" fill="none" stroke-width="1.224" cx="69.3" stroke="#F7BD13"/>
   <circle  connectorname="GND" cy="47.7" id="connector53pad" r="2.052" fill="none" stroke-width="1.224" cx="69.3" stroke="#F7BD13"/>
   <circle  connectorname="IO19" cy="54.9" id="connector54pad" r="2.052" fill="none" stroke-width="1.224" cx="69.3" stroke="#F7BD13"/>
   <circle  connectorname="IO18" cy="62.1" id="connector55pad" r="2.052" fill="none" stroke-width="1.224" cx="69.3" stroke="#F7BD13"/>
   <circle  connectorname="IO5" cy="69.3" id="connector56pad" r="2.052" fill="none" stroke-width="1.224" cx="69.3" stroke="#F7BD13"/>
   <circle  connectorname="IO17" cy="76.5" id="connector57pad" r="2.052" fill="none" stroke-width="1.224" cx="69.3" stroke="#F7BD13"/>
   <circle  connectorname="IO16" cy="83.7" id="connector58pad" r="2.052" fill="none" stroke-width="1.224" cx="69.3" stroke="#F7BD13"/>
   <circle  connectorname="IO4" cy="90.9" id="connector59pad" r="2.052" fill="none" stroke-width="1.224" cx="69.3" stroke="#F7BD13"/>
   <circle  connectorname="IO0" cy="98.1" id="connector60pad" r="2.052" fill="none" stroke-width="1.224" cx="69.3" stroke="#F7BD13"/>
   <circle  connectorname="IO2" cy="105.3" id="connector61pad" r="2.052" fill="none" stroke-width="1.224" cx="69.3" stroke="#F7BD13"/>
   <circle  connectorname="IO15" cy="112.5" id="connector62pad" r="2.052" fill="none" stroke-width="1.224" cx="69.3" stroke="#F7BD13"/>
   <circle  connectorname="IO8" cy="119.7" id="connector63pad" r="2.052" fill="none" stroke-width="1.224" cx="69.3" stroke="#F7BD13"/>
   <circle  connectorname="IO7" cy="126.9" id="connector64pad" r="2.052" fill="none" stroke-width="1.224" cx="69.3" stroke="#F7BD13"/>
   <circle  connectorname="IO6" cy="134.1" id="connector65pad" r="2.052" fill="none" stroke-width="1.224" cx="69.3" stroke="#F7BD13"/>
   <circle  connectorname="V_BATT" cy="130.5" id="connector66pad" r="2.124" fill="none" stroke-width="1.08" cx="50.4" stroke="#F7BD13"/>
   <path  fill="#F7BD13" stroke-width="0" d="m48.276,125.615,4.248,0,0,9.7704,-4.248,0,0,-9.7704M48.276,130.5a2.124,2.124,0,1,0,4.248,0,2.124,2.124,0,1,0,-4.248,0z" stroke="none"/>
   <circle  connectorname="GND" cy="130.5" id="connector67pad" r="2.124" fill="none" stroke-width="1.08" cx="57.6" stroke="#F7BD13"/>
   <path  fill="#F7BD13" stroke-width="0" d="m55.476,125.615,4.248,0,0,9.7704,-4.248,0,0,-9.7704M55.476,130.5a2.124,2.124,0,1,0,4.248,0,2.124,2.124,0,1,0,-4.248,0z" stroke="none"/>
  </g>
 </g>
</svg>
