<?xml version='1.0' encoding='UTF-8' standalone='no'?>
<!-- Created with Fritzing (http://www.fritzing.org/) -->
<svg xmlns="http://www.w3.org/2000/svg"  x="0in" y="0in" baseProfile="tiny" viewBox="0 0 73.8 123.75" width="1.025in" height="1.71875in" version="1.2">
 <desc >Fritzing footprint generated by brd2svg</desc>
 <g  id="silkscreen">
  <path  stroke-width="0.576" fill="none" d="M70.8331,0.288A2.412,2.412,0,0,1,73.512,2.97544L73.512,116.744A2.412,2.412,0,0,1,70.8331,119.431L2.96693,119.431A2.412,2.412,0,0,1,0.288,116.744L0.288,2.97544A2.412,2.412,0,0,1,2.96693,0.288L70.8331,0.288M2.05257,7.2a4.24743,4.24743,0,1,0,8.49485,0,4.24743,4.24743,0,1,0,-8.49485,0zM63.2526,7.2a4.24743,4.24743,0,1,0,8.49485,0,4.24743,4.24743,0,1,0,-8.49485,0z" stroke="white"/>
  <line  stroke-width="0.72" x2="45.9" x1="45.9" y1="97.2" stroke-linecap="round" y2="118.8" stroke="white"/>
  <line  stroke-width="0.72" x2="53.1" x1="45.9" y1="118.8" stroke-linecap="round" y2="118.8" stroke="white"/>
  <line  stroke-width="0.72" x2="54.9" x1="53.1" y1="118.8" stroke-linecap="round" y2="118.8" stroke="white"/>
  <line  stroke-width="0.72" x2="62.1" x1="54.9" y1="118.8" stroke-linecap="round" y2="118.8" stroke="white"/>
  <line  stroke-width="0.72" x2="62.1" x1="62.1" y1="118.8" stroke-linecap="round" y2="97.2" stroke="white"/>
  <line  stroke-width="0.72" x2="53.1" x1="53.1" y1="118.8" stroke-linecap="round" y2="110.7" stroke="white"/>
  <line  stroke-width="0.72" x2="54.9" x1="53.1" y1="110.7" stroke-linecap="round" y2="110.7" stroke="white"/>
  <line  stroke-width="0.72" x2="54.9" x1="54.9" y1="110.7" stroke-linecap="round" y2="118.8" stroke="white"/>
  <rect  x="11.7" y="32.85" stroke-width="0" fill="white" width="1.8" height="5.4" stroke="none"/>
  <rect  x="33.3" y="10.8" stroke-width="0" fill="white" width="5.4" height="1.8" stroke="none"/>
  <g >
   <title >element:CN1</title>
   <g >
    <title >package:JST-PH-2-THM-RA</title>
    <line  stroke-width="0.36" x2="60.2362" x1="60.2362" y1="96.8314" stroke-linecap="round" y2="99.9497" stroke="white"/>
    <line  stroke-width="0.36" x2="48.0473" x1="60.2362" y1="99.9497" stroke-linecap="round" y2="99.9497" stroke="white"/>
    <line  stroke-width="0.36" x2="48.0473" x1="48.0473" y1="99.9497" stroke-linecap="round" y2="96.8314" stroke="white"/>
    <line  stroke-width="0.36" x2="47.7638" x1="48.0473" y1="96.8314" stroke-linecap="round" y2="96.8314" stroke="white"/>
    <line  stroke-width="0.36" x2="54.8504" x1="54.8504" y1="118.658" stroke-linecap="round" y2="110.438" stroke="white"/>
    <line  stroke-width="0.36" x2="53.1496" x1="54.8504" y1="110.438" stroke-linecap="round" y2="110.438" stroke="white"/>
    <line  stroke-width="0.36" x2="53.1496" x1="53.1496" y1="110.438" stroke-linecap="round" y2="118.658" stroke="white"/>
   </g>
  </g>
  <g >
   <title >element:J1</title>
   <g >
    <title >package:1X13</title>
    <line  stroke-width="0.576" x2="8.1" x1="8.1" y1="70.2" stroke-linecap="round" y2="73.8" stroke="white"/>
    <line  stroke-width="0.576" x2="6.3" x1="8.1" y1="73.8" stroke-linecap="round" y2="75.6" stroke="white"/>
    <line  stroke-width="0.576" x2="0.9" x1="2.7" y1="75.6" stroke-linecap="round" y2="73.8" stroke="white"/>
    <line  stroke-width="0.576" x2="8.1" x1="6.3" y1="61.2" stroke-linecap="round" y2="63" stroke="white"/>
    <line  stroke-width="0.576" x2="8.1" x1="8.1" y1="63" stroke-linecap="round" y2="66.6" stroke="white"/>
    <line  stroke-width="0.576" x2="6.3" x1="8.1" y1="66.6" stroke-linecap="round" y2="68.4" stroke="white"/>
    <line  stroke-width="0.576" x2="0.9" x1="2.7" y1="68.4" stroke-linecap="round" y2="66.6" stroke="white"/>
    <line  stroke-width="0.576" x2="0.9" x1="0.9" y1="66.6" stroke-linecap="round" y2="63" stroke="white"/>
    <line  stroke-width="0.576" x2="2.7" x1="0.9" y1="63" stroke-linecap="round" y2="61.2" stroke="white"/>
    <line  stroke-width="0.576" x2="6.3" x1="8.1" y1="70.2" stroke-linecap="round" y2="68.4" stroke="white"/>
    <line  stroke-width="0.576" x2="0.9" x1="2.7" y1="68.4" stroke-linecap="round" y2="70.2" stroke="white"/>
    <line  stroke-width="0.576" x2="0.9" x1="0.9" y1="73.8" stroke-linecap="round" y2="70.2" stroke="white"/>
    <line  stroke-width="0.576" x2="8.1" x1="8.1" y1="48.6" stroke-linecap="round" y2="52.2" stroke="white"/>
    <line  stroke-width="0.576" x2="6.3" x1="8.1" y1="52.2" stroke-linecap="round" y2="54" stroke="white"/>
    <line  stroke-width="0.576" x2="0.9" x1="2.7" y1="54" stroke-linecap="round" y2="52.2" stroke="white"/>
    <line  stroke-width="0.576" x2="8.1" x1="6.3" y1="54" stroke-linecap="round" y2="55.8" stroke="white"/>
    <line  stroke-width="0.576" x2="8.1" x1="8.1" y1="55.8" stroke-linecap="round" y2="59.4" stroke="white"/>
    <line  stroke-width="0.576" x2="6.3" x1="8.1" y1="59.4" stroke-linecap="round" y2="61.2" stroke="white"/>
    <line  stroke-width="0.576" x2="0.9" x1="2.7" y1="61.2" stroke-linecap="round" y2="59.4" stroke="white"/>
    <line  stroke-width="0.576" x2="0.9" x1="0.9" y1="59.4" stroke-linecap="round" y2="55.8" stroke="white"/>
    <line  stroke-width="0.576" x2="2.7" x1="0.9" y1="55.8" stroke-linecap="round" y2="54" stroke="white"/>
    <line  stroke-width="0.576" x2="8.1" x1="6.3" y1="39.6" stroke-linecap="round" y2="41.4" stroke="white"/>
    <line  stroke-width="0.576" x2="8.1" x1="8.1" y1="41.4" stroke-linecap="round" y2="45" stroke="white"/>
    <line  stroke-width="0.576" x2="6.3" x1="8.1" y1="45" stroke-linecap="round" y2="46.8" stroke="white"/>
    <line  stroke-width="0.576" x2="0.9" x1="2.7" y1="46.8" stroke-linecap="round" y2="45" stroke="white"/>
    <line  stroke-width="0.576" x2="0.9" x1="0.9" y1="45" stroke-linecap="round" y2="41.4" stroke="white"/>
    <line  stroke-width="0.576" x2="2.7" x1="0.9" y1="41.4" stroke-linecap="round" y2="39.6" stroke="white"/>
    <line  stroke-width="0.576" x2="6.3" x1="8.1" y1="48.6" stroke-linecap="round" y2="46.8" stroke="white"/>
    <line  stroke-width="0.576" x2="0.9" x1="2.7" y1="46.8" stroke-linecap="round" y2="48.6" stroke="white"/>
    <line  stroke-width="0.576" x2="0.9" x1="0.9" y1="52.2" stroke-linecap="round" y2="48.6" stroke="white"/>
    <line  stroke-width="0.576" x2="8.1" x1="8.1" y1="27" stroke-linecap="round" y2="30.6" stroke="white"/>
    <line  stroke-width="0.576" x2="6.3" x1="8.1" y1="30.6" stroke-linecap="round" y2="32.4" stroke="white"/>
    <line  stroke-width="0.576" x2="0.9" x1="2.7" y1="32.4" stroke-linecap="round" y2="30.6" stroke="white"/>
    <line  stroke-width="0.576" x2="8.1" x1="6.3" y1="32.4" stroke-linecap="round" y2="34.2" stroke="white"/>
    <line  stroke-width="0.576" x2="8.1" x1="8.1" y1="34.2" stroke-linecap="round" y2="37.8" stroke="white"/>
    <line  stroke-width="0.576" x2="6.3" x1="8.1" y1="37.8" stroke-linecap="round" y2="39.6" stroke="white"/>
    <line  stroke-width="0.576" x2="0.9" x1="2.7" y1="39.6" stroke-linecap="round" y2="37.8" stroke="white"/>
    <line  stroke-width="0.576" x2="0.9" x1="0.9" y1="37.8" stroke-linecap="round" y2="34.2" stroke="white"/>
    <line  stroke-width="0.576" x2="2.7" x1="0.9" y1="34.2" stroke-linecap="round" y2="32.4" stroke="white"/>
    <line  stroke-width="0.576" x2="2.7" x1="6.3" y1="25.2" stroke-linecap="round" y2="25.2" stroke="white"/>
    <line  stroke-width="0.576" x2="6.3" x1="8.1" y1="27" stroke-linecap="round" y2="25.2" stroke="white"/>
    <line  stroke-width="0.576" x2="0.9" x1="2.7" y1="25.2" stroke-linecap="round" y2="27" stroke="white"/>
    <line  stroke-width="0.576" x2="0.9" x1="0.9" y1="30.6" stroke-linecap="round" y2="27" stroke="white"/>
    <line  stroke-width="0.576" x2="8.1" x1="6.3" y1="111.6" stroke-linecap="round" y2="113.4" stroke="white"/>
    <line  stroke-width="0.576" x2="8.1" x1="8.1" y1="113.4" stroke-linecap="round" y2="117" stroke="white"/>
    <line  stroke-width="0.576" x2="6.3" x1="8.1" y1="117" stroke-linecap="round" y2="118.8" stroke="white"/>
    <line  stroke-width="0.576" x2="0.9" x1="2.7" y1="118.8" stroke-linecap="round" y2="117" stroke="white"/>
    <line  stroke-width="0.576" x2="0.9" x1="0.9" y1="117" stroke-linecap="round" y2="113.4" stroke="white"/>
    <line  stroke-width="0.576" x2="2.7" x1="0.9" y1="113.4" stroke-linecap="round" y2="111.6" stroke="white"/>
    <line  stroke-width="0.576" x2="6.3" x1="2.7" y1="118.8" stroke-linecap="round" y2="118.8" stroke="white"/>
    <line  stroke-width="0.576" x2="8.1" x1="8.1" y1="99" stroke-linecap="round" y2="102.6" stroke="white"/>
    <line  stroke-width="0.576" x2="6.3" x1="8.1" y1="102.6" stroke-linecap="round" y2="104.4" stroke="white"/>
    <line  stroke-width="0.576" x2="0.9" x1="2.7" y1="104.4" stroke-linecap="round" y2="102.6" stroke="white"/>
    <line  stroke-width="0.576" x2="8.1" x1="6.3" y1="104.4" stroke-linecap="round" y2="106.2" stroke="white"/>
    <line  stroke-width="0.576" x2="8.1" x1="8.1" y1="106.2" stroke-linecap="round" y2="109.8" stroke="white"/>
    <line  stroke-width="0.576" x2="6.3" x1="8.1" y1="109.8" stroke-linecap="round" y2="111.6" stroke="white"/>
    <line  stroke-width="0.576" x2="0.9" x1="2.7" y1="111.6" stroke-linecap="round" y2="109.8" stroke="white"/>
    <line  stroke-width="0.576" x2="0.9" x1="0.9" y1="109.8" stroke-linecap="round" y2="106.2" stroke="white"/>
    <line  stroke-width="0.576" x2="2.7" x1="0.9" y1="106.2" stroke-linecap="round" y2="104.4" stroke="white"/>
    <line  stroke-width="0.576" x2="8.1" x1="6.3" y1="90" stroke-linecap="round" y2="91.8" stroke="white"/>
    <line  stroke-width="0.576" x2="8.1" x1="8.1" y1="91.8" stroke-linecap="round" y2="95.4" stroke="white"/>
    <line  stroke-width="0.576" x2="6.3" x1="8.1" y1="95.4" stroke-linecap="round" y2="97.2" stroke="white"/>
    <line  stroke-width="0.576" x2="0.9" x1="2.7" y1="97.2" stroke-linecap="round" y2="95.4" stroke="white"/>
    <line  stroke-width="0.576" x2="0.9" x1="0.9" y1="95.4" stroke-linecap="round" y2="91.8" stroke="white"/>
    <line  stroke-width="0.576" x2="2.7" x1="0.9" y1="91.8" stroke-linecap="round" y2="90" stroke="white"/>
    <line  stroke-width="0.576" x2="6.3" x1="8.1" y1="99" stroke-linecap="round" y2="97.2" stroke="white"/>
    <line  stroke-width="0.576" x2="0.9" x1="2.7" y1="97.2" stroke-linecap="round" y2="99" stroke="white"/>
    <line  stroke-width="0.576" x2="0.9" x1="0.9" y1="102.6" stroke-linecap="round" y2="99" stroke="white"/>
    <line  stroke-width="0.576" x2="8.1" x1="8.1" y1="77.4" stroke-linecap="round" y2="81" stroke="white"/>
    <line  stroke-width="0.576" x2="6.3" x1="8.1" y1="81" stroke-linecap="round" y2="82.8" stroke="white"/>
    <line  stroke-width="0.576" x2="0.9" x1="2.7" y1="82.8" stroke-linecap="round" y2="81" stroke="white"/>
    <line  stroke-width="0.576" x2="8.1" x1="6.3" y1="82.8" stroke-linecap="round" y2="84.6" stroke="white"/>
    <line  stroke-width="0.576" x2="8.1" x1="8.1" y1="84.6" stroke-linecap="round" y2="88.2" stroke="white"/>
    <line  stroke-width="0.576" x2="6.3" x1="8.1" y1="88.2" stroke-linecap="round" y2="90" stroke="white"/>
    <line  stroke-width="0.576" x2="0.9" x1="2.7" y1="90" stroke-linecap="round" y2="88.2" stroke="white"/>
    <line  stroke-width="0.576" x2="0.9" x1="0.9" y1="88.2" stroke-linecap="round" y2="84.6" stroke="white"/>
    <line  stroke-width="0.576" x2="2.7" x1="0.9" y1="84.6" stroke-linecap="round" y2="82.8" stroke="white"/>
    <line  stroke-width="0.576" x2="6.3" x1="8.1" y1="77.4" stroke-linecap="round" y2="75.6" stroke="white"/>
    <line  stroke-width="0.576" x2="0.9" x1="2.7" y1="75.6" stroke-linecap="round" y2="77.4" stroke="white"/>
    <line  stroke-width="0.576" x2="0.9" x1="0.9" y1="81" stroke-linecap="round" y2="77.4" stroke="white"/>
   </g>
  </g>
  <g >
   <title >element:J2</title>
   <g >
    <title >package:1X13</title>
    <line  stroke-width="0.576" x2="72.9" x1="72.9" y1="70.2" stroke-linecap="round" y2="73.8" stroke="white"/>
    <line  stroke-width="0.576" x2="71.1" x1="72.9" y1="73.8" stroke-linecap="round" y2="75.6" stroke="white"/>
    <line  stroke-width="0.576" x2="65.7" x1="67.5" y1="75.6" stroke-linecap="round" y2="73.8" stroke="white"/>
    <line  stroke-width="0.576" x2="72.9" x1="71.1" y1="61.2" stroke-linecap="round" y2="63" stroke="white"/>
    <line  stroke-width="0.576" x2="72.9" x1="72.9" y1="63" stroke-linecap="round" y2="66.6" stroke="white"/>
    <line  stroke-width="0.576" x2="71.1" x1="72.9" y1="66.6" stroke-linecap="round" y2="68.4" stroke="white"/>
    <line  stroke-width="0.576" x2="65.7" x1="67.5" y1="68.4" stroke-linecap="round" y2="66.6" stroke="white"/>
    <line  stroke-width="0.576" x2="65.7" x1="65.7" y1="66.6" stroke-linecap="round" y2="63" stroke="white"/>
    <line  stroke-width="0.576" x2="67.5" x1="65.7" y1="63" stroke-linecap="round" y2="61.2" stroke="white"/>
    <line  stroke-width="0.576" x2="71.1" x1="72.9" y1="70.2" stroke-linecap="round" y2="68.4" stroke="white"/>
    <line  stroke-width="0.576" x2="65.7" x1="67.5" y1="68.4" stroke-linecap="round" y2="70.2" stroke="white"/>
    <line  stroke-width="0.576" x2="65.7" x1="65.7" y1="73.8" stroke-linecap="round" y2="70.2" stroke="white"/>
    <line  stroke-width="0.576" x2="72.9" x1="72.9" y1="48.6" stroke-linecap="round" y2="52.2" stroke="white"/>
    <line  stroke-width="0.576" x2="71.1" x1="72.9" y1="52.2" stroke-linecap="round" y2="54" stroke="white"/>
    <line  stroke-width="0.576" x2="65.7" x1="67.5" y1="54" stroke-linecap="round" y2="52.2" stroke="white"/>
    <line  stroke-width="0.576" x2="72.9" x1="71.1" y1="54" stroke-linecap="round" y2="55.8" stroke="white"/>
    <line  stroke-width="0.576" x2="72.9" x1="72.9" y1="55.8" stroke-linecap="round" y2="59.4" stroke="white"/>
    <line  stroke-width="0.576" x2="71.1" x1="72.9" y1="59.4" stroke-linecap="round" y2="61.2" stroke="white"/>
    <line  stroke-width="0.576" x2="65.7" x1="67.5" y1="61.2" stroke-linecap="round" y2="59.4" stroke="white"/>
    <line  stroke-width="0.576" x2="65.7" x1="65.7" y1="59.4" stroke-linecap="round" y2="55.8" stroke="white"/>
    <line  stroke-width="0.576" x2="67.5" x1="65.7" y1="55.8" stroke-linecap="round" y2="54" stroke="white"/>
    <line  stroke-width="0.576" x2="72.9" x1="71.1" y1="39.6" stroke-linecap="round" y2="41.4" stroke="white"/>
    <line  stroke-width="0.576" x2="72.9" x1="72.9" y1="41.4" stroke-linecap="round" y2="45" stroke="white"/>
    <line  stroke-width="0.576" x2="71.1" x1="72.9" y1="45" stroke-linecap="round" y2="46.8" stroke="white"/>
    <line  stroke-width="0.576" x2="65.7" x1="67.5" y1="46.8" stroke-linecap="round" y2="45" stroke="white"/>
    <line  stroke-width="0.576" x2="65.7" x1="65.7" y1="45" stroke-linecap="round" y2="41.4" stroke="white"/>
    <line  stroke-width="0.576" x2="67.5" x1="65.7" y1="41.4" stroke-linecap="round" y2="39.6" stroke="white"/>
    <line  stroke-width="0.576" x2="71.1" x1="72.9" y1="48.6" stroke-linecap="round" y2="46.8" stroke="white"/>
    <line  stroke-width="0.576" x2="65.7" x1="67.5" y1="46.8" stroke-linecap="round" y2="48.6" stroke="white"/>
    <line  stroke-width="0.576" x2="65.7" x1="65.7" y1="52.2" stroke-linecap="round" y2="48.6" stroke="white"/>
    <line  stroke-width="0.576" x2="72.9" x1="72.9" y1="27" stroke-linecap="round" y2="30.6" stroke="white"/>
    <line  stroke-width="0.576" x2="71.1" x1="72.9" y1="30.6" stroke-linecap="round" y2="32.4" stroke="white"/>
    <line  stroke-width="0.576" x2="65.7" x1="67.5" y1="32.4" stroke-linecap="round" y2="30.6" stroke="white"/>
    <line  stroke-width="0.576" x2="72.9" x1="71.1" y1="32.4" stroke-linecap="round" y2="34.2" stroke="white"/>
    <line  stroke-width="0.576" x2="72.9" x1="72.9" y1="34.2" stroke-linecap="round" y2="37.8" stroke="white"/>
    <line  stroke-width="0.576" x2="71.1" x1="72.9" y1="37.8" stroke-linecap="round" y2="39.6" stroke="white"/>
    <line  stroke-width="0.576" x2="65.7" x1="67.5" y1="39.6" stroke-linecap="round" y2="37.8" stroke="white"/>
    <line  stroke-width="0.576" x2="65.7" x1="65.7" y1="37.8" stroke-linecap="round" y2="34.2" stroke="white"/>
    <line  stroke-width="0.576" x2="67.5" x1="65.7" y1="34.2" stroke-linecap="round" y2="32.4" stroke="white"/>
    <line  stroke-width="0.576" x2="67.5" x1="71.1" y1="25.2" stroke-linecap="round" y2="25.2" stroke="white"/>
    <line  stroke-width="0.576" x2="71.1" x1="72.9" y1="27" stroke-linecap="round" y2="25.2" stroke="white"/>
    <line  stroke-width="0.576" x2="65.7" x1="67.5" y1="25.2" stroke-linecap="round" y2="27" stroke="white"/>
    <line  stroke-width="0.576" x2="65.7" x1="65.7" y1="30.6" stroke-linecap="round" y2="27" stroke="white"/>
    <line  stroke-width="0.576" x2="72.9" x1="71.1" y1="111.6" stroke-linecap="round" y2="113.4" stroke="white"/>
    <line  stroke-width="0.576" x2="72.9" x1="72.9" y1="113.4" stroke-linecap="round" y2="117" stroke="white"/>
    <line  stroke-width="0.576" x2="71.1" x1="72.9" y1="117" stroke-linecap="round" y2="118.8" stroke="white"/>
    <line  stroke-width="0.576" x2="65.7" x1="67.5" y1="118.8" stroke-linecap="round" y2="117" stroke="white"/>
    <line  stroke-width="0.576" x2="65.7" x1="65.7" y1="117" stroke-linecap="round" y2="113.4" stroke="white"/>
    <line  stroke-width="0.576" x2="67.5" x1="65.7" y1="113.4" stroke-linecap="round" y2="111.6" stroke="white"/>
    <line  stroke-width="0.576" x2="71.1" x1="67.5" y1="118.8" stroke-linecap="round" y2="118.8" stroke="white"/>
    <line  stroke-width="0.576" x2="72.9" x1="72.9" y1="99" stroke-linecap="round" y2="102.6" stroke="white"/>
    <line  stroke-width="0.576" x2="71.1" x1="72.9" y1="102.6" stroke-linecap="round" y2="104.4" stroke="white"/>
    <line  stroke-width="0.576" x2="65.7" x1="67.5" y1="104.4" stroke-linecap="round" y2="102.6" stroke="white"/>
    <line  stroke-width="0.576" x2="72.9" x1="71.1" y1="104.4" stroke-linecap="round" y2="106.2" stroke="white"/>
    <line  stroke-width="0.576" x2="72.9" x1="72.9" y1="106.2" stroke-linecap="round" y2="109.8" stroke="white"/>
    <line  stroke-width="0.576" x2="71.1" x1="72.9" y1="109.8" stroke-linecap="round" y2="111.6" stroke="white"/>
    <line  stroke-width="0.576" x2="65.7" x1="67.5" y1="111.6" stroke-linecap="round" y2="109.8" stroke="white"/>
    <line  stroke-width="0.576" x2="65.7" x1="65.7" y1="109.8" stroke-linecap="round" y2="106.2" stroke="white"/>
    <line  stroke-width="0.576" x2="67.5" x1="65.7" y1="106.2" stroke-linecap="round" y2="104.4" stroke="white"/>
    <line  stroke-width="0.576" x2="72.9" x1="71.1" y1="90" stroke-linecap="round" y2="91.8" stroke="white"/>
    <line  stroke-width="0.576" x2="72.9" x1="72.9" y1="91.8" stroke-linecap="round" y2="95.4" stroke="white"/>
    <line  stroke-width="0.576" x2="71.1" x1="72.9" y1="95.4" stroke-linecap="round" y2="97.2" stroke="white"/>
    <line  stroke-width="0.576" x2="65.7" x1="67.5" y1="97.2" stroke-linecap="round" y2="95.4" stroke="white"/>
    <line  stroke-width="0.576" x2="65.7" x1="65.7" y1="95.4" stroke-linecap="round" y2="91.8" stroke="white"/>
    <line  stroke-width="0.576" x2="67.5" x1="65.7" y1="91.8" stroke-linecap="round" y2="90" stroke="white"/>
    <line  stroke-width="0.576" x2="71.1" x1="72.9" y1="99" stroke-linecap="round" y2="97.2" stroke="white"/>
    <line  stroke-width="0.576" x2="65.7" x1="67.5" y1="97.2" stroke-linecap="round" y2="99" stroke="white"/>
    <line  stroke-width="0.576" x2="65.7" x1="65.7" y1="102.6" stroke-linecap="round" y2="99" stroke="white"/>
    <line  stroke-width="0.576" x2="72.9" x1="72.9" y1="77.4" stroke-linecap="round" y2="81" stroke="white"/>
    <line  stroke-width="0.576" x2="71.1" x1="72.9" y1="81" stroke-linecap="round" y2="82.8" stroke="white"/>
    <line  stroke-width="0.576" x2="65.7" x1="67.5" y1="82.8" stroke-linecap="round" y2="81" stroke="white"/>
    <line  stroke-width="0.576" x2="72.9" x1="71.1" y1="82.8" stroke-linecap="round" y2="84.6" stroke="white"/>
    <line  stroke-width="0.576" x2="72.9" x1="72.9" y1="84.6" stroke-linecap="round" y2="88.2" stroke="white"/>
    <line  stroke-width="0.576" x2="71.1" x1="72.9" y1="88.2" stroke-linecap="round" y2="90" stroke="white"/>
    <line  stroke-width="0.576" x2="65.7" x1="67.5" y1="90" stroke-linecap="round" y2="88.2" stroke="white"/>
    <line  stroke-width="0.576" x2="65.7" x1="65.7" y1="88.2" stroke-linecap="round" y2="84.6" stroke="white"/>
    <line  stroke-width="0.576" x2="67.5" x1="65.7" y1="84.6" stroke-linecap="round" y2="82.8" stroke="white"/>
    <line  stroke-width="0.576" x2="71.1" x1="72.9" y1="77.4" stroke-linecap="round" y2="75.6" stroke="white"/>
    <line  stroke-width="0.576" x2="65.7" x1="67.5" y1="75.6" stroke-linecap="round" y2="77.4" stroke="white"/>
    <line  stroke-width="0.576" x2="65.7" x1="65.7" y1="81" stroke-linecap="round" y2="77.4" stroke="white"/>
   </g>
  </g>
  <g >
   <title >element:U2</title>
   <g >
    <title >package:SSOP20_L</title>
    <line  stroke-width="0.576" x2="27.144" x1="16.056" y1="94.176" stroke-linecap="round" y2="94.176" stroke="white"/>
    <line  stroke-width="0.576" x2="16.056" x1="27.144" y1="69.624" stroke-linecap="round" y2="69.624" stroke="white"/>
    <line  stroke-width="0.576" x2="16.056" x1="16.056" y1="69.624" stroke-linecap="round" y2="72.684" stroke="white"/>
    <line  stroke-width="0.576" x2="16.056" x1="16.056" y1="91.116" stroke-linecap="round" y2="94.176" stroke="white"/>
    <line  stroke-width="0.576" x2="27.144" x1="27.144" y1="69.624" stroke-linecap="round" y2="72.684" stroke="white"/>
    <line  stroke-width="0.576" x2="27.144" x1="27.144" y1="91.116" stroke-linecap="round" y2="94.176" stroke="white"/>
    <circle  r="0.72" cx="14.4" stroke-width="0" cy="71.1" fill="none" stroke="white"/>
   </g>
  </g>
  <g >
   <title >element:U6</title>
   <g >
    <title >package:SO08</title>
    <line  stroke-width="0.576" x2="14.04" x1="29.16" y1="29.7" stroke-linecap="round" y2="29.7" stroke="white"/>
    <line  stroke-width="0.576" x2="14.04" x1="14.04" y1="29.7" stroke-linecap="round" y2="22.5" stroke="white"/>
    <line  stroke-width="0.576" x2="29.16" x1="14.04" y1="22.5" stroke-linecap="round" y2="22.5" stroke="white"/>
    <line  stroke-width="0.576" x2="29.16" x1="29.16" y1="22.5" stroke-linecap="round" y2="29.7" stroke="white"/>
    <circle  r="0.9" cx="27" stroke-width="0" cy="24.3" fill="none" stroke="white"/>
   </g>
  </g>
  <g >
   <title >element:USB1</title>
   <g >
    <title >package:MICRO-USB5+6P-SMD-0.65-B</title>
    <line  stroke-width="0.36" x2="11.6114" x1="12.0118" y1="118.123" stroke-linecap="round" y2="119.374" stroke="white"/>
    <line  stroke-width="0.36" x2="33.3886" x1="32.9882" y1="118.123" stroke-linecap="round" y2="119.374" stroke="white"/>
    <line  stroke-width="0.36" x2="32.9882" x1="12.0118" y1="118.407" stroke-linecap="round" y2="118.407" stroke="white"/>
    <line  stroke-width="0.36" x2="32.4708" x1="12.6957" y1="119.091" stroke-linecap="round" y2="119.091" stroke="white"/>
    <line  stroke-width="0.36" x2="11.6114" x1="12.6957" y1="119.091" stroke-linecap="round" y2="119.374" stroke="white"/>
    <line  stroke-width="0.36" x2="33.3886" x1="32.4708" y1="119.091" stroke-linecap="round" y2="119.374" stroke="white"/>
    <line  stroke-width="0.36" x2="15.4134" x1="17.9646" y1="107.55" stroke-linecap="round" y2="107.55" stroke="white"/>
    <line  stroke-width="0.36" x2="29.3031" x1="27.0354" y1="107.55" stroke-linecap="round" y2="107.55" stroke="white"/>
    <line  stroke-width="0.36" x2="32.9882" x1="32.9882" y1="111.235" stroke-linecap="round" y2="112.369" stroke="white"/>
    <line  stroke-width="0.36" x2="32.9882" x1="32.9882" y1="118.407" stroke-linecap="round" y2="118.123" stroke="white"/>
    <line  stroke-width="0.36" x2="12.0118" x1="12.0118" y1="118.123" stroke-linecap="round" y2="118.407" stroke="white"/>
    <line  stroke-width="0.36" x2="12.0118" x1="12.0118" y1="112.085" stroke-linecap="round" y2="111.235" stroke="white"/>
   </g>
  </g>
  <g >
   <title >element:Z2</title>
   <g >
    <title >package:ELEPHANT</title>
   </g>
  </g>
  <line  stroke-width="0.576" x2="33.3886" x1="11.6114" y1="123.462" fill-opacity="1" fill="none" y2="123.462" stroke="white"/>
  <line  stroke-width="0.576" x2="11.6114" x1="11.6114" y1="123.462" fill-opacity="1" fill="none" y2="119.7" stroke="white"/>
  <line  stroke-width="0.576" x2="33.3886" x1="33.3886" y1="123.462" fill-opacity="1" fill="none" y2="119.7" stroke="white"/>
 </g>
 <g  id="copper1">
  <g  id="copper0">
   <circle  r="1.57493" cx="51.1654" stroke-width="0.882144" cy="100.8" id="connector36pad" connectorname="V_BATT" fill="none" stroke="#F7BD13"/>
   <circle  r="1.57493" cx="56.8346" stroke-width="0.882144" cy="100.8" id="connector37pad" connectorname="GND" fill="none" stroke="#F7BD13"/>
   <circle  r="2.052" cx="4.5" stroke-width="1.224" cy="28.8" id="connector44pad" connectorname="3.3V" fill="none" stroke="#F7BD13"/>
   <rect  x="2.448" y="26.748" stroke-width="1.224" fill="none" width="4.104" height="4.104" stroke="#F7BD13"/>
   <circle  r="2.052" cx="4.5" stroke-width="1.224" cy="36" id="connector45pad" connectorname="RESET" fill="none" stroke="#F7BD13"/>
   <circle  r="2.052" cx="4.5" stroke-width="1.224" cy="43.2" id="connector46pad" connectorname="A0" fill="none" stroke="#F7BD13"/>
   <circle  r="2.052" cx="4.5" stroke-width="1.224" cy="50.4" id="connector47pad" connectorname="EN" fill="none" stroke="#F7BD13"/>
   <circle  r="2.052" cx="4.5" stroke-width="1.224" cy="57.6" id="connector48pad" connectorname="3.3V" fill="none" stroke="#F7BD13"/>
   <circle  r="2.052" cx="4.5" stroke-width="1.224" cy="64.8" id="connector49pad" connectorname="IO14" fill="none" stroke="#F7BD13"/>
   <circle  r="1.08" cx="13.1457" stroke-width="0.72" cy="115.132" id="connector199pad" connectorname="GND" fill="none" stroke="#F7BD13"/>
   <path  stroke-width="0" fill="#F7BD13" d="m12.0657,112.648,2.16,0,0,4.968,-2.16,0,0,-4.968M12.0657,115.132a1.08,1.08,0,1,0,2.16,0,1.08,1.08,0,1,0,-2.16,0z" stroke="none"/>
   <circle  r="2.052" cx="4.5" stroke-width="1.224" cy="72" id="connector50pad" connectorname="IO12" fill="none" stroke="#F7BD13"/>
   <circle  r="2.052" cx="4.5" stroke-width="1.224" cy="79.2" id="connector51pad" connectorname="V_BATT" fill="none" stroke="#F7BD13"/>
   <circle  r="2.052" cx="4.5" stroke-width="1.224" cy="86.4" id="connector52pad" connectorname="IO13" fill="none" stroke="#F7BD13"/>
   <circle  r="2.052" cx="4.5" stroke-width="1.224" cy="93.6" id="connector53pad" connectorname="IO9" fill="none" stroke="#F7BD13"/>
   <circle  r="2.052" cx="4.5" stroke-width="1.224" cy="100.8" id="connector54pad" connectorname="IO10" fill="none" stroke="#F7BD13"/>
   <circle  r="2.052" cx="4.5" stroke-width="1.224" cy="108" id="connector55pad" connectorname="IO11" fill="none" stroke="#F7BD13"/>
   <circle  r="2.052" cx="4.5" stroke-width="1.224" cy="115.2" id="connector56pad" connectorname="VIN" fill="none" stroke="#F7BD13"/>
   <circle  r="2.052" cx="69.3" stroke-width="1.224" cy="28.8" id="connector57pad" connectorname="GND" fill="none" stroke="#F7BD13"/>
   <circle  r="2.052" cx="69.3" stroke-width="1.224" cy="36" id="connector58pad" connectorname="TXD" fill="none" stroke="#F7BD13"/>
   <circle  r="2.052" cx="69.3" stroke-width="1.224" cy="43.2" id="connector59pad" connectorname="RXD" fill="none" stroke="#F7BD13"/>
   <circle  r="2.052" cx="69.3" stroke-width="1.224" cy="50.4" id="connector60pad" connectorname="IO5" fill="none" stroke="#F7BD13"/>
   <circle  r="2.052" cx="69.3" stroke-width="1.224" cy="57.6" id="connector61pad" connectorname="GND" fill="none" stroke="#F7BD13"/>
   <circle  r="2.052" cx="69.3" stroke-width="1.224" cy="64.8" id="connector62pad" connectorname="IO16" fill="none" stroke="#F7BD13"/>
   <circle  r="2.052" cx="69.3" stroke-width="1.224" cy="72" id="connector63pad" connectorname="IO4" fill="none" stroke="#F7BD13"/>
   <circle  r="2.052" cx="69.3" stroke-width="1.224" cy="79.2" id="connector64pad" connectorname="IO0" fill="none" stroke="#F7BD13"/>
   <circle  r="2.052" cx="69.3" stroke-width="1.224" cy="86.4" id="connector65pad" connectorname="IO2" fill="none" stroke="#F7BD13"/>
   <circle  r="2.052" cx="69.3" stroke-width="1.224" cy="93.6" id="connector66pad" connectorname="IO15" fill="none" stroke="#F7BD13"/>
   <circle  r="2.052" cx="69.3" stroke-width="1.224" cy="100.8" id="connector67pad" connectorname="IO8" fill="none" stroke="#F7BD13"/>
   <circle  r="2.052" cx="69.3" stroke-width="1.224" cy="108" id="connector68pad" connectorname="IO7" fill="none" stroke="#F7BD13"/>
   <circle  r="2.052" cx="69.3" stroke-width="1.224" cy="115.2" id="connector69pad" connectorname="IO6" fill="none" stroke="#F7BD13"/>
   <circle  r="2.124" cx="50.4" stroke-width="1.08" cy="111.6" id="connector70pad" connectorname="V_BATT" fill="none" stroke="#F7BD13"/>
   <path  stroke-width="0" fill="#F7BD13" d="m48.276,106.715,4.248,0,0,9.7704,-4.248,0,0,-9.7704M48.276,111.6a2.124,2.124,0,1,0,4.248,0,2.124,2.124,0,1,0,-4.248,0z" stroke="none"/>
   <circle  r="2.124" cx="57.6" stroke-width="1.08" cy="111.6" id="connector71pad" connectorname="GND" fill="none" stroke="#F7BD13"/>
   <path  stroke-width="0" fill="#F7BD13" d="m55.476,106.715,4.248,0,0,9.7704,-4.248,0,0,-9.7704M55.476,111.6a2.124,2.124,0,1,0,4.248,0,2.124,2.124,0,1,0,-4.248,0z" stroke="none"/>
   <circle  r="1.08" cx="31.8543" stroke-width="0.72" cy="115.132" id="connector202pad" connectorname="GND" fill="none" stroke="#F7BD13"/>
   <path  stroke-width="0" fill="#F7BD13" d="m30.7743,112.648,2.16,0,0,4.968,-2.16,0,0,-4.968M30.7743,115.132a1.08,1.08,0,1,0,2.16,0,1.08,1.08,0,1,0,-2.16,0z" stroke="none"/>
  </g>
 </g>
</svg>
