<?xml version='1.0' encoding='UTF-8' standalone='no'?>
<!-- Created with Fritzing (http://www.fritzing.org/) -->
<svg xmlns="http://www.w3.org/2000/svg"  y="0in" version="1.2" height="1.98125in" baseProfile="tiny" width="1.025in" viewBox="0 0 73.8 142.65" x="0in">
 <desc >Fritzing breadboard generated by brd2svg</desc>
 <g  id="breadboard">
  <g  id="icon">
   <path  fill="#000000" stroke-width="0" d="M2.7,138.6L71.1,138.6A2.7,2.7,0,0,0,73.8,135.9L73.8,2.7A2.7,2.7,0,0,0,71.1,0L2.7,0A2.7,2.7,0,0,0,0,2.7L0,135.9A2.7,2.7,0,0,0,2.7,138.6M3.06,4.5a1.44,1.44,0,1,1,2.88,0,1.44,1.44,0,1,1,-2.88,0zM3.06,11.7a1.44,1.44,0,1,1,2.88,0,1.44,1.44,0,1,1,-2.88,0zM3.06,18.9a1.44,1.44,0,1,1,2.88,0,1.44,1.44,0,1,1,-2.88,0zM3.06,26.1a1.44,1.44,0,1,1,2.88,0,1.44,1.44,0,1,1,-2.88,0zM3.06,33.3a1.44,1.44,0,1,1,2.88,0,1.44,1.44,0,1,1,-2.88,0zM3.06,40.5a1.44,1.44,0,1,1,2.88,0,1.44,1.44,0,1,1,-2.88,0zM3.06,47.7a1.44,1.44,0,1,1,2.88,0,1.44,1.44,0,1,1,-2.88,0zM3.06,54.9a1.44,1.44,0,1,1,2.88,0,1.44,1.44,0,1,1,-2.88,0zM3.06,62.1a1.44,1.44,0,1,1,2.88,0,1.44,1.44,0,1,1,-2.88,0zM3.06,69.3a1.44,1.44,0,1,1,2.88,0,1.44,1.44,0,1,1,-2.88,0zM3.06,76.5a1.44,1.44,0,1,1,2.88,0,1.44,1.44,0,1,1,-2.88,0zM3.06,83.7a1.44,1.44,0,1,1,2.88,0,1.44,1.44,0,1,1,-2.88,0zM3.06,90.9a1.44,1.44,0,1,1,2.88,0,1.44,1.44,0,1,1,-2.88,0zM3.06,98.1a1.44,1.44,0,1,1,2.88,0,1.44,1.44,0,1,1,-2.88,0zM3.06,105.3a1.44,1.44,0,1,1,2.88,0,1.44,1.44,0,1,1,-2.88,0zM3.06,112.5a1.44,1.44,0,1,1,2.88,0,1.44,1.44,0,1,1,-2.88,0zM3.06,119.7a1.44,1.44,0,1,1,2.88,0,1.44,1.44,0,1,1,-2.88,0zM3.06,126.9a1.44,1.44,0,1,1,2.88,0,1.44,1.44,0,1,1,-2.88,0zM3.06,134.1a1.44,1.44,0,1,1,2.88,0,1.44,1.44,0,1,1,-2.88,0zM67.86,4.5a1.44,1.44,0,1,1,2.88,0,1.44,1.44,0,1,1,-2.88,0zM67.86,11.7a1.44,1.44,0,1,1,2.88,0,1.44,1.44,0,1,1,-2.88,0zM67.86,18.9a1.44,1.44,0,1,1,2.88,0,1.44,1.44,0,1,1,-2.88,0zM67.86,26.1a1.44,1.44,0,1,1,2.88,0,1.44,1.44,0,1,1,-2.88,0zM67.86,33.3a1.44,1.44,0,1,1,2.88,0,1.44,1.44,0,1,1,-2.88,0zM67.86,40.5a1.44,1.44,0,1,1,2.88,0,1.44,1.44,0,1,1,-2.88,0zM67.86,47.7a1.44,1.44,0,1,1,2.88,0,1.44,1.44,0,1,1,-2.88,0zM67.86,54.9a1.44,1.44,0,1,1,2.88,0,1.44,1.44,0,1,1,-2.88,0zM67.86,62.1a1.44,1.44,0,1,1,2.88,0,1.44,1.44,0,1,1,-2.88,0zM67.86,69.3a1.44,1.44,0,1,1,2.88,0,1.44,1.44,0,1,1,-2.88,0zM67.86,76.5a1.44,1.44,0,1,1,2.88,0,1.44,1.44,0,1,1,-2.88,0zM67.86,83.7a1.44,1.44,0,1,1,2.88,0,1.44,1.44,0,1,1,-2.88,0zM67.86,90.9a1.44,1.44,0,1,1,2.88,0,1.44,1.44,0,1,1,-2.88,0zM67.86,98.1a1.44,1.44,0,1,1,2.88,0,1.44,1.44,0,1,1,-2.88,0zM67.86,105.3a1.44,1.44,0,1,1,2.88,0,1.44,1.44,0,1,1,-2.88,0zM67.86,112.5a1.44,1.44,0,1,1,2.88,0,1.44,1.44,0,1,1,-2.88,0zM67.86,119.7a1.44,1.44,0,1,1,2.88,0,1.44,1.44,0,1,1,-2.88,0zM67.86,126.9a1.44,1.44,0,1,1,2.88,0,1.44,1.44,0,1,1,-2.88,0zM67.86,134.1a1.44,1.44,0,1,1,2.88,0,1.44,1.44,0,1,1,-2.88,0zM48.816,130.5a1.584,1.584,0,1,1,3.168,0,1.584,1.584,0,1,1,-3.168,0zM56.016,130.5a1.584,1.584,0,1,1,3.168,0,1.584,1.584,0,1,1,-3.168,0z" stroke="none"/>
   <rect  y="83.7" height="3.6" width="7.92" fill="#ffffff" stroke-width="0" fill-opacity="0.15" x="20.34" stroke="none"/>
   <rect  y="67.05" height="3.6" width="7.92" fill="#ffffff" stroke-width="0" fill-opacity="0.15" x="44.64" stroke="none"/>
   <rect  y="61.65" height="3.6" width="7.92" fill="#ffffff" stroke-width="0" fill-opacity="0.15" x="44.64" stroke="none"/>
   <rect  y="115.731" height="21.8268" width="12.4724" fill="#ffffff" stroke-width="0" fill-opacity="0.15" x="47.7638" stroke="none"/>
   <rect  y="109.53" height="5.04" width="6.48" fill="#ffffff" stroke-width="0" fill-opacity="0.15" x="49.41" stroke="none"/>
   <rect  y="90.81" height="6.48" width="5.04" fill="#ffffff" stroke-width="0" fill-opacity="0.15" x="57.33" stroke="none"/>
   <rect  y="78.75" height="0.708661" width="0.708661" fill="#ffffff" stroke-width="0" fill-opacity="0.15" x="26.1957" stroke="none"/>
   <rect  y="78.0415" height="0.708661" width="0.708661" fill="#ffffff" stroke-width="0" fill-opacity="0.15" x="29.3457" stroke="none"/>
   <rect  y="78.75" height="0.708661" width="0.708661" fill="#ffffff" stroke-width="0" fill-opacity="0.15" x="47.3457" stroke="none"/>
   <rect  y="114.84" height="7.92" width="3.6" fill="#ffffff" stroke-width="0" fill-opacity="0.15" x="16.2" stroke="none"/>
   <rect  y="114.84" height="7.92" width="3.6" fill="#ffffff" stroke-width="0" fill-opacity="0.15" x="20.7" stroke="none"/>
   <rect  y="86.94" height="7.92" width="3.6" fill="#ffffff" stroke-width="0" fill-opacity="0.15" x="33.75" stroke="none"/>
   <rect  y="86.94" height="7.92" width="3.6" fill="#ffffff" stroke-width="0" fill-opacity="0.15" x="47.25" stroke="none"/>
   <rect  y="86.94" height="7.92" width="3.6" fill="#ffffff" stroke-width="0" fill-opacity="0.15" x="51.75" stroke="none"/>
   <rect  y="74.79" height="7.92" width="3.6" fill="#ffffff" stroke-width="0" fill-opacity="0.15" x="20.25" stroke="none"/>
   <rect  y="74.79" height="7.92" width="3.6" fill="#ffffff" stroke-width="0" fill-opacity="0.15" x="32.4" stroke="none"/>
   <rect  y="74.79" height="7.92" width="3.6" fill="#ffffff" stroke-width="0" fill-opacity="0.15" x="36.9" stroke="none"/>
   <rect  y="74.79" height="7.92" width="3.6" fill="#ffffff" stroke-width="0" fill-opacity="0.15" x="41.4" stroke="none"/>
   <rect  y="74.79" height="7.92" width="3.6" fill="#ffffff" stroke-width="0" fill-opacity="0.15" x="49.95" stroke="none"/>
   <rect  y="61.74" height="7.92" width="3.6" fill="#ffffff" stroke-width="0" fill-opacity="0.15" x="54" stroke="none"/>
   <rect  y="0.255118" height="55.2756" width="51.0236" fill="#ffffff" stroke-width="0" fill-opacity="0.15" x="11.3003" stroke="none"/>
   <rect  y="88.524" height="24.552" width="13.464" fill="#ffffff" stroke-width="0" fill-opacity="0.15" x="13.68" stroke="none"/>
   <rect  y="101.49" height="5.2492" width="8.496" fill="#ffffff" stroke-width="0" fill-opacity="0.15" x="37.404" stroke="none"/>
   <rect  y="101.49" height="5.2492" width="8.496" fill="#ffffff" stroke-width="0" fill-opacity="0.15" x="48.204" stroke="none"/>
   <rect  y="85.9637" height="8.33782" width="4.65278" fill="#ffffff" stroke-width="0" fill-opacity="0.15" x="39.9149" stroke="none"/>
   <rect  y="126.45" height="16.2" width="21.7772" fill="#ffffff" stroke-width="0" fill-opacity="0.15" x="11.6114" stroke="none"/>
   <rect  y="2.448" height="4.104" fill="none" width="4.104" stroke-width="1.224" stroke="#B98C00" x="2.448"/>
   <circle  connectorname="3.3V" cy="4.5" id="connector28pin" r="2.052" fill="none" stroke-width="1.224" cx="4.5" stroke="#B98C00"/>
   <circle  connectorname="CHIP_PU" cy="11.7" id="connector29pin" r="2.052" fill="none" stroke-width="1.224" cx="4.5" stroke="#B98C00"/>
   <circle  connectorname="IO36" cy="18.9" id="connector30pin" r="2.052" fill="none" stroke-width="1.224" cx="4.5" stroke="#B98C00"/>
   <circle  connectorname="IO39" cy="26.1" id="connector31pin" r="2.052" fill="none" stroke-width="1.224" cx="4.5" stroke="#B98C00"/>
   <circle  connectorname="IO34" cy="33.3" id="connector32pin" r="2.052" fill="none" stroke-width="1.224" cx="4.5" stroke="#B98C00"/>
   <circle  connectorname="IO35" cy="40.5" id="connector33pin" r="2.052" fill="none" stroke-width="1.224" cx="4.5" stroke="#B98C00"/>
   <circle  connectorname="IO32" cy="47.7" id="connector34pin" r="2.052" fill="none" stroke-width="1.224" cx="4.5" stroke="#B98C00"/>
   <circle  connectorname="IO33" cy="54.9" id="connector35pin" r="2.052" fill="none" stroke-width="1.224" cx="4.5" stroke="#B98C00"/>
   <circle  connectorname="IO25" cy="62.1" id="connector36pin" r="2.052" fill="none" stroke-width="1.224" cx="4.5" stroke="#B98C00"/>
   <circle  connectorname="IO26" cy="69.3" id="connector37pin" r="2.052" fill="none" stroke-width="1.224" cx="4.5" stroke="#B98C00"/>
   <circle  connectorname="IO27" cy="76.5" id="connector38pin" r="2.052" fill="none" stroke-width="1.224" cx="4.5" stroke="#B98C00"/>
   <circle  connectorname="IO14" cy="83.7" id="connector39pin" r="2.052" fill="none" stroke-width="1.224" cx="4.5" stroke="#B98C00"/>
   <circle  connectorname="IO12" cy="90.9" id="connector40pin" r="2.052" fill="none" stroke-width="1.224" cx="4.5" stroke="#B98C00"/>
   <circle  connectorname="V_BATT" cy="98.1" id="connector41pin" r="2.052" fill="none" stroke-width="1.224" cx="4.5" stroke="#B98C00"/>
   <circle  connectorname="IO13" cy="105.3" id="connector42pin" r="2.052" fill="none" stroke-width="1.224" cx="4.5" stroke="#B98C00"/>
   <circle  connectorname="IO9" cy="112.5" id="connector43pin" r="2.052" fill="none" stroke-width="1.224" cx="4.5" stroke="#B98C00"/>
   <circle  connectorname="IO10" cy="119.7" id="connector44pin" r="2.052" fill="none" stroke-width="1.224" cx="4.5" stroke="#B98C00"/>
   <circle  connectorname="IO11" cy="126.9" id="connector45pin" r="2.052" fill="none" stroke-width="1.224" cx="4.5" stroke="#B98C00"/>
   <circle  connectorname="5V" cy="134.1" id="connector46pin" r="2.052" fill="none" stroke-width="1.224" cx="4.5" stroke="#B98C00"/>
   <circle  connectorname="GND" cy="4.5" id="connector47pin" r="2.052" fill="none" stroke-width="1.224" cx="69.3" stroke="#B98C00"/>
   <circle  connectorname="IO23" cy="11.7" id="connector48pin" r="2.052" fill="none" stroke-width="1.224" cx="69.3" stroke="#B98C00"/>
   <circle  connectorname="IO22" cy="18.9" id="connector49pin" r="2.052" fill="none" stroke-width="1.224" cx="69.3" stroke="#B98C00"/>
   <circle  connectorname="TXD" cy="26.1" id="connector50pin" r="2.052" fill="none" stroke-width="1.224" cx="69.3" stroke="#B98C00"/>
   <circle  connectorname="RXD" cy="33.3" id="connector51pin" r="2.052" fill="none" stroke-width="1.224" cx="69.3" stroke="#B98C00"/>
   <circle  connectorname="IO21" cy="40.5" id="connector52pin" r="2.052" fill="none" stroke-width="1.224" cx="69.3" stroke="#B98C00"/>
   <circle  connectorname="GND" cy="47.7" id="connector53pin" r="2.052" fill="none" stroke-width="1.224" cx="69.3" stroke="#B98C00"/>
   <circle  connectorname="IO19" cy="54.9" id="connector54pin" r="2.052" fill="none" stroke-width="1.224" cx="69.3" stroke="#B98C00"/>
   <circle  connectorname="IO18" cy="62.1" id="connector55pin" r="2.052" fill="none" stroke-width="1.224" cx="69.3" stroke="#B98C00"/>
   <circle  connectorname="IO5" cy="69.3" id="connector56pin" r="2.052" fill="none" stroke-width="1.224" cx="69.3" stroke="#B98C00"/>
   <circle  connectorname="IO17" cy="76.5" id="connector57pin" r="2.052" fill="none" stroke-width="1.224" cx="69.3" stroke="#B98C00"/>
   <circle  connectorname="IO16" cy="83.7" id="connector58pin" r="2.052" fill="none" stroke-width="1.224" cx="69.3" stroke="#B98C00"/>
   <circle  connectorname="IO4" cy="90.9" id="connector59pin" r="2.052" fill="none" stroke-width="1.224" cx="69.3" stroke="#B98C00"/>
   <circle  connectorname="IO0" cy="98.1" id="connector60pin" r="2.052" fill="none" stroke-width="1.224" cx="69.3" stroke="#B98C00"/>
   <circle  connectorname="IO2" cy="105.3" id="connector61pin" r="2.052" fill="none" stroke-width="1.224" cx="69.3" stroke="#B98C00"/>
   <circle  connectorname="IO15" cy="112.5" id="connector62pin" r="2.052" fill="none" stroke-width="1.224" cx="69.3" stroke="#B98C00"/>
   <circle  connectorname="IO8" cy="119.7" id="connector63pin" r="2.052" fill="none" stroke-width="1.224" cx="69.3" stroke="#B98C00"/>
   <circle  connectorname="IO7" cy="126.9" id="connector64pin" r="2.052" fill="none" stroke-width="1.224" cx="69.3" stroke="#B98C00"/>
   <circle  connectorname="IO6" cy="134.1" id="connector65pin" r="2.052" fill="none" stroke-width="1.224" cx="69.3" stroke="#B98C00"/>
   <circle  connectorname="V_BATT" cy="130.5" id="connector66pin" r="2.124" fill="none" stroke-width="1.08" cx="50.4" stroke="#B98C00"/>
   <path  fill="#B98C00" stroke-width="0" d="m48.276,125.615,4.248,0,0,9.7704,-4.248,0,0,-9.7704M48.276,130.5a2.124,2.124,0,1,0,4.248,0,2.124,2.124,0,1,0,-4.248,0z" stroke="none"/>
   <circle  connectorname="GND" cy="130.5" id="connector67pin" r="2.124" fill="none" stroke-width="1.08" cx="57.6" stroke="#B98C00"/>
   <path  fill="#B98C00" stroke-width="0" d="m55.476,125.615,4.248,0,0,9.7704,-4.248,0,0,-9.7704M55.476,130.5a2.124,2.124,0,1,0,4.248,0,2.124,2.124,0,1,0,-4.248,0z" stroke="none"/>

	<g id="centered" transform="translate(0 0)">
		<g id="labels1" fill="none" stroke="#EEEEEE" stroke-width="0.1" stroke-linecap="round">
			<g id="left-labels" transform="translate(2 12) rotate(-90 0 0) translate(0 6.7)">
				<g>
					<text y="2.448" x="2.448" font-size="5">3V3</text>
					<text y="2.448" x="-4.448" font-size="5">EN</text>
					<text y="2.448" x="-11.448" font-size="5">36</text>
					<text y="2.448" x="-18.448" font-size="5">39</text>
					<text y="2.448" x="-25.448" font-size="5">34</text>
					<text y="2.448" x="-32.448" font-size="5">35</text>
					<text y="2.448" x="-39.448" font-size="5">32</text>
					<text y="2.448" x="-46.448" font-size="5">33</text>
					<text y="2.448" x="-53.448" font-size="5">25</text>
					<text y="2.448" x="-60.448" font-size="5">26</text>
					<text y="2.448" x="-67.448" font-size="5">27</text>
					<text y="2.448" x="-74.448" font-size="5">14</text>
					<text y="2.448" x="-81.448" font-size="5">12</text>
					<text y="2.448" x="-88.448" font-size="5">VB</text>
					<text y="2.448" x="-95.448" font-size="5">13</text>
					<text y="2.448" x="-102.448" font-size="5">09</text>
					<text y="2.448" x="-109.448" font-size="5">10</text>
					<text y="2.448" x="-116.448" font-size="5">11</text>
					<text y="2.448" x="-125.448" font-size="5">VIN</text>
				</g>
			</g>
			<g id="right-labels" transform="translate(56 12) rotate(-90 0 0) translate(0 7.7)">
				<g>
					<text y="2.448" x="1.448" font-size="5">GND</text>
					<text y="2.448" x="-4.448" font-size="5">23</text>
					<text y="2.448" x="-10.448" font-size="5">22</text>
					<text y="2.448" x="-16.448" font-size="5">TX</text>
					<text y="2.448" x="-23.448" font-size="5">RX</text>
					<text y="2.448" x="-29.448" font-size="5">21</text>
					<text y="2.448" x="-40.448" font-size="5">GND</text>
					<text y="2.448" x="-47.448" font-size="5">19</text>
					<text y="2.448" x="-54.448" font-size="5">18</text>
					<text y="2.448" x="-60.448" font-size="5">05</text>
					<text y="2.448" x="-67.448" font-size="5">17</text>
					<text y="2.448" x="-74.448" font-size="5">16</text>
					<text y="2.448" x="-81.448" font-size="5">04</text>
					<text y="2.448" x="-88.448" font-size="5">00</text>
					<text y="2.448" x="-95.448" font-size="5">02</text>
					<text y="2.448" x="-102.448" font-size="5">15</text>
					<text y="2.448" x="-109.448" font-size="5">08</text>
					<text y="2.448" x="-116.448" font-size="5">07</text>
					<text y="2.448" x="-125.448" font-size="5">06</text>
				</g>
			</g>
			<g id="mid-labels" transform="translate(42 125) rotate(-90 0 0) translate(0 7.7)">
				<g>
					<text y="2.448" x="1.448" font-size="5">VBATT</text>
					<text y="9.448" x="1.448" font-size="5">GND</text>
				</g>
			</g>
			<g id="lbl-labels" transform="translate(12 15) rotate(0 0 0) translate(0 7.7)">
				<g>
					<text y="7.448" x="1.448" font-size="12">Node32s</text>
					<text y="17.448" x="1.448" font-size="8">ayarafun.com</text>
					<text y="27.448" x="1.448" font-size="8">lamloei.com</text>
				</g>
			</g>
		</g>
	</g>
	<g id="centered" transform="translate(0.2835 0)">
		<g id="ant" transform="translate(13.323,0)">
			<g id="antenna" fill="#9A916C">
				<polygon points="43.301,15.289 42.081,15.289 42.081,3.269 36.961,3.269 36.961,10.969 28.617,10.969 28.617,3.269 23.357,3.269 23.357,10.969 15.077,10.969 15.077,3.269 9.961,3.269 9.961,15.286 8.741,15.286 8.741,3.269 3.697,3.269 3.697,15.289 2.049,15.289 2.049,2.049 16.297,2.049 16.297,9.749 22.137,9.749 22.137,2.049 29.837,2.049 29.837,9.749 35.741,9.749 35.741,2.049 43.301,2.049"/>
			</g>
		</g>
	</g>	
  </g>
 </g>
</svg>
