<?xml version='1.0' encoding='UTF-8' standalone='no'?>
<!-- Created with Fritzing (http://www.fritzing.org/) -->
<svg xmlns="http://www.w3.org/2000/svg"  x="0in" y="0in" baseProfile="tiny" viewBox="0 0 73.8 123.75" width="1.025in" height="1.71875in" version="1.2">
 <desc >Fritzing breadboard generated by brd2svg</desc>
 <g  id="breadboard">
  <g  id="icon">
   <path  stroke-width="0" fill="#000000" d="M71.1,0A2.7,2.7,0,0,1,73.8,2.7L73.8,117A2.7,2.7,0,0,1,71.1,119.7L2.7,119.7A2.7,2.7,0,0,1,0,117L0,2.7A2.7,2.7,0,0,1,2.7,0L71.1,0M1.76457,7.2a4.53543,4.53543,0,1,0,9.07085,0,4.53543,4.53543,0,1,0,-9.07085,0zM62.9646,7.2a4.53543,4.53543,0,1,0,9.07085,0,4.53543,4.53543,0,1,0,-9.07085,0zM50.0315,100.8a1.13386,1.13386,0,1,0,2.26772,0,1.13386,1.13386,0,1,0,-2.26772,0zM55.7008,100.8a1.13386,1.13386,0,1,0,2.26772,0,1.13386,1.13386,0,1,0,-2.26772,0zM3.06,28.8a1.44,1.44,0,1,0,2.88,0,1.44,1.44,0,1,0,-2.88,0zM3.06,36a1.44,1.44,0,1,0,2.88,0,1.44,1.44,0,1,0,-2.88,0zM3.06,43.2a1.44,1.44,0,1,0,2.88,0,1.44,1.44,0,1,0,-2.88,0zM3.06,50.4a1.44,1.44,0,1,0,2.88,0,1.44,1.44,0,1,0,-2.88,0zM3.06,57.6a1.44,1.44,0,1,0,2.88,0,1.44,1.44,0,1,0,-2.88,0zM3.06,64.8a1.44,1.44,0,1,0,2.88,0,1.44,1.44,0,1,0,-2.88,0zM3.06,72a1.44,1.44,0,1,0,2.88,0,1.44,1.44,0,1,0,-2.88,0zM3.06,79.2a1.44,1.44,0,1,0,2.88,0,1.44,1.44,0,1,0,-2.88,0zM3.06,86.4a1.44,1.44,0,1,0,2.88,0,1.44,1.44,0,1,0,-2.88,0zM3.06,93.6a1.44,1.44,0,1,0,2.88,0,1.44,1.44,0,1,0,-2.88,0zM3.06,100.8a1.44,1.44,0,1,0,2.88,0,1.44,1.44,0,1,0,-2.88,0zM3.06,108a1.44,1.44,0,1,0,2.88,0,1.44,1.44,0,1,0,-2.88,0zM3.06,115.2a1.44,1.44,0,1,0,2.88,0,1.44,1.44,0,1,0,-2.88,0zM67.86,28.8a1.44,1.44,0,1,0,2.88,0,1.44,1.44,0,1,0,-2.88,0zM67.86,36a1.44,1.44,0,1,0,2.88,0,1.44,1.44,0,1,0,-2.88,0zM67.86,43.2a1.44,1.44,0,1,0,2.88,0,1.44,1.44,0,1,0,-2.88,0zM67.86,50.4a1.44,1.44,0,1,0,2.88,0,1.44,1.44,0,1,0,-2.88,0zM67.86,57.6a1.44,1.44,0,1,0,2.88,0,1.44,1.44,0,1,0,-2.88,0zM67.86,64.8a1.44,1.44,0,1,0,2.88,0,1.44,1.44,0,1,0,-2.88,0zM67.86,72a1.44,1.44,0,1,0,2.88,0,1.44,1.44,0,1,0,-2.88,0zM67.86,79.2a1.44,1.44,0,1,0,2.88,0,1.44,1.44,0,1,0,-2.88,0zM67.86,86.4a1.44,1.44,0,1,0,2.88,0,1.44,1.44,0,1,0,-2.88,0zM67.86,93.6a1.44,1.44,0,1,0,2.88,0,1.44,1.44,0,1,0,-2.88,0zM67.86,100.8a1.44,1.44,0,1,0,2.88,0,1.44,1.44,0,1,0,-2.88,0zM67.86,108a1.44,1.44,0,1,0,2.88,0,1.44,1.44,0,1,0,-2.88,0zM67.86,115.2a1.44,1.44,0,1,0,2.88,0,1.44,1.44,0,1,0,-2.88,0zM48.816,111.6a1.584,1.584,0,1,0,3.168,0,1.584,1.584,0,1,0,-3.168,0zM56.016,111.6a1.584,1.584,0,1,0,3.168,0,1.584,1.584,0,1,0,-3.168,0zM12.4257,115.132a0.72,0.72,0,1,0,1.44,0,0.72,0.72,0,1,0,-1.44,0zM31.1343,115.132a0.72,0.72,0,1,0,1.44,0,0.72,0.72,0,1,0,-1.44,0z" stroke="none"/>
   <rect  x="14.04" y="22.5" stroke-width="0" fill-opacity="1" fill="#333333" width="15.12" height="7.2" stroke="none"/>
   <rect  x="22.0181" y="1.94882" stroke-width="0" id="connector0pin" fill="#B98C00" width="4.25197" height="5.10236" stroke="none"/>
   <rect  x="47.5299" y="1.94882" stroke-width="0" id="connector1pin" fill="#B98C00" width="4.25197" height="5.10236" stroke="none"/>
   <g  transform="matrix(0, 1, -1, 0, 111.24, 84.24)">
    <rect  x="12.24" y="96.48" stroke-width="0" id="connector2pin" rx="0.315" fill="#B98C00" width="2.52" height="2.52" ry="0.315" stroke="none"/>
   </g>
   <g  transform="matrix(0, 1, -1, 0, 115.56, 88.56)">
    <rect  x="12.24" y="100.8" stroke-width="0" id="connector3pin" rx="0.315" fill="#B98C00" width="2.52" height="2.52" ry="0.315" stroke="none"/>
   </g>
   <g  transform="matrix(0, 1, -1, 0, 124.74, 70.74)">
    <rect  x="25.74" y="96.48" stroke-width="0" id="connector4pin" rx="0.315" fill="#B98C00" width="2.52" height="2.52" ry="0.315" stroke="none"/>
   </g>
   <g  transform="matrix(0, 1, -1, 0, 129.06, 75.06)">
    <rect  x="25.74" y="100.8" stroke-width="0" id="connector5pin" rx="0.315" fill="#B98C00" width="2.52" height="2.52" ry="0.315" stroke="none"/>
   </g>
   <g  transform="matrix(0, -1, 1, 0, -70.56, 133.56)">
    <rect  x="30.24" y="100.8" stroke-width="0" id="connector6pin" rx="0.315" fill="#B98C00" width="2.52" height="2.52" ry="0.315" stroke="none"/>
   </g>
   <g  transform="matrix(0, -1, 1, 0, -66.24, 129.24)">
    <rect  x="30.24" y="96.48" stroke-width="0" id="connector7pin" rx="0.315" fill="#B98C00" width="2.52" height="2.52" ry="0.315" stroke="none"/>
   </g>
   <g  transform="matrix(0, 1, -1, 0, 129.78, 55.98)">
    <rect  x="35.46" y="90.9" stroke-width="0" id="connector8pin" rx="0.36" fill="#B98C00" width="2.88" height="3.96" ry="0.36" stroke="none"/>
   </g>
   <g  transform="matrix(0, 1, -1, 0, 134.82, 61.02)">
    <rect  x="35.46" y="95.94" stroke-width="0" id="connector9pin" rx="0.36" fill="#B98C00" width="2.88" height="3.96" ry="0.36" stroke="none"/>
   </g>
   <g  transform="matrix(0, 1, -1, 0, 135.54, 50.94)">
    <rect  x="41.04" y="91.98" stroke-width="0" id="connector10pin" rx="0.315" fill="#B98C00" width="2.52" height="2.52" ry="0.315" stroke="none"/>
   </g>
   <g  transform="matrix(0, 1, -1, 0, 139.86, 55.26)">
    <rect  x="41.04" y="96.3" stroke-width="0" id="connector11pin" rx="0.315" fill="#B98C00" width="2.52" height="2.52" ry="0.315" stroke="none"/>
   </g>
   <g  transform="matrix(0, -1, 1, 0, -51.21, 122.31)">
    <rect  x="34.29" y="85.5" stroke-width="0" id="connector12pin" rx="0.315" fill="#B98C00" width="2.52" height="2.52" ry="0.315" stroke="none"/>
   </g>
   <g  transform="matrix(0, -1, 1, 0, -46.89, 117.99)">
    <rect  x="34.29" y="81.18" stroke-width="0" id="connector13pin" rx="0.315" fill="#B98C00" width="2.52" height="2.52" ry="0.315" stroke="none"/>
   </g>
   <g  transform="matrix(0, 1, -1, 0, 144.09, 24.39)">
    <rect  x="58.59" y="82.98" stroke-width="0" id="connector14pin" rx="0.315" fill="#B98C00" width="2.52" height="2.52" ry="0.315" stroke="none"/>
   </g>
   <g  transform="matrix(0, 1, -1, 0, 148.41, 28.71)">
    <rect  x="58.59" y="87.3" stroke-width="0" id="connector15pin" rx="0.315" fill="#B98C00" width="2.52" height="2.52" ry="0.315" stroke="none"/>
   </g>
   <rect  x="20.88" y="65.34" stroke-width="0" id="connector16pin" rx="0.315" fill="#B98C00" width="2.52" height="2.52" ry="0.315" stroke="none"/>
   <rect  x="25.2" y="65.34" stroke-width="0" id="connector17pin" rx="0.315" fill="#B98C00" width="2.52" height="2.52" ry="0.315" stroke="none"/>
   <g  transform="matrix(-1, 0, 0, -1, 115.92, 79.2)">
    <rect  x="57.06" y="38.7" stroke-width="0" id="connector18pin" rx="0.45" fill="#B98C00" width="1.8" height="1.8" ry="0.45" stroke="none"/>
   </g>
   <g  transform="matrix(-1, 0, 0, -1, 110.88, 79.2)">
    <rect  x="54.54" y="38.7" stroke-width="0" id="connector19pin" rx="0.45" fill="#B98C00" width="1.8" height="1.8" ry="0.45" stroke="none"/>
   </g>
   <g  transform="matrix(-1, 0, 0, -1, 115.92, 72.9)">
    <rect  x="57.06" y="35.55" stroke-width="0" id="connector20pin" rx="0.45" fill="#B98C00" width="1.8" height="1.8" ry="0.45" stroke="none"/>
   </g>
   <g  transform="matrix(-1, 0, 0, -1, 110.88, 72.9)">
    <rect  x="54.54" y="35.55" stroke-width="0" id="connector21pin" rx="0.45" fill="#B98C00" width="1.8" height="1.8" ry="0.45" stroke="none"/>
   </g>
   <g  transform="matrix(-1, 0, 0, -1, 115.92, 66.6)">
    <rect  x="57.06" y="32.4" stroke-width="0" id="connector22pin" rx="0.45" fill="#B98C00" width="1.8" height="1.8" ry="0.45" stroke="none"/>
   </g>
   <g  transform="matrix(-1, 0, 0, -1, 110.88, 66.6)">
    <rect  x="54.54" y="32.4" stroke-width="0" id="connector23pin" rx="0.45" fill="#B98C00" width="1.8" height="1.8" ry="0.45" stroke="none"/>
   </g>
   <g  transform="matrix(-1, 0, 0, -1, 115.92, 37.8)">
    <rect  x="57.06" y="18" stroke-width="0" id="connector24pin" rx="0.45" fill="#B98C00" width="1.8" height="1.8" ry="0.45" stroke="none"/>
   </g>
   <g  transform="matrix(-1, 0, 0, -1, 110.88, 37.8)">
    <rect  x="54.54" y="18" stroke-width="0" id="connector25pin" rx="0.45" fill="#B98C00" width="1.8" height="1.8" ry="0.45" stroke="none"/>
   </g>
   <rect  x="16.29" y="11.7" stroke-width="0" id="connector26pin" rx="0.45" fill="#B98C00" width="1.8" height="1.8" ry="0.45" stroke="none"/>
   <rect  x="18.81" y="11.7" stroke-width="0" id="connector27pin" rx="0.45" fill="#B98C00" width="1.8" height="1.8" ry="0.45" stroke="none"/>
   <rect  x="31.14" y="11.7" stroke-width="0" id="connector28pin" rx="0.45" fill="#B98C00" width="1.8" height="1.8" ry="0.45" stroke="none"/>
   <rect  x="33.66" y="11.7" stroke-width="0" id="connector29pin" rx="0.45" fill="#B98C00" width="1.8" height="1.8" ry="0.45" stroke="none"/>
   <g  transform="matrix(-1, 0, 0, -1, 80.82, 25.2)">
    <rect  x="39.51" y="11.7" stroke-width="0" id="connector30pin" rx="0.45" fill="#B98C00" width="1.8" height="1.8" ry="0.45" stroke="none"/>
   </g>
   <g  transform="matrix(-1, 0, 0, -1, 75.78, 25.2)">
    <rect  x="36.99" y="11.7" stroke-width="0" id="connector31pin" rx="0.45" fill="#B98C00" width="1.8" height="1.8" ry="0.45" stroke="none"/>
   </g>
   <rect  x="48.69" y="11.7" stroke-width="0" id="connector32pin" rx="0.45" fill="#B98C00" width="1.8" height="1.8" ry="0.45" stroke="none"/>
   <rect  x="51.21" y="11.7" stroke-width="0" id="connector33pin" rx="0.45" fill="#B98C00" width="1.8" height="1.8" ry="0.45" stroke="none"/>
   <g  transform="matrix(-1, 0, 0, -1, 115.92, 25.2)">
    <rect  x="57.06" y="11.7" stroke-width="0" id="connector34pin" rx="0.45" fill="#B98C00" width="1.8" height="1.8" ry="0.45" stroke="none"/>
   </g>
   <g  transform="matrix(-1, 0, 0, -1, 110.88, 25.2)">
    <rect  x="54.54" y="11.7" stroke-width="0" id="connector35pin" rx="0.45" fill="#B98C00" width="1.8" height="1.8" ry="0.45" stroke="none"/>
   </g>
   <circle  r="1.57493" cx="51.1654" stroke-width="0.882144" cy="100.8" id="connector36pin" connectorname="V_BATT" fill="none" stroke="#B98C00"/>
   <circle  r="1.57493" cx="56.8346" stroke-width="0.882144" cy="100.8" id="connector37pin" connectorname="GND" fill="none" stroke="#B98C00"/>
   <rect  x="55.35" y="91.17" stroke-width="0" id="connector38pin" fill="#B98C00" width="3.96" height="3.96" stroke="none"/>
   <rect  x="45.99" y="91.17" stroke-width="0" id="connector39pin" fill="#B98C00" width="3.96" height="3.96" stroke="none"/>
   <g  transform="matrix(0, 1, -1, 0, 139.68, 19.98)">
    <rect  x="57.87" y="77.85" stroke-width="0" id="connector40pin" fill="#B98C00" width="3.96" height="3.96" stroke="none"/>
   </g>
   <g  transform="matrix(0, 1, -1, 0, 130.32, 10.62)">
    <rect  x="57.87" y="68.49" stroke-width="0" id="connector41pin" fill="#B98C00" width="3.96" height="3.96" stroke="none"/>
   </g>
   <g  transform="matrix(0, -1, 1, 0, -73.26, 152.46)">
    <rect  x="37.8" y="110.34" stroke-width="0" id="connector42pin" fill="#B98C00" width="3.6" height="5.04" stroke="none"/>
   </g>
   <g  transform="matrix(0, -1, 1, 0, -65.34, 144.54)">
    <rect  x="37.8" y="102.42" stroke-width="0" id="connector43pin" fill="#B98C00" width="3.6" height="5.04" stroke="none"/>
   </g>
   <circle  r="2.052" cx="4.5" stroke-width="1.224" cy="28.8" id="connector44pin" connectorname="3.3V" fill="none" stroke="#B98C00"/>
   <rect  x="2.448" y="26.748" stroke-width="1.224" fill="none" width="4.104" height="4.104" stroke="#B98C00"/>
   <circle  r="2.052" cx="4.5" stroke-width="1.224" cy="36" id="connector45pin" connectorname="RESET" fill="none" stroke="#B98C00"/>
   <circle  r="2.052" cx="4.5" stroke-width="1.224" cy="43.2" id="connector46pin" connectorname="A0" fill="none" stroke="#B98C00"/>
   <circle  r="2.052" cx="4.5" stroke-width="1.224" cy="50.4" id="connector47pin" connectorname="EN" fill="none" stroke="#B98C00"/>
   <circle  r="2.052" cx="4.5" stroke-width="1.224" cy="57.6" id="connector48pin" connectorname="3.3V" fill="none" stroke="#B98C00"/>
   <circle  r="2.052" cx="4.5" stroke-width="1.224" cy="64.8" id="connector49pin" connectorname="IO14" fill="none" stroke="#B98C00"/>
   <circle  r="2.052" cx="4.5" stroke-width="1.224" cy="72" id="connector50pin" connectorname="IO12" fill="none" stroke="#B98C00"/>
   <circle  r="2.052" cx="4.5" stroke-width="1.224" cy="79.2" id="connector51pin" connectorname="V_BATT" fill="none" stroke="#B98C00"/>
   <circle  r="2.052" cx="4.5" stroke-width="1.224" cy="86.4" id="connector52pin" connectorname="IO13" fill="none" stroke="#B98C00"/>
   <circle  r="2.052" cx="4.5" stroke-width="1.224" cy="93.6" id="connector53pin" connectorname="IO9" fill="none" stroke="#B98C00"/>
   <circle  r="2.052" cx="4.5" stroke-width="1.224" cy="100.8" id="connector54pin" connectorname="IO10" fill="none" stroke="#B98C00"/>
   <circle  r="2.052" cx="4.5" stroke-width="1.224" cy="108" id="connector55pin" connectorname="IO11" fill="none" stroke="#B98C00"/>
   <circle  r="2.052" cx="4.5" stroke-width="1.224" cy="115.2" id="connector56pin" connectorname="VIN" fill="none" stroke="#B98C00"/>
   <circle  r="2.052" cx="69.3" stroke-width="1.224" cy="28.8" id="connector57pin" connectorname="GND" fill="none" stroke="#B98C00"/>
   <circle  r="2.052" cx="69.3" stroke-width="1.224" cy="36" id="connector58pin" connectorname="TXD" fill="none" stroke="#B98C00"/>
   <circle  r="2.052" cx="69.3" stroke-width="1.224" cy="43.2" id="connector59pin" connectorname="RXD" fill="none" stroke="#B98C00"/>
   <circle  r="2.052" cx="69.3" stroke-width="1.224" cy="50.4" id="connector60pin" connectorname="IO5" fill="none" stroke="#B98C00"/>
   <circle  r="2.052" cx="69.3" stroke-width="1.224" cy="57.6" id="connector61pin" connectorname="GND" fill="none" stroke="#B98C00"/>
   <circle  r="2.052" cx="69.3" stroke-width="1.224" cy="64.8" id="connector62pin" connectorname="IO16" fill="none" stroke="#B98C00"/>
   <circle  r="2.052" cx="69.3" stroke-width="1.224" cy="72" id="connector63pin" connectorname="IO4" fill="none" stroke="#B98C00"/>
   <circle  r="2.052" cx="69.3" stroke-width="1.224" cy="79.2" id="connector64pin" connectorname="IO0" fill="none" stroke="#B98C00"/>
   <circle  r="2.052" cx="69.3" stroke-width="1.224" cy="86.4" id="connector65pin" connectorname="IO2" fill="none" stroke="#B98C00"/>
   <circle  r="2.052" cx="69.3" stroke-width="1.224" cy="93.6" id="connector66pin" connectorname="IO15" fill="none" stroke="#B98C00"/>
   <circle  r="2.052" cx="69.3" stroke-width="1.224" cy="100.8" id="connector67pin" connectorname="IO8" fill="none" stroke="#B98C00"/>
   <circle  r="2.052" cx="69.3" stroke-width="1.224" cy="108" id="connector68pin" connectorname="IO7" fill="none" stroke="#B98C00"/>
   <circle  r="2.052" cx="69.3" stroke-width="1.224" cy="115.2" id="connector69pin" connectorname="IO6" fill="none" stroke="#B98C00"/>
   <circle  r="2.124" cx="50.4" stroke-width="1.08" cy="111.6" id="connector70pin" connectorname="V_BATT" fill="none" stroke="#B98C00"/>
   <path  stroke-width="0" fill="#B98C00" d="m48.276,106.715,4.248,0,0,9.7704,-4.248,0,0,-9.7704M48.276,111.6a2.124,2.124,0,1,0,4.248,0,2.124,2.124,0,1,0,-4.248,0z" stroke="none"/>
   <circle  r="2.124" cx="57.6" stroke-width="1.08" cy="111.6" id="connector71pin" connectorname="GND" fill="none" stroke="#B98C00"/>
   <path  stroke-width="0" fill="#B98C00" d="m55.476,106.715,4.248,0,0,9.7704,-4.248,0,0,-9.7704M55.476,111.6a2.124,2.124,0,1,0,4.248,0,2.124,2.124,0,1,0,-4.248,0z" stroke="none"/>
   <rect  x="11.7" y="53.01" stroke-width="0" id="connector72pin" fill="#B98C00" width="7.2" height="3.6" stroke="none"/>
   <rect  x="11.7" y="63.99" stroke-width="0" id="connector73pin" fill="#B98C00" width="7.2" height="3.6" stroke="none"/>
   <g  transform="matrix(-1, 0, 0, -1, 117, 131.58)">
    <rect  x="54.9" y="63.99" stroke-width="0" id="connector74pin" fill="#B98C00" width="7.2" height="3.6" stroke="none"/>
   </g>
   <g  transform="matrix(-1, 0, 0, -1, 117, 109.62)">
    <rect  x="54.9" y="53.01" stroke-width="0" id="connector75pin" fill="#B98C00" width="7.2" height="3.6" stroke="none"/>
   </g>
   <g  transform="matrix(-1, 0, 0, -1, 92.52, 25.2)">
    <rect  x="45.36" y="11.7" stroke-width="0" id="connector76pin" rx="0.45" fill="#B98C00" width="1.8" height="1.8" ry="0.45" stroke="none"/>
   </g>
   <g  transform="matrix(-1, 0, 0, -1, 87.48, 25.2)">
    <rect  x="42.84" y="11.7" stroke-width="0" id="connector77pin" rx="0.45" fill="#B98C00" width="1.8" height="1.8" ry="0.45" stroke="none"/>
   </g>
   <g  transform="matrix(-1, 0, 0, -1, 53.1, 115.448)">
    <rect  x="25.4161" y="56.5901" stroke-width="0" id="connector78pin" fill="#B98C00" width="2.26772" height="2.26772" stroke="none"/>
   </g>
   <g  transform="matrix(-1, 0, 0, -1, 53.1, 123.952)">
    <rect  x="25.4161" y="60.8422" stroke-width="0" id="connector79pin" fill="#B98C00" width="2.26772" height="2.26772" stroke="none"/>
   </g>
   <rect  x="28.5661" y="60.8422" stroke-width="0" id="connector80pin" fill="#B98C00" width="2.26772" height="2.26772" stroke="none"/>
   <rect  x="28.5661" y="56.5901" stroke-width="0" id="connector81pin" fill="#B98C00" width="2.26772" height="2.26772" stroke="none"/>
   <g  transform="matrix(-1, 0, 0, -1, 95.4, 115.448)">
    <rect  x="46.5661" y="56.5901" stroke-width="0" id="connector82pin" fill="#B98C00" width="2.26772" height="2.26772" stroke="none"/>
   </g>
   <g  transform="matrix(-1, 0, 0, -1, 95.4, 123.952)">
    <rect  x="46.5661" y="60.8422" stroke-width="0" id="connector83pin" fill="#B98C00" width="2.26772" height="2.26772" stroke="none"/>
   </g>
   <g  transform="matrix(0, -1, 1, 0, -84.06, 120.06)">
    <rect  x="16.74" y="100.8" stroke-width="0" id="connector84pin" rx="0.315" fill="#B98C00" width="2.52" height="2.52" ry="0.315" stroke="none"/>
   </g>
   <g  transform="matrix(0, -1, 1, 0, -79.74, 115.74)">
    <rect  x="16.74" y="96.48" stroke-width="0" id="connector85pin" rx="0.315" fill="#B98C00" width="2.52" height="2.52" ry="0.315" stroke="none"/>
   </g>
   <g  transform="matrix(0, -1, 1, 0, -79.56, 124.56)">
    <rect  x="21.24" y="100.8" stroke-width="0" id="connector86pin" rx="0.315" fill="#B98C00" width="2.52" height="2.52" ry="0.315" stroke="none"/>
   </g>
   <g  transform="matrix(0, -1, 1, 0, -75.24, 120.24)">
    <rect  x="21.24" y="96.48" stroke-width="0" id="connector87pin" rx="0.315" fill="#B98C00" width="2.52" height="2.52" ry="0.315" stroke="none"/>
   </g>
   <g  transform="matrix(0, 1, -1, 0, 105.39, 34.29)">
    <rect  x="34.29" y="68.58" stroke-width="0" id="connector88pin" rx="0.315" fill="#B98C00" width="2.52" height="2.52" ry="0.315" stroke="none"/>
   </g>
   <g  transform="matrix(0, 1, -1, 0, 109.71, 38.61)">
    <rect  x="34.29" y="72.9" stroke-width="0" id="connector89pin" rx="0.315" fill="#B98C00" width="2.52" height="2.52" ry="0.315" stroke="none"/>
   </g>
   <g  transform="matrix(0, -1, 1, 0, -25.11, 123.21)">
    <rect  x="47.79" y="72.9" stroke-width="0" id="connector90pin" rx="0.315" fill="#B98C00" width="2.52" height="2.52" ry="0.315" stroke="none"/>
   </g>
   <g  transform="matrix(0, -1, 1, 0, -20.79, 118.89)">
    <rect  x="47.79" y="68.58" stroke-width="0" id="connector91pin" rx="0.315" fill="#B98C00" width="2.52" height="2.52" ry="0.315" stroke="none"/>
   </g>
   <g  transform="matrix(0, 1, -1, 0, 123.39, 16.29)">
    <rect  x="52.29" y="68.58" stroke-width="0" id="connector92pin" rx="0.315" fill="#B98C00" width="2.52" height="2.52" ry="0.315" stroke="none"/>
   </g>
   <g  transform="matrix(0, 1, -1, 0, 127.71, 20.61)">
    <rect  x="52.29" y="72.9" stroke-width="0" id="connector93pin" rx="0.315" fill="#B98C00" width="2.52" height="2.52" ry="0.315" stroke="none"/>
   </g>
   <g  transform="matrix(0, -1, 1, 0, -39.96, 84.06)">
    <rect  x="20.79" y="60.75" stroke-width="0" id="connector94pin" rx="0.315" fill="#B98C00" width="2.52" height="2.52" ry="0.315" stroke="none"/>
   </g>
   <g  transform="matrix(0, -1, 1, 0, -35.64, 79.74)">
    <rect  x="20.79" y="56.43" stroke-width="0" id="connector95pin" rx="0.315" fill="#B98C00" width="2.52" height="2.52" ry="0.315" stroke="none"/>
   </g>
   <g  transform="matrix(0, 1, -1, 0, 91.89, 23.49)">
    <rect  x="32.94" y="56.43" stroke-width="0" id="connector96pin" rx="0.315" fill="#B98C00" width="2.52" height="2.52" ry="0.315" stroke="none"/>
   </g>
   <g  transform="matrix(0, 1, -1, 0, 96.21, 27.81)">
    <rect  x="32.94" y="60.75" stroke-width="0" id="connector97pin" rx="0.315" fill="#B98C00" width="2.52" height="2.52" ry="0.315" stroke="none"/>
   </g>
   <g  transform="matrix(0, 1, -1, 0, 96.39, 18.99)">
    <rect  x="37.44" y="56.43" stroke-width="0" id="connector98pin" rx="0.315" fill="#B98C00" width="2.52" height="2.52" ry="0.315" stroke="none"/>
   </g>
   <g  transform="matrix(0, 1, -1, 0, 100.71, 23.31)">
    <rect  x="37.44" y="60.75" stroke-width="0" id="connector99pin" rx="0.315" fill="#B98C00" width="2.52" height="2.52" ry="0.315" stroke="none"/>
   </g>
   <g  transform="matrix(0, -1, 1, 0, -18.81, 105.21)">
    <rect  x="41.94" y="60.75" stroke-width="0" id="connector100pin" rx="0.315" fill="#B98C00" width="2.52" height="2.52" ry="0.315" stroke="none"/>
   </g>
   <g  transform="matrix(0, -1, 1, 0, -14.49, 100.89)">
    <rect  x="41.94" y="56.43" stroke-width="0" id="connector101pin" rx="0.315" fill="#B98C00" width="2.52" height="2.52" ry="0.315" stroke="none"/>
   </g>
   <g  transform="matrix(0, 1, -1, 0, 109.44, 5.94)">
    <rect  x="50.49" y="56.43" stroke-width="0" id="connector102pin" rx="0.315" fill="#B98C00" width="2.52" height="2.52" ry="0.315" stroke="none"/>
   </g>
   <g  transform="matrix(0, 1, -1, 0, 113.76, 10.26)">
    <rect  x="50.49" y="60.75" stroke-width="0" id="connector103pin" rx="0.315" fill="#B98C00" width="2.52" height="2.52" ry="0.315" stroke="none"/>
   </g>
   <rect  x="54.54" y="46.35" stroke-width="0" id="connector104pin" rx="0.45" fill="#B98C00" width="1.8" height="1.8" ry="0.45" stroke="none"/>
   <rect  x="57.06" y="46.35" stroke-width="0" id="connector105pin" rx="0.45" fill="#B98C00" width="1.8" height="1.8" ry="0.45" stroke="none"/>
   <g  transform="matrix(-1, 0, 0, -1, 44.82, 83.7)">
    <rect  x="21.51" y="40.95" stroke-width="0" id="connector106pin" rx="0.45" fill="#B98C00" width="1.8" height="1.8" ry="0.45" stroke="none"/>
   </g>
   <g  transform="matrix(-1, 0, 0, -1, 39.78, 83.7)">
    <rect  x="18.99" y="40.95" stroke-width="0" id="connector107pin" rx="0.45" fill="#B98C00" width="1.8" height="1.8" ry="0.45" stroke="none"/>
   </g>
   <rect  x="44.19" y="41.85" stroke-width="0" id="connector108pin" rx="0.45" fill="#B98C00" width="1.8" height="1.8" ry="0.45" stroke="none"/>
   <rect  x="46.71" y="41.85" stroke-width="0" id="connector109pin" rx="0.45" fill="#B98C00" width="1.8" height="1.8" ry="0.45" stroke="none"/>
   <g  transform="matrix(-1, 0, 0, -1, 115.92, 85.5)">
    <rect  x="57.06" y="41.85" stroke-width="0" id="connector110pin" rx="0.45" fill="#B98C00" width="1.8" height="1.8" ry="0.45" stroke="none"/>
   </g>
   <g  transform="matrix(-1, 0, 0, -1, 110.88, 85.5)">
    <rect  x="54.54" y="41.85" stroke-width="0" id="connector111pin" rx="0.45" fill="#B98C00" width="1.8" height="1.8" ry="0.45" stroke="none"/>
   </g>
   <rect  x="54.54" y="14.85" stroke-width="0" id="connector112pin" rx="0.45" fill="#B98C00" width="1.8" height="1.8" ry="0.45" stroke="none"/>
   <rect  x="57.06" y="14.85" stroke-width="0" id="connector113pin" rx="0.45" fill="#B98C00" width="1.8" height="1.8" ry="0.45" stroke="none"/>
   <g  transform="matrix(-1, 0, 0, -1, 57.42, 25.2)">
    <rect  x="27.81" y="11.7" stroke-width="0" id="connector114pin" rx="0.45" fill="#B98C00" width="1.8" height="1.8" ry="0.45" stroke="none"/>
   </g>
   <g  transform="matrix(-1, 0, 0, -1, 52.38, 25.2)">
    <rect  x="25.29" y="11.7" stroke-width="0" id="connector115pin" rx="0.45" fill="#B98C00" width="1.8" height="1.8" ry="0.45" stroke="none"/>
   </g>
   <g  transform="matrix(0, 1, -1, 0, 63.574, -25.5473)">
    <rect  x="43.4268" y="18.61" stroke-width="0" id="connector116pin" fill="#B98C00" width="2.26772" height="0.806738" stroke="none"/>
   </g>
   <g  transform="matrix(0, 1, -1, 0, 62.1567, -24.1299)">
    <rect  x="42.0095" y="18.61" stroke-width="0" id="connector117pin" fill="#B98C00" width="2.26772" height="0.806738" stroke="none"/>
   </g>
   <g  transform="matrix(0, 1, -1, 0, 60.7393, -22.7126)">
    <rect  x="40.5922" y="18.61" stroke-width="0" id="connector118pin" fill="#B98C00" width="2.26772" height="0.806738" stroke="none"/>
   </g>
   <g  transform="matrix(0, 1, -1, 0, 59.322, -21.2953)">
    <rect  x="39.1748" y="18.61" stroke-width="0" id="connector119pin" fill="#B98C00" width="2.26772" height="0.806738" stroke="none"/>
   </g>
   <g  transform="matrix(0, 1, -1, 0, 57.9047, -19.878)">
    <rect  x="37.7574" y="18.61" stroke-width="0" id="connector120pin" fill="#B98C00" width="2.26772" height="0.806738" stroke="none"/>
   </g>
   <g  transform="matrix(0, 1, -1, 0, 56.4874, -18.4607)">
    <rect  x="36.3401" y="18.61" stroke-width="0" id="connector121pin" fill="#B98C00" width="2.26772" height="0.806738" stroke="none"/>
   </g>
   <g  transform="matrix(0, 1, -1, 0, 55.0701, -17.0433)">
    <rect  x="34.9228" y="18.61" stroke-width="0" id="connector122pin" fill="#B98C00" width="2.26772" height="0.806738" stroke="none"/>
   </g>
   <g  transform="matrix(0, 1, -1, 0, 53.6527, -15.626)">
    <rect  x="33.5055" y="18.61" stroke-width="0" id="connector123pin" fill="#B98C00" width="2.26772" height="0.806738" stroke="none"/>
   </g>
   <rect  x="31.3795" y="20.736" stroke-width="0" id="connector124pin" fill="#B98C00" width="2.26772" height="0.806738" stroke="none"/>
   <rect  x="31.3795" y="22.1533" stroke-width="0" id="connector125pin" fill="#B98C00" width="2.26772" height="0.806738" stroke="none"/>
   <rect  x="31.3795" y="23.5706" stroke-width="0" id="connector126pin" fill="#B98C00" width="2.26772" height="0.806738" stroke="none"/>
   <rect  x="31.3795" y="24.988" stroke-width="0" id="connector127pin" fill="#B98C00" width="2.26772" height="0.806738" stroke="none"/>
   <rect  x="31.3795" y="26.4053" stroke-width="0" id="connector128pin" fill="#B98C00" width="2.26772" height="0.806738" stroke="none"/>
   <rect  x="31.3795" y="27.8226" stroke-width="0" id="connector129pin" fill="#B98C00" width="2.26772" height="0.806738" stroke="none"/>
   <rect  x="31.3795" y="29.2399" stroke-width="0" id="connector130pin" fill="#B98C00" width="2.26772" height="0.806738" stroke="none"/>
   <rect  x="31.3795" y="30.6572" stroke-width="0" id="connector131pin" fill="#B98C00" width="2.26772" height="0.806738" stroke="none"/>
   <g  transform="matrix(0, -1, 1, 0, 1.45276, 67.826)">
    <rect  x="33.5055" y="32.7833" stroke-width="0" id="connector132pin" fill="#B98C00" width="2.26772" height="0.806738" stroke="none"/>
   </g>
   <g  transform="matrix(0, -1, 1, 0, 2.87008, 69.2433)">
    <rect  x="34.9228" y="32.7833" stroke-width="0" id="connector133pin" fill="#B98C00" width="2.26772" height="0.806738" stroke="none"/>
   </g>
   <g  transform="matrix(0, -1, 1, 0, 4.2874, 70.6607)">
    <rect  x="36.3401" y="32.7833" stroke-width="0" id="connector134pin" fill="#B98C00" width="2.26772" height="0.806738" stroke="none"/>
   </g>
   <g  transform="matrix(0, -1, 1, 0, 5.70473, 72.0778)">
    <rect  x="37.7574" y="32.7833" stroke-width="0" id="connector135pin" fill="#B98C00" width="2.26772" height="0.806738" stroke="none"/>
   </g>
   <g  transform="matrix(0, -1, 1, 0, 7.12205, 73.4954)">
    <rect  x="39.1748" y="32.7833" stroke-width="0" id="connector136pin" fill="#B98C00" width="2.26772" height="0.806738" stroke="none"/>
   </g>
   <g  transform="matrix(0, -1, 1, 0, 8.53934, 74.9124)">
    <rect  x="40.5922" y="32.7833" stroke-width="0" id="connector137pin" fill="#B98C00" width="2.26772" height="0.806738" stroke="none"/>
   </g>
   <g  transform="matrix(0, -1, 1, 0, 9.95666, 76.3301)">
    <rect  x="42.0095" y="32.7833" stroke-width="0" id="connector138pin" fill="#B98C00" width="2.26772" height="0.806738" stroke="none"/>
   </g>
   <g  transform="matrix(0, -1, 1, 0, 11.374, 77.747)">
    <rect  x="43.4268" y="32.7833" stroke-width="0" id="connector139pin" fill="#B98C00" width="2.26772" height="0.806738" stroke="none"/>
   </g>
   <g  transform="matrix(-1, 0, 0, -1, 93.3732, 62.1212)">
    <rect  x="45.5527" y="30.6572" stroke-width="0" id="connector140pin" fill="#B98C00" width="2.26772" height="0.806738" stroke="none"/>
   </g>
   <g  transform="matrix(-1, 0, 0, -1, 93.3732, 59.2866)">
    <rect  x="45.5527" y="29.2399" stroke-width="0" id="connector141pin" fill="#B98C00" width="2.26772" height="0.806738" stroke="none"/>
   </g>
   <g  transform="matrix(-1, 0, 0, -1, 93.3732, 56.452)">
    <rect  x="45.5527" y="27.8226" stroke-width="0" id="connector142pin" fill="#B98C00" width="2.26772" height="0.806738" stroke="none"/>
   </g>
   <g  transform="matrix(-1, 0, 0, -1, 93.3732, 53.6173)">
    <rect  x="45.5527" y="26.4053" stroke-width="0" id="connector143pin" fill="#B98C00" width="2.26772" height="0.806738" stroke="none"/>
   </g>
   <g  transform="matrix(-1, 0, 0, -1, 93.3732, 50.7827)">
    <rect  x="45.5527" y="24.988" stroke-width="0" id="connector144pin" fill="#B98C00" width="2.26772" height="0.806738" stroke="none"/>
   </g>
   <g  transform="matrix(-1, 0, 0, -1, 93.3732, 47.948)">
    <rect  x="45.5527" y="23.5706" stroke-width="0" id="connector145pin" fill="#B98C00" width="2.26772" height="0.806738" stroke="none"/>
   </g>
   <g  transform="matrix(-1, 0, 0, -1, 93.3732, 45.1134)">
    <rect  x="45.5527" y="22.1533" stroke-width="0" id="connector146pin" fill="#B98C00" width="2.26772" height="0.806738" stroke="none"/>
   </g>
   <g  transform="matrix(-1, 0, 0, -1, 93.3732, 42.2788)">
    <rect  x="45.5527" y="20.736" stroke-width="0" id="connector147pin" fill="#B98C00" width="2.26772" height="0.806738" stroke="none"/>
   </g>
   <g  transform="matrix(0, 1, -1, 0, 65.7, -13.5)">
    <rect  x="35.1354" y="21.6354" stroke-width="0" id="connector148pin" fill="#B98C00" width="8.92915" height="8.92915" stroke="none"/>
   </g>
   <g  transform="matrix(0, -1, 1, 0, -59.796, 87.804)">
    <rect  x="13.464" y="72.18" stroke-width="0" id="connector149pin" fill="#B98C00" width="1.08" height="3.24" stroke="none"/>
   </g>
   <g  transform="matrix(0, -1, 1, 0, -61.596, 89.604)">
    <rect  x="13.464" y="73.98" stroke-width="0" id="connector150pin" fill="#B98C00" width="1.08" height="3.24" stroke="none"/>
   </g>
   <g  transform="matrix(0, -1, 1, 0, -63.396, 91.404)">
    <rect  x="13.464" y="75.78" stroke-width="0" id="connector151pin" fill="#B98C00" width="1.08" height="3.24" stroke="none"/>
   </g>
   <g  transform="matrix(0, -1, 1, 0, -65.196, 93.204)">
    <rect  x="13.464" y="77.58" stroke-width="0" id="connector152pin" fill="#B98C00" width="1.08" height="3.24" stroke="none"/>
   </g>
   <g  transform="matrix(0, -1, 1, 0, -66.996, 95.004)">
    <rect  x="13.464" y="79.38" stroke-width="0" id="connector153pin" fill="#B98C00" width="1.08" height="3.24" stroke="none"/>
   </g>
   <g  transform="matrix(0, -1, 1, 0, -68.796, 96.804)">
    <rect  x="13.464" y="81.18" stroke-width="0" id="connector154pin" fill="#B98C00" width="1.08" height="3.24" stroke="none"/>
   </g>
   <g  transform="matrix(0, -1, 1, 0, -70.596, 98.604)">
    <rect  x="13.464" y="82.98" stroke-width="0" id="connector155pin" fill="#B98C00" width="1.08" height="3.24" stroke="none"/>
   </g>
   <g  transform="matrix(0, -1, 1, 0, -72.396, 100.404)">
    <rect  x="13.464" y="84.78" stroke-width="0" id="connector156pin" fill="#B98C00" width="1.08" height="3.24" stroke="none"/>
   </g>
   <g  transform="matrix(0, -1, 1, 0, -74.196, 102.204)">
    <rect  x="13.464" y="86.58" stroke-width="0" id="connector157pin" fill="#B98C00" width="1.08" height="3.24" stroke="none"/>
   </g>
   <g  transform="matrix(0, -1, 1, 0, -75.996, 104.004)">
    <rect  x="13.464" y="88.38" stroke-width="0" id="connector158pin" fill="#B98C00" width="1.08" height="3.24" stroke="none"/>
   </g>
   <g  transform="matrix(0, 1, -1, 0, 119.196, 60.804)">
    <rect  x="28.656" y="88.38" stroke-width="0" id="connector159pin" fill="#B98C00" width="1.08" height="3.24" stroke="none"/>
   </g>
   <g  transform="matrix(0, 1, -1, 0, 117.396, 59.004)">
    <rect  x="28.656" y="86.58" stroke-width="0" id="connector160pin" fill="#B98C00" width="1.08" height="3.24" stroke="none"/>
   </g>
   <g  transform="matrix(0, 1, -1, 0, 115.596, 57.204)">
    <rect  x="28.656" y="84.78" stroke-width="0" id="connector161pin" fill="#B98C00" width="1.08" height="3.24" stroke="none"/>
   </g>
   <g  transform="matrix(0, 1, -1, 0, 113.796, 55.404)">
    <rect  x="28.656" y="82.98" stroke-width="0" id="connector162pin" fill="#B98C00" width="1.08" height="3.24" stroke="none"/>
   </g>
   <g  transform="matrix(0, 1, -1, 0, 111.996, 53.604)">
    <rect  x="28.656" y="81.18" stroke-width="0" id="connector163pin" fill="#B98C00" width="1.08" height="3.24" stroke="none"/>
   </g>
   <g  transform="matrix(0, 1, -1, 0, 110.196, 51.804)">
    <rect  x="28.656" y="79.38" stroke-width="0" id="connector164pin" fill="#B98C00" width="1.08" height="3.24" stroke="none"/>
   </g>
   <g  transform="matrix(0, 1, -1, 0, 108.396, 50.004)">
    <rect  x="28.656" y="77.58" stroke-width="0" id="connector165pin" fill="#B98C00" width="1.08" height="3.24" stroke="none"/>
   </g>
   <g  transform="matrix(0, 1, -1, 0, 106.596, 48.204)">
    <rect  x="28.656" y="75.78" stroke-width="0" id="connector166pin" fill="#B98C00" width="1.08" height="3.24" stroke="none"/>
   </g>
   <g  transform="matrix(0, 1, -1, 0, 104.796, 46.404)">
    <rect  x="28.656" y="73.98" stroke-width="0" id="connector167pin" fill="#B98C00" width="1.08" height="3.24" stroke="none"/>
   </g>
   <g  transform="matrix(0, 1, -1, 0, 102.996, 44.604)">
    <rect  x="28.656" y="72.18" stroke-width="0" id="connector168pin" fill="#B98C00" width="1.08" height="3.24" stroke="none"/>
   </g>
   <rect  x="38.8276" y="86.5843" stroke-width="0" id="connector169pin" fill="#B98C00" width="1.55905" height="3.40158" stroke="none"/>
   <rect  x="41.5205" y="86.5843" stroke-width="0" id="connector170pin" fill="#B98C00" width="1.55905" height="3.40158" stroke="none"/>
   <rect  x="44.2134" y="86.5843" stroke-width="0" id="connector171pin" fill="#B98C00" width="1.55905" height="3.40158" stroke="none"/>
   <rect  x="44.2134" y="79.2137" stroke-width="0" id="connector172pin" fill="#B98C00" width="1.55905" height="3.40158" stroke="none"/>
   <rect  x="38.8276" y="79.2137" stroke-width="0" id="connector173pin" fill="#B98C00" width="1.55905" height="3.40158" stroke="none"/>
   <rect  x="49.6276" y="86.5843" stroke-width="0" id="connector174pin" fill="#B98C00" width="1.55905" height="3.40158" stroke="none"/>
   <rect  x="52.3205" y="86.5843" stroke-width="0" id="connector175pin" fill="#B98C00" width="1.55905" height="3.40158" stroke="none"/>
   <rect  x="55.0134" y="86.5843" stroke-width="0" id="connector176pin" fill="#B98C00" width="1.55905" height="3.40158" stroke="none"/>
   <rect  x="55.0134" y="79.2137" stroke-width="0" id="connector177pin" fill="#B98C00" width="1.55905" height="3.40158" stroke="none"/>
   <rect  x="49.6276" y="79.2137" stroke-width="0" id="connector178pin" fill="#B98C00" width="1.55905" height="3.40158" stroke="none"/>
   <rect  x="38.6292" y="69.7323" stroke-width="0" id="connector179pin" fill="#B98C00" width="2.8063" height="0.850392" stroke="none"/>
   <rect  x="38.6292" y="71.5748" stroke-width="0" id="connector180pin" fill="#B98C00" width="2.8063" height="0.850392" stroke="none"/>
   <rect  x="38.6292" y="73.4177" stroke-width="0" id="connector181pin" fill="#B98C00" width="2.8063" height="0.850392" stroke="none"/>
   <rect  x="43.1929" y="73.4177" stroke-width="0" id="connector182pin" fill="#B98C00" width="2.8063" height="0.850392" stroke="none"/>
   <rect  x="43.1929" y="71.5748" stroke-width="0" id="connector183pin" fill="#B98C00" width="2.8063" height="0.850392" stroke="none"/>
   <rect  x="43.1929" y="69.7323" stroke-width="0" id="connector184pin" fill="#B98C00" width="2.8063" height="0.850392" stroke="none"/>
   <g  transform="matrix(-1, 0, 0, -1, 54, 37.4599)">
    <rect  x="26.1496" y="15.6118" stroke-width="0" id="connector185pin" fill="#B98C00" width="1.70078" height="6.23622" stroke="none"/>
   </g>
   <g  transform="matrix(-1, 0, 0, -1, 46.8, 37.4599)">
    <rect  x="22.5496" y="15.6118" stroke-width="0" id="connector186pin" fill="#B98C00" width="1.70078" height="6.23622" stroke="none"/>
   </g>
   <g  transform="matrix(-1, 0, 0, -1, 39.6, 37.4599)">
    <rect  x="18.9496" y="15.6118" stroke-width="0" id="connector187pin" fill="#B98C00" width="1.70078" height="6.23622" stroke="none"/>
   </g>
   <g  transform="matrix(-1, 0, 0, -1, 32.4, 37.4599)">
    <rect  x="15.3496" y="15.6118" stroke-width="0" id="connector188pin" fill="#B98C00" width="1.70078" height="6.23622" stroke="none"/>
   </g>
   <g  transform="matrix(-1, 0, 0, -1, 32.4, 66.9401)">
    <rect  x="15.3496" y="30.352" stroke-width="0" id="connector189pin" fill="#B98C00" width="1.70078" height="6.23622" stroke="none"/>
   </g>
   <g  transform="matrix(-1, 0, 0, -1, 39.6, 66.9401)">
    <rect  x="18.9496" y="30.352" stroke-width="0" id="connector190pin" fill="#B98C00" width="1.70078" height="6.23622" stroke="none"/>
   </g>
   <g  transform="matrix(-1, 0, 0, -1, 46.8, 66.9401)">
    <rect  x="22.5496" y="30.352" stroke-width="0" id="connector191pin" fill="#B98C00" width="1.70078" height="6.23622" stroke="none"/>
   </g>
   <g  transform="matrix(-1, 0, 0, -1, 54, 66.9401)">
    <rect  x="26.1496" y="30.352" stroke-width="0" id="connector192pin" fill="#B98C00" width="1.70078" height="6.23622" stroke="none"/>
   </g>
   <g  transform="matrix(-1, 0, 0, -1, 37.6299, 216.518)">
    <rect  x="18.248" y="106.132" stroke-width="0" id="connector193pin" rx="0.283465" fill="#B98C00" width="1.13386" height="4.25197" ry="0.283465" stroke="none"/>
   </g>
   <g  transform="matrix(-1, 0, 0, -1, 41.315, 216.518)">
    <rect  x="20.0905" y="106.132" stroke-width="0" id="connector194pin" rx="0.283465" fill="#B98C00" width="1.13386" height="4.25197" ry="0.283465" stroke="none"/>
   </g>
   <g  transform="matrix(-1, 0, 0, -1, 45, 216.518)">
    <rect  x="21.9331" y="106.132" stroke-width="0" id="connector195pin" rx="0.283465" fill="#B98C00" width="1.13386" height="4.25197" ry="0.283465" stroke="none"/>
   </g>
   <g  transform="matrix(-1, 0, 0, -1, 48.685, 216.518)">
    <rect  x="23.7756" y="106.132" stroke-width="0" id="connector196pin" rx="0.283465" fill="#B98C00" width="1.13386" height="4.25197" ry="0.283465" stroke="none"/>
   </g>
   <g  transform="matrix(-1, 0, 0, -1, 52.3701, 216.518)">
    <rect  x="25.6181" y="106.132" stroke-width="0" id="connector197pin" rx="0.283465" fill="#B98C00" width="1.13386" height="4.25197" ry="0.283465" stroke="none"/>
   </g>
   <g  transform="matrix(0, -1, 1, 0, -95.8982, 121.622)">
    <rect  x="10.878" y="106.492" stroke-width="0" id="connector198pin" rx="0.992124" fill="#B98C00" width="3.9685" height="4.53543" ry="0.992124" stroke="none"/>
   </g>
   <path  stroke-width="0" fill="#B98C00" d="m12.0657,112.648,2.16,0,0,4.968,-2.16,0,0,-4.968M12.0657,115.132a1.08,1.08,0,1,0,2.16,0,1.08,1.08,0,1,0,-2.16,0z" stroke="none"/>
   <rect  x="16.4055" y="112.44" stroke-width="0" id="" rx="1.34646" fill="#B98C00" width="5.38583" height="5.38583" ry="1.34646" stroke="none"/>
   <rect  x="23.2087" y="112.44" stroke-width="0" id="" rx="1.34646" fill="#B98C00" width="5.38583" height="5.38583" ry="1.34646" stroke="none"/>
   <path  stroke-width="0" fill="#B98C00" d="m30.7743,112.648,2.16,0,0,4.968,-2.16,0,0,-4.968M30.7743,115.132a1.08,1.08,0,1,0,2.16,0,1.08,1.08,0,1,0,-2.16,0z" stroke="none"/>
   <g  transform="matrix(0, -1, 1, 0, -76.6224, 140.898)">
    <rect  x="30.1535" y="106.492" stroke-width="0" id="connector203pin" rx="0.992124" fill="#B98C00" width="3.9685" height="4.53543" ry="0.992124" stroke="none"/>
   </g>
   <g  transform="matrix(0, 1, -1, 0, 74.97, -29.97)">
    <rect  x="50.85" y="21.24" stroke-width="0" id="connector204pin" rx="0.63" fill="#B98C00" width="3.24" height="2.52" ry="0.63" stroke="none"/>
   </g>
   <g  transform="matrix(0, 1, -1, 0, 82.17, -22.77)">
    <rect  x="50.85" y="28.44" stroke-width="0" id="connector205pin" rx="0.63" fill="#B98C00" width="3.24" height="2.52" ry="0.63" stroke="none"/>
   </g>
   <g  transform="matrix(0, 1, -1, 0, 87.93, -28.53)">
    <rect  x="56.61" y="28.44" stroke-width="0" id="connector206pin" rx="0.63" fill="#B98C00" width="3.24" height="2.52" ry="0.63" stroke="none"/>
   </g>
   <g  transform="matrix(0, 1, -1, 0, 80.73, -35.73)">
    <rect  x="56.61" y="21.24" stroke-width="0" id="connector207pin" rx="0.63" fill="#B98C00" width="3.24" height="2.52" ry="0.63" stroke="none"/>
   </g>
   
   	<g id="centered" transform="translate(0 0)">
		<g id="labels1" fill="none" stroke="#EEEEEE" stroke-width="0.1" stroke-linecap="round">
			<g id="left-labels" transform="translate(2 -7) rotate(-90 0 0) translate(0 6.7)">
				<g>
					<text y="2.448" x="-39.448" font-size="5">3V3</text>
					<text y="2.448" x="-48.448" font-size="5">RES</text>
					<text y="2.448" x="-54.448" font-size="5">A0</text>
					<text y="2.448" x="-61.448" font-size="5">EN</text>
					<text y="2.448" x="-70.448" font-size="5">3V3</text>
					<text y="2.448" x="-76.448" font-size="5">14</text>
					<text y="2.448" x="-82.448" font-size="5">12</text>
					<text y="2.448" x="-89.448" font-size="5">VB</text>
					<text y="2.448" x="-96.448" font-size="5">13</text>
					<text y="2.448" x="-103.448" font-size="5">09</text>
					<text y="2.448" x="-110.448" font-size="5">10</text>
					<text y="2.448" x="-116.448" font-size="5">11</text>
					<text y="2.448" x="-125.448" font-size="5">VIN</text>
				</g>
			</g>
			<g id="right-labels" transform="translate(56 -7) rotate(-90 0 0) translate(0 7.7)">
				<g>
					<text y="2.448" x="-40.448" font-size="5">GND</text>
					<text y="2.448" x="-46.448" font-size="5">TX</text>
					<text y="2.448" x="-52.448" font-size="5">RX</text>
					<text y="2.448" x="-58.448" font-size="5">05</text>
					<text y="2.448" x="-69.448" font-size="5">GND</text>
					<text y="2.448" x="-76.448" font-size="5">16</text>
					<text y="2.448" x="-82.448" font-size="5">04</text>
					<text y="2.448" x="-89.448" font-size="5">00</text>
					<text y="2.448" x="-96.448" font-size="5">02</text>
					<text y="2.448" x="-103.448" font-size="5">15</text>
					<text y="2.448" x="-110.448" font-size="5">08</text>
					<text y="2.448" x="-117.448" font-size="5">07</text>
					<text y="2.448" x="-124.448" font-size="5">06</text>
				</g>
			</g>
			<g id="mid-labels" transform="translate(42 99) rotate(-90 0 0) translate(0 7.7)">
				<g>
					<text y="2.448" x="1.448" font-size="5">VBATT</text>
					<text y="9.448" x="1.448" font-size="5">GND</text>
				</g>
			</g>
			<g id="lbl-labels" transform="translate(11 15) rotate(0 0 0) translate(0 7.7)">
				<g>
					<text y="7.448" x="1.448" font-size="12">NodeWiFi</text>
					<text y="17.448" x="1.448" font-size="8">ayarafun.com</text>
					<text y="27.448" x="1.448" font-size="8">lamloei.com</text>
				</g>
			</g>
		</g>
	</g>

  </g>
 </g>
</svg>
