<?xml version='1.0' encoding='UTF-8' standalone='no'?>
<!-- Created with Fritzing (http://www.fritzing.org/) -->
<svg xmlns="http://www.w3.org/2000/svg"  x="0in" y="0in" baseProfile="tiny" viewBox="0 0 86.4 129.6" width="1.2in" height="1.8in" version="1.2">
 <desc >Fritzing schematic generated by brd2svg</desc>
 <g  id="schematic">
  <rect  x="14.4" y="14.4" stroke-linejoin="round" stroke-width="0.9" fill="none" stroke-linecap="round" width="57.15" height="100.8" stroke="#000000"/>
  <text  x="43.2" y="61.3" id="label" text-anchor="middle" font-size="3.5" fill="#000000" font-family="'Droid Sans'" stroke="none">nodewifi</text>
  <line  stroke-linejoin="round" stroke-width="0.699998" x2="14.4" x1="0.349999" y1="36" fill="none" stroke-linecap="round" y2="36" stroke="#787878"/>
  <rect  x="0" y="35.65" stroke-width="0" id="connector46pin" fill="none" connectorName="A0" width="14.4" height="0.699998"/>
  <rect  x="0" y="35.65" stroke-width="0" id="connector46terminal" fill="none" width="0" height="0.699998"/>
  <text  x="15.8" y="36.7" id="label46" text-anchor="start" font-size="3.5" fill="#8c8c8c" font-family="'Droid Sans'" stroke="none">A0</text>
  <line  stroke-linejoin="round" stroke-width="0.699998" x2="14.4" x1="0.349999" y1="43.2" fill="none" stroke-linecap="round" y2="43.2" stroke="#787878"/>
  <rect  x="0" y="42.85" stroke-width="0" id="connector47pin" fill="none" connectorName="EN" width="14.4" height="0.699998"/>
  <rect  x="0" y="42.85" stroke-width="0" id="connector47terminal" fill="none" width="0" height="0.699998"/>
  <text  x="15.8" y="43.9" id="label47" text-anchor="start" font-size="3.5" fill="#8c8c8c" font-family="'Droid Sans'" stroke="none">EN</text>
  <line  stroke-linejoin="round" stroke-width="0.699998" x2="14.4" x1="0.349999" y1="50.4" fill="none" stroke-linecap="round" y2="50.4" stroke="#787878"/>
  <rect  x="0" y="50.05" stroke-width="0" id="connector64pin" fill="none" connectorName="IO0" width="14.4" height="0.699998"/>
  <rect  x="0" y="50.05" stroke-width="0" id="connector64terminal" fill="none" width="0" height="0.699998"/>
  <text  x="15.8" y="51.1" id="label64" text-anchor="start" font-size="3.5" fill="#8c8c8c" font-family="'Droid Sans'" stroke="none">IO0</text>
  <line  stroke-linejoin="round" stroke-width="0.699998" x2="14.4" x1="0.349999" y1="57.6" fill="none" stroke-linecap="round" y2="57.6" stroke="#787878"/>
  <rect  x="0" y="57.25" stroke-width="0" id="connector54pin" fill="none" connectorName="IO10" width="14.4" height="0.699998"/>
  <rect  x="0" y="57.25" stroke-width="0" id="connector54terminal" fill="none" width="0" height="0.699998"/>
  <text  x="15.8" y="58.3" id="label54" text-anchor="start" font-size="3.5" fill="#8c8c8c" font-family="'Droid Sans'" stroke="none">IO10</text>
  <line  stroke-linejoin="round" stroke-width="0.699998" x2="14.4" x1="0.349999" y1="64.8" fill="none" stroke-linecap="round" y2="64.8" stroke="#787878"/>
  <rect  x="0" y="64.45" stroke-width="0" id="connector55pin" fill="none" connectorName="IO11" width="14.4" height="0.699998"/>
  <rect  x="0" y="64.45" stroke-width="0" id="connector55terminal" fill="none" width="0" height="0.699998"/>
  <text  x="15.8" y="65.5" id="label55" text-anchor="start" font-size="3.5" fill="#8c8c8c" font-family="'Droid Sans'" stroke="none">IO11</text>
  <line  stroke-linejoin="round" stroke-width="0.699998" x2="14.4" x1="0.349999" y1="72" fill="none" stroke-linecap="round" y2="72" stroke="#787878"/>
  <rect  x="0" y="71.65" stroke-width="0" id="connector50pin" fill="none" connectorName="IO12" width="14.4" height="0.699998"/>
  <rect  x="0" y="71.65" stroke-width="0" id="connector50terminal" fill="none" width="0" height="0.699998"/>
  <text  x="15.8" y="72.6998" id="label50" text-anchor="start" font-size="3.5" fill="#8c8c8c" font-family="'Droid Sans'" stroke="none">IO12</text>
  <line  stroke-linejoin="round" stroke-width="0.699998" x2="14.4" x1="0.349999" y1="79.2" fill="none" stroke-linecap="round" y2="79.2" stroke="#787878"/>
  <rect  x="0" y="78.8501" stroke-width="0" id="connector52pin" fill="none" connectorName="IO13" width="14.4" height="0.699998"/>
  <rect  x="0" y="78.8501" stroke-width="0" id="connector52terminal" fill="none" width="0" height="0.699998"/>
  <text  x="15.8" y="79.8998" id="label52" text-anchor="start" font-size="3.5" fill="#8c8c8c" font-family="'Droid Sans'" stroke="none">IO13</text>
  <line  stroke-linejoin="round" stroke-width="0.699998" x2="14.4" x1="0.349999" y1="86.4" fill="none" stroke-linecap="round" y2="86.4" stroke="#787878"/>
  <rect  x="0" y="86.0501" stroke-width="0" id="connector49pin" fill="none" connectorName="IO14" width="14.4" height="0.699998"/>
  <rect  x="0" y="86.0501" stroke-width="0" id="connector49terminal" fill="none" width="0" height="0.699998"/>
  <text  x="15.8" y="87.0998" id="label49" text-anchor="start" font-size="3.5" fill="#8c8c8c" font-family="'Droid Sans'" stroke="none">IO14</text>
  <line  stroke-linejoin="round" stroke-width="0.699998" x2="14.4" x1="0.349999" y1="93.6" fill="none" stroke-linecap="round" y2="93.6" stroke="#787878"/>
  <rect  x="0" y="93.2501" stroke-width="0" id="connector66pin" fill="none" connectorName="IO15" width="14.4" height="0.699998"/>
  <rect  x="0" y="93.2501" stroke-width="0" id="connector66terminal" fill="none" width="0" height="0.699998"/>
  <text  x="15.8" y="94.2998" id="label66" text-anchor="start" font-size="3.5" fill="#8c8c8c" font-family="'Droid Sans'" stroke="none">IO15</text>
  <line  stroke-linejoin="round" stroke-width="0.699998" x2="14.4" x1="0.349999" y1="100.8" fill="none" stroke-linecap="round" y2="100.8" stroke="#787878"/>
  <rect  x="0" y="100.45" stroke-width="0" id="connector62pin" fill="none" connectorName="IO16" width="14.4" height="0.699998"/>
  <rect  x="0" y="100.45" stroke-width="0" id="connector62terminal" fill="none" width="0" height="0.699998"/>
  <text  x="15.8" y="101.5" id="label62" text-anchor="start" font-size="3.5" fill="#8c8c8c" font-family="'Droid Sans'" stroke="none">IO16</text>
  <line  stroke-linejoin="round" stroke-width="0.699998" x2="86.0501" x1="71.65" y1="36" fill="none" stroke-linecap="round" y2="36" stroke="#787878"/>
  <rect  x="72" y="35.65" stroke-width="0" id="connector58pin" connectorname="TXD" fill="none" width="14.4" height="0.699998"/>
  <rect  x="86.4" y="35.65" stroke-width="0" id="connector58terminal" fill="none" width="0" height="0.699998"/>
  <text  x="70.6" y="36.7" id="label58" text-anchor="end" font-size="3.5" fill="#8c8c8c" font-family="'Droid Sans'" stroke="none">TXD</text>
  <line  stroke-linejoin="round" stroke-width="0.699998" x2="86.0501" x1="71.65" y1="43.2" fill="none" stroke-linecap="round" y2="43.2" stroke="#787878"/>
  <rect  x="72" y="42.85" stroke-width="0" id="connector59pin" connectorname="RXD" fill="none" width="14.4" height="0.699998"/>
  <rect  x="86.4" y="42.85" stroke-width="0" id="connector59terminal" fill="none" width="0" height="0.699998"/>
  <text  x="70.6" y="43.9" id="label59" text-anchor="end" font-size="3.5" fill="#8c8c8c" font-family="'Droid Sans'" stroke="none">RXD</text>
  <line  stroke-linejoin="round" stroke-width="0.699998" x2="86.0501" x1="71.65" y1="50.4" fill="none" stroke-linecap="round" y2="50.4" stroke="#787878"/>
  <rect  x="72" y="50.05" stroke-width="0" id="connector45pin" connectorname="RESET" fill="none" width="14.4" height="0.699998"/>
  <rect  x="86.4" y="50.05" stroke-width="0" id="connector45terminal" fill="none" width="0" height="0.699998"/>
  <text  x="70.6" y="51.1" id="label45" text-anchor="end" font-size="3.5" fill="#8c8c8c" font-family="'Droid Sans'" stroke="none">RESET</text>
  <line  stroke-linejoin="round" stroke-width="0.699998" x2="86.0501" x1="71.65" y1="57.6" fill="none" stroke-linecap="round" y2="57.6" stroke="#787878"/>
  <rect  x="72" y="57.25" stroke-width="0" id="connector53pin" connectorname="IO9" fill="none" width="14.4" height="0.699998"/>
  <rect  x="86.4" y="57.25" stroke-width="0" id="connector53terminal" fill="none" width="0" height="0.699998"/>
  <text  x="70.6" y="58.3" id="label53" text-anchor="end" font-size="3.5" fill="#8c8c8c" font-family="'Droid Sans'" stroke="none">IO9</text>
  <line  stroke-linejoin="round" stroke-width="0.699998" x2="86.0501" x1="71.65" y1="64.8" fill="none" stroke-linecap="round" y2="64.8" stroke="#787878"/>
  <rect  x="72" y="64.45" stroke-width="0" id="connector67pin" connectorname="IO8" fill="none" width="14.4" height="0.699998"/>
  <rect  x="86.4" y="64.45" stroke-width="0" id="connector67terminal" fill="none" width="0" height="0.699998"/>
  <text  x="70.6" y="65.5" id="label67" text-anchor="end" font-size="3.5" fill="#8c8c8c" font-family="'Droid Sans'" stroke="none">IO8</text>
  <line  stroke-linejoin="round" stroke-width="0.699998" x2="86.0501" x1="71.65" y1="72" fill="none" stroke-linecap="round" y2="72" stroke="#787878"/>
  <rect  x="72" y="71.65" stroke-width="0" id="connector68pin" connectorname="IO7" fill="none" width="14.4" height="0.699998"/>
  <rect  x="86.4" y="71.65" stroke-width="0" id="connector68terminal" fill="none" width="0" height="0.699998"/>
  <text  x="70.6" y="72.6998" id="label68" text-anchor="end" font-size="3.5" fill="#8c8c8c" font-family="'Droid Sans'" stroke="none">IO7</text>
  <line  stroke-linejoin="round" stroke-width="0.699998" x2="86.0501" x1="71.65" y1="79.2" fill="none" stroke-linecap="round" y2="79.2" stroke="#787878"/>
  <rect  x="72" y="78.8501" stroke-width="0" id="connector69pin" connectorname="IO6" fill="none" width="14.4" height="0.699998"/>
  <rect  x="86.4" y="78.8501" stroke-width="0" id="connector69terminal" fill="none" width="0" height="0.699998"/>
  <text  x="70.6" y="79.8998" id="label69" text-anchor="end" font-size="3.5" fill="#8c8c8c" font-family="'Droid Sans'" stroke="none">IO6</text>
  <line  stroke-linejoin="round" stroke-width="0.699998" x2="86.0501" x1="71.65" y1="86.4" fill="none" stroke-linecap="round" y2="86.4" stroke="#787878"/>
  <rect  x="72" y="86.0501" stroke-width="0" id="connector60pin" connectorname="IO5" fill="none" width="14.4" height="0.699998"/>
  <rect  x="86.4" y="86.0501" stroke-width="0" id="connector60terminal" fill="none" width="0" height="0.699998"/>
  <text  x="70.6" y="87.0998" id="label60" text-anchor="end" font-size="3.5" fill="#8c8c8c" font-family="'Droid Sans'" stroke="none">IO5</text>
  <line  stroke-linejoin="round" stroke-width="0.699998" x2="86.0501" x1="71.65" y1="93.6" fill="none" stroke-linecap="round" y2="93.6" stroke="#787878"/>
  <rect  x="72" y="93.2501" stroke-width="0" id="connector63pin" connectorname="IO4" fill="none" width="14.4" height="0.699998"/>
  <rect  x="86.4" y="93.2501" stroke-width="0" id="connector63terminal" fill="none" width="0" height="0.699998"/>
  <text  x="70.6" y="94.2998" id="label63" text-anchor="end" font-size="3.5" fill="#8c8c8c" font-family="'Droid Sans'" stroke="none">IO4</text>
  <line  stroke-linejoin="round" stroke-width="0.699998" x2="86.0501" x1="71.65" y1="100.8" fill="none" stroke-linecap="round" y2="100.8" stroke="#787878"/>
  <rect  x="72" y="100.45" stroke-width="0" id="connector65pin" connectorname="IO2" fill="none" width="14.4" height="0.699998"/>
  <rect  x="86.4" y="100.45" stroke-width="0" id="connector65terminal" fill="none" width="0" height="0.699998"/>
  <text  x="70.6" y="101.5" id="label65" text-anchor="end" font-size="3.5" fill="#8c8c8c" font-family="'Droid Sans'" stroke="none">IO2</text>
  <line  stroke-linejoin="round" stroke-width="0.699998" x2="28.8" x1="28.8" y1="0.349999" fill="none" stroke-linecap="round" y2="14.4" stroke="#787878"/>
  <rect  x="28.45" y="0" stroke-width="0" id="connector36pin" connectorname="V_BATT" fill="none" width="0.699998" height="14.4"/>
  <rect  x="28.45" y="0" stroke-width="0" id="connector36terminal" fill="none" width="0.699998" height="0"/>
  <g  transform="matrix(1, 0, 0, 1, 30.2, 16)">
   <g  transform="rotate(270)">
    <text  x="0" y="0" id="label36" text-anchor="end" font-size="3.5" fill="#8c8c8c" font-family="'Droid Sans'" stroke="none">V_BATT</text>
   </g>
  </g>
  <line  stroke-linejoin="round" stroke-width="0.699998" x2="36" x1="36" y1="0.349999" fill="none" stroke-linecap="round" y2="14.4" stroke="#787878"/>
  <rect  x="35.65" y="0" stroke-width="0" id="connector44pin" connectorname="3.3V" fill="none" width="0.699998" height="14.4"/>
  <rect  x="35.65" y="0" stroke-width="0" id="connector44terminal" fill="none" width="0.699998" height="0"/>
  <g  transform="matrix(1, 0, 0, 1, 37.4, 16)">
   <g  transform="rotate(270)">
    <text  x="0" y="0" id="label44" text-anchor="end" font-size="3.5" fill="#8c8c8c" font-family="'Droid Sans'" stroke="none">3.3V</text>
   </g>
  </g>
  <line  stroke-linejoin="round" stroke-width="0.699998" x2="43.2" x1="43.2" y1="0.349999" fill="none" stroke-linecap="round" y2="14.4" stroke="#787878"/>
  <rect  x="42.85" y="0" stroke-width="0" id="connector56pin" connectorname="VIN" fill="none" width="0.699998" height="14.4"/>
  <rect  x="42.85" y="0" stroke-width="0" id="connector56terminal" fill="none" width="0.699998" height="0"/>
  <g  transform="matrix(1, 0, 0, 1, 44.6, 16)">
   <g  transform="rotate(270)">
    <text  x="0" y="0" id="label56" text-anchor="end" font-size="3.5" fill="#8c8c8c" font-family="'Droid Sans'" stroke="none">VIN</text>
   </g>
  </g>
  <line  stroke-linejoin="round" stroke-width="0.699998" x2="43.2" x1="43.2" y1="115.2" fill="none" stroke-linecap="round" y2="129.25" stroke="#787878"/>
  <rect  x="42.85" y="115.2" stroke-width="0" id="connector37pin" connectorname="GND" fill="none" width="0.699998" height="14.4"/>
  <rect  x="42.85" y="129.6" stroke-width="0" id="connector37terminal" fill="none" width="0.699998" height="0"/>
  <g  transform="matrix(1, 0, 0, 1, 44.6, 113.6)">
   <g  transform="rotate(270)">
    <text  x="0" y="0" id="label37" text-anchor="start" font-size="3.5" fill="#8c8c8c" font-family="'Droid Sans'" stroke="none">GND</text>
   </g>
  </g>
  <rect  x="35.65" y="0" stroke-width="0" id="connector48pin" connectorname="3.3V" fill="none" width="0.699998" height="14.4"/>
  <rect  x="35.65" y="0" stroke-width="0" id="connector48terminal" fill="none" width="0.699998" height="0"/>
  <rect  x="28.45" y="0" stroke-width="0" id="connector51pin" connectorname="V_BATT" fill="none" width="0.699998" height="14.4"/>
  <rect  x="28.45" y="0" stroke-width="0" id="connector51terminal" fill="none" width="0.699998" height="0"/>
  <rect  x="28.45" y="0" stroke-width="0" id="connector70pin" connectorname="V_BATT" fill="none" width="0.699998" height="14.4"/>
  <rect  x="28.45" y="0" stroke-width="0" id="connector70terminal" fill="none" width="0.699998" height="0"/>
  <rect  x="42.85" y="115.2" stroke-width="0" id="connector57pin" connectorname="GND" fill="none" width="0.699998" height="14.4"/>
  <rect  x="42.85" y="129.6" stroke-width="0" id="connector57terminal" fill="none" width="0.699998" height="0"/>
  <rect  x="42.85" y="115.2" stroke-width="0" id="connector61pin" connectorname="GND" fill="none" width="0.699998" height="14.4"/>
  <rect  x="42.85" y="129.6" stroke-width="0" id="connector61terminal" fill="none" width="0.699998" height="0"/>
  <rect  x="42.85" y="115.2" stroke-width="0" id="connector71pin" connectorname="GND" fill="none" width="0.699998" height="14.4"/>
  <rect  x="42.85" y="129.6" stroke-width="0" id="connector71terminal" fill="none" width="0.699998" height="0"/>
  <rect  x="42.85" y="115.2" stroke-width="0" id="connector199pin" connectorname="GND" fill="none" width="0.699998" height="14.4"/>
  <rect  x="42.85" y="129.6" stroke-width="0" id="connector199terminal" fill="none" width="0.699998" height="0"/>
  <rect  x="42.85" y="115.2" stroke-width="0" id="connector202pin" connectorname="GND" fill="none" width="0.699998" height="14.4"/>
  <rect  x="42.85" y="129.6" stroke-width="0" id="connector202terminal" fill="none" width="0.699998" height="0"/>
 </g>
</svg>
