<?xml version='1.0' encoding='UTF-8' standalone='no'?>
<!-- Created with Fritzing (http://www.fritzing.org/) -->
<svg xmlns="http://www.w3.org/2000/svg"  y="0in" version="1.2" height="2.5in" baseProfile="tiny" width="1.3in" viewBox="0 0 93.6 180" x="0in">
 <desc >Fritzing schematic generated by brd2svg</desc>
 <g  id="schematic">
  <rect  y="14.4" height="151.2" stroke-linecap="round" fill="none" width="64.35" stroke-linejoin="round" stroke-width="0.9" x="14.4" stroke="#000000"/>
  <text  y="82.9001" font-size="3.5" id="label" font-family="'Droid Sans'" fill="#000000" x="46.8" stroke="none" text-anchor="middle">node32s</text>
  <line  stroke-linecap="round" y1="36" fill="none" stroke-linejoin="round" x1="0.349999" y2="36" stroke-width="0.699998" x2="14.4" stroke="#787878"/>
  <rect  y="35.65" height="0.699998" id="connector29pin" fill="none" width="14.4" stroke-width="0" x="0" connectorName="CHIP_PU"/>
  <rect  y="35.65" height="0.699998" id="connector29terminal" fill="none" width="0" stroke-width="0" x="0"/>
  <text  y="36.7" font-size="3.5" id="label29" font-family="'Droid Sans'" fill="#8c8c8c" x="15.8" stroke="none" text-anchor="start">CHIP_PU</text>
  <line  stroke-linecap="round" y1="43.2" fill="none" stroke-linejoin="round" x1="0.349999" y2="43.2" stroke-width="0.699998" x2="14.4" stroke="#787878"/>
  <rect  y="42.85" height="0.699998" id="connector60pin" fill="none" width="14.4" stroke-width="0" x="0" connectorName="IO0"/>
  <rect  y="42.85" height="0.699998" id="connector60terminal" fill="none" width="0" stroke-width="0" x="0"/>
  <text  y="43.9" font-size="3.5" id="label60" font-family="'Droid Sans'" fill="#8c8c8c" x="15.8" stroke="none" text-anchor="start">IO0</text>
  <line  stroke-linecap="round" y1="50.4" fill="none" stroke-linejoin="round" x1="0.349999" y2="50.4" stroke-width="0.699998" x2="14.4" stroke="#787878"/>
  <rect  y="50.05" height="0.699998" id="connector44pin" fill="none" width="14.4" stroke-width="0" x="0" connectorName="IO10"/>
  <rect  y="50.05" height="0.699998" id="connector44terminal" fill="none" width="0" stroke-width="0" x="0"/>
  <text  y="51.1" font-size="3.5" id="label44" font-family="'Droid Sans'" fill="#8c8c8c" x="15.8" stroke="none" text-anchor="start">IO10</text>
  <line  stroke-linecap="round" y1="57.6" fill="none" stroke-linejoin="round" x1="0.349999" y2="57.6" stroke-width="0.699998" x2="14.4" stroke="#787878"/>
  <rect  y="57.25" height="0.699998" id="connector45pin" fill="none" width="14.4" stroke-width="0" x="0" connectorName="IO11"/>
  <rect  y="57.25" height="0.699998" id="connector45terminal" fill="none" width="0" stroke-width="0" x="0"/>
  <text  y="58.3" font-size="3.5" id="label45" font-family="'Droid Sans'" fill="#8c8c8c" x="15.8" stroke="none" text-anchor="start">IO11</text>
  <line  stroke-linecap="round" y1="64.8" fill="none" stroke-linejoin="round" x1="0.349999" y2="64.8" stroke-width="0.699998" x2="14.4" stroke="#787878"/>
  <rect  y="64.45" height="0.699998" id="connector40pin" fill="none" width="14.4" stroke-width="0" x="0" connectorName="IO12"/>
  <rect  y="64.45" height="0.699998" id="connector40terminal" fill="none" width="0" stroke-width="0" x="0"/>
  <text  y="65.5" font-size="3.5" id="label40" font-family="'Droid Sans'" fill="#8c8c8c" x="15.8" stroke="none" text-anchor="start">IO12</text>
  <line  stroke-linecap="round" y1="72" fill="none" stroke-linejoin="round" x1="0.349999" y2="72" stroke-width="0.699998" x2="14.4" stroke="#787878"/>
  <rect  y="71.65" height="0.699998" id="connector42pin" fill="none" width="14.4" stroke-width="0" x="0" connectorName="IO13"/>
  <rect  y="71.65" height="0.699998" id="connector42terminal" fill="none" width="0" stroke-width="0" x="0"/>
  <text  y="72.6998" font-size="3.5" id="label42" font-family="'Droid Sans'" fill="#8c8c8c" x="15.8" stroke="none" text-anchor="start">IO13</text>
  <line  stroke-linecap="round" y1="79.2" fill="none" stroke-linejoin="round" x1="0.349999" y2="79.2" stroke-width="0.699998" x2="14.4" stroke="#787878"/>
  <rect  y="78.8501" height="0.699998" id="connector39pin" fill="none" width="14.4" stroke-width="0" x="0" connectorName="IO14"/>
  <rect  y="78.8501" height="0.699998" id="connector39terminal" fill="none" width="0" stroke-width="0" x="0"/>
  <text  y="79.8998" font-size="3.5" id="label39" font-family="'Droid Sans'" fill="#8c8c8c" x="15.8" stroke="none" text-anchor="start">IO14</text>
  <line  stroke-linecap="round" y1="86.4" fill="none" stroke-linejoin="round" x1="0.349999" y2="86.4" stroke-width="0.699998" x2="14.4" stroke="#787878"/>
  <rect  y="86.0501" height="0.699998" id="connector62pin" fill="none" width="14.4" stroke-width="0" x="0" connectorName="IO15"/>
  <rect  y="86.0501" height="0.699998" id="connector62terminal" fill="none" width="0" stroke-width="0" x="0"/>
  <text  y="87.0998" font-size="3.5" id="label62" font-family="'Droid Sans'" fill="#8c8c8c" x="15.8" stroke="none" text-anchor="start">IO15</text>
  <line  stroke-linecap="round" y1="93.6" fill="none" stroke-linejoin="round" x1="0.349999" y2="93.6" stroke-width="0.699998" x2="14.4" stroke="#787878"/>
  <rect  y="93.2501" height="0.699998" id="connector58pin" fill="none" width="14.4" stroke-width="0" x="0" connectorName="IO16"/>
  <rect  y="93.2501" height="0.699998" id="connector58terminal" fill="none" width="0" stroke-width="0" x="0"/>
  <text  y="94.2998" font-size="3.5" id="label58" font-family="'Droid Sans'" fill="#8c8c8c" x="15.8" stroke="none" text-anchor="start">IO16</text>
  <line  stroke-linecap="round" y1="100.8" fill="none" stroke-linejoin="round" x1="0.349999" y2="100.8" stroke-width="0.699998" x2="14.4" stroke="#787878"/>
  <rect  y="100.45" height="0.699998" id="connector57pin" fill="none" width="14.4" stroke-width="0" x="0" connectorName="IO17"/>
  <rect  y="100.45" height="0.699998" id="connector57terminal" fill="none" width="0" stroke-width="0" x="0"/>
  <text  y="101.5" font-size="3.5" id="label57" font-family="'Droid Sans'" fill="#8c8c8c" x="15.8" stroke="none" text-anchor="start">IO17</text>
  <line  stroke-linecap="round" y1="108" fill="none" stroke-linejoin="round" x1="0.349999" y2="108" stroke-width="0.699998" x2="14.4" stroke="#787878"/>
  <rect  y="107.65" height="0.699998" id="connector55pin" fill="none" width="14.4" stroke-width="0" x="0" connectorName="IO18"/>
  <rect  y="107.65" height="0.699998" id="connector55terminal" fill="none" width="0" stroke-width="0" x="0"/>
  <text  y="108.7" font-size="3.5" id="label55" font-family="'Droid Sans'" fill="#8c8c8c" x="15.8" stroke="none" text-anchor="start">IO18</text>
  <line  stroke-linecap="round" y1="115.2" fill="none" stroke-linejoin="round" x1="0.349999" y2="115.2" stroke-width="0.699998" x2="14.4" stroke="#787878"/>
  <rect  y="114.85" height="0.699998" id="connector54pin" fill="none" width="14.4" stroke-width="0" x="0" connectorName="IO19"/>
  <rect  y="114.85" height="0.699998" id="connector54terminal" fill="none" width="0" stroke-width="0" x="0"/>
  <text  y="115.9" font-size="3.5" id="label54" font-family="'Droid Sans'" fill="#8c8c8c" x="15.8" stroke="none" text-anchor="start">IO19</text>
  <line  stroke-linecap="round" y1="122.4" fill="none" stroke-linejoin="round" x1="0.349999" y2="122.4" stroke-width="0.699998" x2="14.4" stroke="#787878"/>
  <rect  y="122.05" height="0.699998" id="connector61pin" fill="none" width="14.4" stroke-width="0" x="0" connectorName="IO2"/>
  <rect  y="122.05" height="0.699998" id="connector61terminal" fill="none" width="0" stroke-width="0" x="0"/>
  <text  y="123.1" font-size="3.5" id="label61" font-family="'Droid Sans'" fill="#8c8c8c" x="15.8" stroke="none" text-anchor="start">IO2</text>
  <line  stroke-linecap="round" y1="129.6" fill="none" stroke-linejoin="round" x1="0.349999" y2="129.6" stroke-width="0.699998" x2="14.4" stroke="#787878"/>
  <rect  y="129.25" height="0.699998" id="connector52pin" fill="none" width="14.4" stroke-width="0" x="0" connectorName="IO21"/>
  <rect  y="129.25" height="0.699998" id="connector52terminal" fill="none" width="0" stroke-width="0" x="0"/>
  <text  y="130.3" font-size="3.5" id="label52" font-family="'Droid Sans'" fill="#8c8c8c" x="15.8" stroke="none" text-anchor="start">IO21</text>
  <line  stroke-linecap="round" y1="136.8" fill="none" stroke-linejoin="round" x1="0.349999" y2="136.8" stroke-width="0.699998" x2="14.4" stroke="#787878"/>
  <rect  y="136.45" height="0.699998" id="connector49pin" fill="none" width="14.4" stroke-width="0" x="0" connectorName="IO22"/>
  <rect  y="136.45" height="0.699998" id="connector49terminal" fill="none" width="0" stroke-width="0" x="0"/>
  <text  y="137.5" font-size="3.5" id="label49" font-family="'Droid Sans'" fill="#8c8c8c" x="15.8" stroke="none" text-anchor="start">IO22</text>
  <line  stroke-linecap="round" y1="144" fill="none" stroke-linejoin="round" x1="0.349999" y2="144" stroke-width="0.699998" x2="14.4" stroke="#787878"/>
  <rect  y="143.65" height="0.699998" id="connector48pin" fill="none" width="14.4" stroke-width="0" x="0" connectorName="IO23"/>
  <rect  y="143.65" height="0.699998" id="connector48terminal" fill="none" width="0" stroke-width="0" x="0"/>
  <text  y="144.7" font-size="3.5" id="label48" font-family="'Droid Sans'" fill="#8c8c8c" x="15.8" stroke="none" text-anchor="start">IO23</text>
  <line  stroke-linecap="round" y1="36" fill="none" stroke-linejoin="round" x1="78.8501" y2="36" stroke-width="0.699998" x2="93.2501" stroke="#787878"/>
  <rect  y="35.65" connectorname="TXD" height="0.699998" id="connector50pin" fill="none" width="14.4" stroke-width="0" x="79.2"/>
  <rect  y="35.65" height="0.699998" id="connector50terminal" fill="none" width="0" stroke-width="0" x="93.6"/>
  <text  y="36.7" font-size="3.5" id="label50" font-family="'Droid Sans'" fill="#8c8c8c" x="77.8003" stroke="none" text-anchor="end">TXD</text>
  <line  stroke-linecap="round" y1="43.2" fill="none" stroke-linejoin="round" x1="78.8501" y2="43.2" stroke-width="0.699998" x2="93.2501" stroke="#787878"/>
  <rect  y="42.85" connectorname="RXD" height="0.699998" id="connector51pin" fill="none" width="14.4" stroke-width="0" x="79.2"/>
  <rect  y="42.85" height="0.699998" id="connector51terminal" fill="none" width="0" stroke-width="0" x="93.6"/>
  <text  y="43.9" font-size="3.5" id="label51" font-family="'Droid Sans'" fill="#8c8c8c" x="77.8003" stroke="none" text-anchor="end">RXD</text>
  <line  stroke-linecap="round" y1="50.4" fill="none" stroke-linejoin="round" x1="78.8501" y2="50.4" stroke-width="0.699998" x2="93.2501" stroke="#787878"/>
  <rect  y="50.05" connectorname="IO9" height="0.699998" id="connector43pin" fill="none" width="14.4" stroke-width="0" x="79.2"/>
  <rect  y="50.05" height="0.699998" id="connector43terminal" fill="none" width="0" stroke-width="0" x="93.6"/>
  <text  y="51.1" font-size="3.5" id="label43" font-family="'Droid Sans'" fill="#8c8c8c" x="77.8003" stroke="none" text-anchor="end">IO9</text>
  <line  stroke-linecap="round" y1="57.6" fill="none" stroke-linejoin="round" x1="78.8501" y2="57.6" stroke-width="0.699998" x2="93.2501" stroke="#787878"/>
  <rect  y="57.25" connectorname="IO8" height="0.699998" id="connector63pin" fill="none" width="14.4" stroke-width="0" x="79.2"/>
  <rect  y="57.25" height="0.699998" id="connector63terminal" fill="none" width="0" stroke-width="0" x="93.6"/>
  <text  y="58.3" font-size="3.5" id="label63" font-family="'Droid Sans'" fill="#8c8c8c" x="77.8003" stroke="none" text-anchor="end">IO8</text>
  <line  stroke-linecap="round" y1="64.8" fill="none" stroke-linejoin="round" x1="78.8501" y2="64.8" stroke-width="0.699998" x2="93.2501" stroke="#787878"/>
  <rect  y="64.45" connectorname="IO7" height="0.699998" id="connector64pin" fill="none" width="14.4" stroke-width="0" x="79.2"/>
  <rect  y="64.45" height="0.699998" id="connector64terminal" fill="none" width="0" stroke-width="0" x="93.6"/>
  <text  y="65.5" font-size="3.5" id="label64" font-family="'Droid Sans'" fill="#8c8c8c" x="77.8003" stroke="none" text-anchor="end">IO7</text>
  <line  stroke-linecap="round" y1="72" fill="none" stroke-linejoin="round" x1="78.8501" y2="72" stroke-width="0.699998" x2="93.2501" stroke="#787878"/>
  <rect  y="71.65" connectorname="IO6" height="0.699998" id="connector65pin" fill="none" width="14.4" stroke-width="0" x="79.2"/>
  <rect  y="71.65" height="0.699998" id="connector65terminal" fill="none" width="0" stroke-width="0" x="93.6"/>
  <text  y="72.6998" font-size="3.5" id="label65" font-family="'Droid Sans'" fill="#8c8c8c" x="77.8003" stroke="none" text-anchor="end">IO6</text>
  <line  stroke-linecap="round" y1="79.2" fill="none" stroke-linejoin="round" x1="78.8501" y2="79.2" stroke-width="0.699998" x2="93.2501" stroke="#787878"/>
  <rect  y="78.8501" connectorname="IO5" height="0.699998" id="connector56pin" fill="none" width="14.4" stroke-width="0" x="79.2"/>
  <rect  y="78.8501" height="0.699998" id="connector56terminal" fill="none" width="0" stroke-width="0" x="93.6"/>
  <text  y="79.8998" font-size="3.5" id="label56" font-family="'Droid Sans'" fill="#8c8c8c" x="77.8003" stroke="none" text-anchor="end">IO5</text>
  <line  stroke-linecap="round" y1="86.4" fill="none" stroke-linejoin="round" x1="78.8501" y2="86.4" stroke-width="0.699998" x2="93.2501" stroke="#787878"/>
  <rect  y="86.0501" connectorname="IO4" height="0.699998" id="connector59pin" fill="none" width="14.4" stroke-width="0" x="79.2"/>
  <rect  y="86.0501" height="0.699998" id="connector59terminal" fill="none" width="0" stroke-width="0" x="93.6"/>
  <text  y="87.0998" font-size="3.5" id="label59" font-family="'Droid Sans'" fill="#8c8c8c" x="77.8003" stroke="none" text-anchor="end">IO4</text>
  <line  stroke-linecap="round" y1="93.6" fill="none" stroke-linejoin="round" x1="78.8501" y2="93.6" stroke-width="0.699998" x2="93.2501" stroke="#787878"/>
  <rect  y="93.2501" connectorname="IO39" height="0.699998" id="connector31pin" fill="none" width="14.4" stroke-width="0" x="79.2"/>
  <rect  y="93.2501" height="0.699998" id="connector31terminal" fill="none" width="0" stroke-width="0" x="93.6"/>
  <text  y="94.2998" font-size="3.5" id="label31" font-family="'Droid Sans'" fill="#8c8c8c" x="77.8003" stroke="none" text-anchor="end">IO39</text>
  <line  stroke-linecap="round" y1="100.8" fill="none" stroke-linejoin="round" x1="78.8501" y2="100.8" stroke-width="0.699998" x2="93.2501" stroke="#787878"/>
  <rect  y="100.45" connectorname="IO36" height="0.699998" id="connector30pin" fill="none" width="14.4" stroke-width="0" x="79.2"/>
  <rect  y="100.45" height="0.699998" id="connector30terminal" fill="none" width="0" stroke-width="0" x="93.6"/>
  <text  y="101.5" font-size="3.5" id="label30" font-family="'Droid Sans'" fill="#8c8c8c" x="77.8003" stroke="none" text-anchor="end">IO36</text>
  <line  stroke-linecap="round" y1="108" fill="none" stroke-linejoin="round" x1="78.8501" y2="108" stroke-width="0.699998" x2="93.2501" stroke="#787878"/>
  <rect  y="107.65" connectorname="IO35" height="0.699998" id="connector33pin" fill="none" width="14.4" stroke-width="0" x="79.2"/>
  <rect  y="107.65" height="0.699998" id="connector33terminal" fill="none" width="0" stroke-width="0" x="93.6"/>
  <text  y="108.7" font-size="3.5" id="label33" font-family="'Droid Sans'" fill="#8c8c8c" x="77.8003" stroke="none" text-anchor="end">IO35</text>
  <line  stroke-linecap="round" y1="115.2" fill="none" stroke-linejoin="round" x1="78.8501" y2="115.2" stroke-width="0.699998" x2="93.2501" stroke="#787878"/>
  <rect  y="114.85" connectorname="IO34" height="0.699998" id="connector32pin" fill="none" width="14.4" stroke-width="0" x="79.2"/>
  <rect  y="114.85" height="0.699998" id="connector32terminal" fill="none" width="0" stroke-width="0" x="93.6"/>
  <text  y="115.9" font-size="3.5" id="label32" font-family="'Droid Sans'" fill="#8c8c8c" x="77.8003" stroke="none" text-anchor="end">IO34</text>
  <line  stroke-linecap="round" y1="122.4" fill="none" stroke-linejoin="round" x1="78.8501" y2="122.4" stroke-width="0.699998" x2="93.2501" stroke="#787878"/>
  <rect  y="122.05" connectorname="IO33" height="0.699998" id="connector35pin" fill="none" width="14.4" stroke-width="0" x="79.2"/>
  <rect  y="122.05" height="0.699998" id="connector35terminal" fill="none" width="0" stroke-width="0" x="93.6"/>
  <text  y="123.1" font-size="3.5" id="label35" font-family="'Droid Sans'" fill="#8c8c8c" x="77.8003" stroke="none" text-anchor="end">IO33</text>
  <line  stroke-linecap="round" y1="129.6" fill="none" stroke-linejoin="round" x1="78.8501" y2="129.6" stroke-width="0.699998" x2="93.2501" stroke="#787878"/>
  <rect  y="129.25" connectorname="IO32" height="0.699998" id="connector34pin" fill="none" width="14.4" stroke-width="0" x="79.2"/>
  <rect  y="129.25" height="0.699998" id="connector34terminal" fill="none" width="0" stroke-width="0" x="93.6"/>
  <text  y="130.3" font-size="3.5" id="label34" font-family="'Droid Sans'" fill="#8c8c8c" x="77.8003" stroke="none" text-anchor="end">IO32</text>
  <line  stroke-linecap="round" y1="136.8" fill="none" stroke-linejoin="round" x1="78.8501" y2="136.8" stroke-width="0.699998" x2="93.2501" stroke="#787878"/>
  <rect  y="136.45" connectorname="IO27" height="0.699998" id="connector38pin" fill="none" width="14.4" stroke-width="0" x="79.2"/>
  <rect  y="136.45" height="0.699998" id="connector38terminal" fill="none" width="0" stroke-width="0" x="93.6"/>
  <text  y="137.5" font-size="3.5" id="label38" font-family="'Droid Sans'" fill="#8c8c8c" x="77.8003" stroke="none" text-anchor="end">IO27</text>
  <line  stroke-linecap="round" y1="144" fill="none" stroke-linejoin="round" x1="78.8501" y2="144" stroke-width="0.699998" x2="93.2501" stroke="#787878"/>
  <rect  y="143.65" connectorname="IO26" height="0.699998" id="connector37pin" fill="none" width="14.4" stroke-width="0" x="79.2"/>
  <rect  y="143.65" height="0.699998" id="connector37terminal" fill="none" width="0" stroke-width="0" x="93.6"/>
  <text  y="144.7" font-size="3.5" id="label37" font-family="'Droid Sans'" fill="#8c8c8c" x="77.8003" stroke="none" text-anchor="end">IO26</text>
  <line  stroke-linecap="round" y1="151.2" fill="none" stroke-linejoin="round" x1="78.8501" y2="151.2" stroke-width="0.699998" x2="93.2501" stroke="#787878"/>
  <rect  y="150.85" connectorname="IO25" height="0.699998" id="connector36pin" fill="none" width="14.4" stroke-width="0" x="79.2"/>
  <rect  y="150.85" height="0.699998" id="connector36terminal" fill="none" width="0" stroke-width="0" x="93.6"/>
  <text  y="151.9" font-size="3.5" id="label36" font-family="'Droid Sans'" fill="#8c8c8c" x="77.8003" stroke="none" text-anchor="end">IO25</text>
  <line  stroke-linecap="round" y1="0.349999" fill="none" stroke-linejoin="round" x1="36" y2="14.4" stroke-width="0.699998" x2="36" stroke="#787878"/>
  <rect  y="0" connectorname="3.3V" height="14.4" id="connector28pin" fill="none" width="0.699998" stroke-width="0" x="35.65"/>
  <rect  y="0" height="0" id="connector28terminal" fill="none" width="0.699998" stroke-width="0" x="35.65"/>
  <g  transform="matrix(1, 0, 0, 1, 37.4, 16)">
   <g  transform="rotate(270)">
    <text  y="0" font-size="3.5" id="label28" font-family="'Droid Sans'" fill="#8c8c8c" x="0" stroke="none" text-anchor="end">3.3V</text>
   </g>
  </g>
  <line  stroke-linecap="round" y1="0.349999" fill="none" stroke-linejoin="round" x1="43.2" y2="14.4" stroke-width="0.699998" x2="43.2" stroke="#787878"/>
  <rect  y="0" connectorname="V_BATT" height="14.4" id="connector41pin" fill="none" width="0.699998" stroke-width="0" x="42.85"/>
  <rect  y="0" height="0" id="connector41terminal" fill="none" width="0.699998" stroke-width="0" x="42.85"/>
  <g  transform="matrix(1, 0, 0, 1, 44.6, 16)">
   <g  transform="rotate(270)">
    <text  y="0" font-size="3.5" id="label41" font-family="'Droid Sans'" fill="#8c8c8c" x="0" stroke="none" text-anchor="end">V_BATT</text>
   </g>
  </g>
  <line  stroke-linecap="round" y1="0.349999" fill="none" stroke-linejoin="round" x1="50.4" y2="14.4" stroke-width="0.699998" x2="50.4" stroke="#787878"/>
  <rect  y="0" connectorname="5V" height="14.4" id="connector46pin" fill="none" width="0.699998" stroke-width="0" x="50.05"/>
  <rect  y="0" height="0" id="connector46terminal" fill="none" width="0.699998" stroke-width="0" x="50.05"/>
  <g  transform="matrix(1, 0, 0, 1, 51.8, 16)">
   <g  transform="rotate(270)">
    <text  y="0" font-size="3.5" id="label46" font-family="'Droid Sans'" fill="#8c8c8c" x="0" stroke="none" text-anchor="end">5V</text>
   </g>
  </g>
  <line  stroke-linecap="round" y1="165.6" fill="none" stroke-linejoin="round" x1="43.2" y2="179.65" stroke-width="0.699998" x2="43.2" stroke="#787878"/>
  <rect  y="165.6" connectorname="GND" height="14.4" id="connector47pin" fill="none" width="0.699998" stroke-width="0" x="42.85"/>
  <rect  y="180" height="0" id="connector47terminal" fill="none" width="0.699998" stroke-width="0" x="42.85"/>
  <g  transform="matrix(1, 0, 0, 1, 44.6, 164)">
   <g  transform="rotate(270)">
    <text  y="0" font-size="3.5" id="label47" font-family="'Droid Sans'" fill="#8c8c8c" x="0" stroke="none" text-anchor="start">GND</text>
   </g>
  </g>
  <rect  y="0" connectorname="V_BATT" height="14.4" id="connector66pin" fill="none" width="0.699998" stroke-width="0" x="42.85"/>
  <rect  y="0" height="0" id="connector66terminal" fill="none" width="0.699998" stroke-width="0" x="42.85"/>
  <rect  y="165.6" connectorname="GND" height="14.4" id="connector53pin" fill="none" width="0.699998" stroke-width="0" x="42.85"/>
  <rect  y="180" height="0" id="connector53terminal" fill="none" width="0.699998" stroke-width="0" x="42.85"/>
  <rect  y="165.6" connectorname="GND" height="14.4" id="connector67pin" fill="none" width="0.699998" stroke-width="0" x="42.85"/>
  <rect  y="180" height="0" id="connector67terminal" fill="none" width="0.699998" stroke-width="0" x="42.85"/>
 </g>
</svg>
